<?xml version="1.0" standalone="no"?>
<!DOCTYPE svg PUBLIC "-//W3C//DTD SVG 1.1//EN" "http://www.w3.org/Graphics/SVG/1.1/DTD/svg11.dtd" >
<svg xmlns="http://www.w3.org/2000/svg" xmlns:xlink="http://www.w3.org/1999/xlink" version="1.1">
<metadata>
Created by FontForge 20170731 at Fri May 24 00:25:38 2019
 By Aleksey,,,
Copyright (c) by Ef Studio
</metadata>
<defs>
<font id="Aerotis" horiz-adv-x="290" >
  <font-face 
    font-family="Aerotis"
    font-weight="400"
    font-stretch="normal"
    units-per-em="1000"
    panose-1="2 0 5 0 0 0 0 0 0 0"
    ascent="800"
    descent="-200"
    x-height="311"
    cap-height="928"
    bbox="-1166 -538 4565 1154"
    underline-thickness="50"
    underline-position="-175"
    unicode-range="U+001D-E602"
  />
<missing-glyph horiz-adv-x="500" 
 />
    <glyph glyph-name="dd" unicode="dd" horiz-adv-x="931" 
d="M104 48l-13 2q-34 10 -34 61q0 47 34 110q-102 -77 -155 -77q-40 0 -40 40q0 26 19 58t50 55q47 34 93 34q55 0 63 -53q26 50 111 169.5t186.5 231t143.5 111.5q5 0 13 -4q6 -4 6 -16q0 -34 -50 -110.5t-147 -175.5q-158 -164 -252 -233q-51 -94 -51 -148q0 -29 15 -39
q4 -3 13 -3q25 0 78 36.5t104 82t105 88.5t78 53q28 11 48 11q47 0 55 -46q23 45 98.5 150t165 203t127.5 98q6 0 11 -3t5 -13q0 -29 -44.5 -97t-129.5 -156q-151 -153 -223 -206q-46 -85 -46 -132q0 -25 12 -33q7 -4 16 -4q30 0 93 39.5t130 87.5t94 59l3 1q4 0 4 -3
q0 -4 -4 -5q-31 -13 -97.5 -62.5t-128 -89t-97.5 -39.5l-15 2q-31 10 -31 55q0 41 29 98q-90 -69 -136 -69q-35 0 -35 35q0 24 17 52q-23 -18 -75 -63.5t-83 -71t-70 -48.5t-63 -23zM604 291q43 34 123 110t142 149q46 53 75.5 102t29.5 68v2q0 6 -6 6q-13 0 -55 -39
q-62 -61 -158.5 -188.5t-150.5 -209.5zM151 284q49 39 139.5 125t160.5 167q53 62 86.5 116.5t33.5 76.5v2q-1 7 -7 7q-16 0 -63 -44q-70 -69 -179.5 -213.5t-170.5 -236.5zM-59 161q25 0 70.5 25.5t94.5 67.5v7q0 50 -42 50q-43 0 -82 -37q-22 -19 -39 -50.5t-17 -49.5
q0 -10 6 -12zM417 181q22 0 62.5 23t83.5 60v7q0 43 -37 43q-35 0 -73 -32q-19 -18 -34 -45.5t-15 -43.5q0 -9 6 -11z" />
    <glyph glyph-name="ll" unicode="ll" horiz-adv-x="693" 
d="M-141 -41q-10 0 -17 4q-28 14 -28 58q0 65 51 173t109 196q103 159 235 279t185 120q10 0 16 -6q5 -7 5 -15q0 -26 -39.5 -78t-107.5 -118t-125 -117.5t-127 -112.5t-78 -68q-16 -20 -57.5 -117t-41.5 -146q0 -35 24 -36h2q37 0 102.5 50.5t165.5 146.5t124 117
q29 59 65 115q85 131 197 232t157 101q8 0 13 -5q4 -4 4 -12q0 -22 -32.5 -64.5t-87 -95.5t-102.5 -97t-104 -92.5t-66 -58.5q-2 0 -2 -2q-13 -16 -47.5 -96t-34.5 -121q0 -29 20 -29h2q27 0 90 43.5t140.5 98.5t128.5 74l4 1q4 0 4 -3t-5 -5q-41 -16 -121 -74t-150 -105.5
t-100 -47.5q-8 0 -12 3q-24 13 -24 51q0 57 49 160q-15 -14 -50 -47.5t-59.5 -57t-60 -56t-63 -54.5t-57 -43.5t-53.5 -32t-41 -10.5zM316 341q19 17 70.5 62.5t92 82.5t75.5 72q127 127 127 158l-1 3q-2 2 -5 2q-30 0 -118 -81q-142 -129 -241 -299zM-41 312q20 18 84 74
t112.5 100t91.5 87q152 154 152 190q0 3 -1 4q-2 3 -6 3q-15 0 -52.5 -25t-89.5 -73q-170 -156 -291 -360z" />
    <glyph glyph-name="mm" unicode="mm" horiz-adv-x="1059" 
d="M-233 70q-7 0 -7 6q0 4 1 6q17 45 60 114t80 111q4 2 5 2q5 0 11 -5t6 -9q0 -2 -2 -4q-83 -97 -128 -184q36 38 130 110t124 72q11 0 11 -10q-26 -56 -65 -160q19 30 73.5 73.5t78.5 43.5q12 0 12 -13v-6q0 -30 4 -48.5t12 -25.5t14 -8.5t18 -1.5q67 5 241 160l2 1
q1 1 4 1q4 0 9 -4.5t5 -8.5q0 -1 -2 -3q-41 -46 -95 -153q33 35 106.5 93.5t97.5 58.5q8 0 8 -8q-7 -15 -22 -44.5t-24 -54.5q17 22 49 41.5t50 19.5q11 0 12 -7q16 -71 26 -82q7 -7 17 -10l7 -1q28 0 120 69.5t126 79.5h2q3 0 3 -2q0 -4 -4 -5q-34 -11 -127.5 -81.5
t-122.5 -70.5h-4q-24 2 -39 22t-29 74q-33 -15 -50.5 -26.5t-40.5 -35.5q-8 -9 -13 -9t-5 10q0 15 10.5 44t25.5 53q-40 -16 -104.5 -70.5t-90.5 -83.5q-1 -3 -6 -3q-7 0 -7 6l1 5q36 87 83 154q-44 -38 -74.5 -62t-73 -50t-73.5 -32q-10 -2 -17 -2q-54 0 -54 93v10
q-56 -21 -147 -120q-7 -8 -12 -8q-6 0 -6 13q0 25 16.5 75.5t35.5 81.5q-46 -19 -129.5 -86.5t-115.5 -101.5q-2 -3 -7 -3z" />
    <glyph glyph-name="nn" unicode="nn" horiz-adv-x="808" 
d="M140 58q-6 0 -6 7l1 3q9 30 50 98q44 71 45 73q-34 -36 -57 -58t-59.5 -44.5t-65.5 -22.5h-2q-41 0 -57.5 32.5t-16.5 77.5l1 12q-14 -8 -30 -19t-32 -25t-30 -26t-30.5 -28.5l-25.5 -25.5t-23 -24t-16 -17l-5 -1q-9 0 -9 9l1 3q16 40 48 94q51 85 77 120q3 3 7 3
t8.5 -3.5t4.5 -7.5q0 -3 -1 -4q-79 -105 -116 -180q137 157 187 157q6 0 11 -3q7 -4 7 -9v-7q-5 -18 -5 -42q0 -67 52 -68h2q20 0 43 9.5t47 29t40 34.5t39.5 39.5t29.5 30.5q2 0 4.5 2t3.5 2q12 0 12 -10q0 -3 -1 -4q-72 -93 -106 -163q127 142 171 142q7 0 10 -2
q7 -5 7 -9l-1 -7q-7 -30 -7 -55q0 -60 39 -68l7 -1q38 0 163.5 86t139.5 92l4 1q4 0 4 -2t-5 -5q-20 -10 -86.5 -59.5t-129 -88t-95.5 -38.5l-8 1q-58 12 -58 96l2 37q-22 -12 -51 -36.5t-48.5 -44t-47 -48t-30.5 -31.5q-4 -4 -7 -4z" />
    <glyph glyph-name="rr" unicode="rr" horiz-adv-x="600" 
d="M221 67l-12 2q-22 7 -22 33q0 17 9.5 42.5t22.5 51t16 34.5q4 14 4 21q0 11 -6 16l-2 1q-6 -4 -56.5 -41.5t-80 -58t-71.5 -41.5t-66 -21q-7 0 -15 2q-26 8 -26 32q0 12 6 28.5t15 35t12 26.5q4 14 4 21q0 11 -6 16q-10 6 -10 17q0 18 20 39t39 21h4q6 -2 6 -7
q0 -11 -16.5 -30.5t-29.5 -27.5q13 -12 13 -30q0 -21 -19.5 -61t-19.5 -51q0 -13 13 -17l11 -2q18 0 45 11.5t59.5 32t58.5 38.5t59.5 42.5t44.5 31.5q-2 6 -2 9q0 18 19.5 39.5t37.5 21.5h5q7 -1 7 -8q0 -10 -16.5 -29t-29.5 -28q11 -10 11 -28q0 -25 -27.5 -79.5
t-27.5 -69.5q0 -13 11 -17q3 -1 9 -1q19 0 54 15t80 42.5t78 49t77.5 52t48.5 33.5l6 3q3 0 3 -2q0 -5 -5 -7q-8 -6 -67 -48t-101.5 -71t-95.5 -56.5t-79 -27.5zM-45 288q11 5 23.5 21t12.5 20h-1q-8 -5 -21.5 -20t-13.5 -20v-1zM240 286q10 6 25.5 24t15.5 22h-2
q-9 -5 -24.5 -21.5t-15.5 -22.5z" />
    <glyph glyph-name="ss" unicode="ss" horiz-adv-x="508" 
d="M-314 -42q-21 0 -34.5 12.5t-13.5 32.5q0 39 46 81q44 40 120 73q0 1 5.5 53.5t13.5 75.5q11 28 33 46t40 18q12 0 17 -11l1 -6q0 -7 -6 -15t-16 -15.5t-18.5 -12.5t-19.5 -11l-10 -6q-4 -18 -7.5 -52.5t-6.5 -52.5q32 11 71 27.5t64 28t63.5 30.5t47.5 23l4 12
q9 23 28 38.5t34 15.5q10 0 15 -9l1 -5q0 -21 -60 -51q-4 -15 -7 -45.5t-6 -48.5q22 8 69.5 23.5t76.5 25.5t59.5 23.5t42.5 23.5l2 1q2 0 2 -2l-1 -3q-21 -20 -66.5 -38.5t-107.5 -37.5t-79 -26q-15 -86 -51 -128t-72 -42q-18 0 -29.5 10.5t-11.5 28.5q0 33 40 70
q37 36 104 63l10 90q-155 -78 -245 -113q-19 -98 -60 -146.5t-82 -48.5zM-40 14q30 0 61.5 45.5t39.5 103.5q-68 -29 -96 -60q-34 -35 -34 -60q0 -15 11 -23q8 -6 18 -6zM100 290q14 6 32 18t18 20v2q-2 6 -7 6q-10 0 -24.5 -16t-18.5 -30zM-153 287q58 29 58 45v2
q-1 7 -8 7q-11 0 -28.5 -19t-21.5 -35zM-314 -30q34 0 71 52.5t45 118.5q-77 -33 -112 -68q-38 -39 -38 -68q0 -18 13 -28q8 -7 21 -7z" />
    <glyph glyph-name="tt" unicode="tt" horiz-adv-x="678" 
d="M-381 -215q-4 0 -5 7q-7 18 -7 45q0 37 15.5 90t37.5 104.5t59 120.5t66 119t74 121t68 105t62.5 93t43.5 64q-24 5 -70 14.5t-68.5 13.5t-53.5 8t-56 4q-96 0 -195 -61l-6 -2q-4 0 -4 3q0 4 6 7q106 67 212 67q25 0 57 -3.5t53 -7t68 -12.5t69 -13q77 117 155 211
q4 7 13 7q6 0 11 -4t5 -8q0 -3 -2 -7q-69 -88 -148 -205q116 -21 234 -35q18 24 38 51.5t35 48.5t18 25q4 6 12 6q15 0 15 -12q0 -2 -2 -6l-84 -117q149 -16 255 -16q191 0 252 49q3 3 6 3q5 0 5 -4q0 -3 -4 -7q-72 -56 -286 -56q-103 0 -241 14l-69 -96
q-287 -389 -332 -576q-2 -6 -2 -20q0 -24 10 -32q3 -3 10 -3q27 0 99 59.5t146.5 132t154.5 136.5t121 70q7 0 7 -4q0 -2 -5 -4q-41 -13 -101 -60t-118.5 -104t-116 -112t-107.5 -92t-79 -37q-10 0 -17 4q-22 12 -22 49q0 61 50 161q78 165 259 421q1 2 11.5 16t32 44
t36.5 50q-112 13 -233 35q-60 -84 -115.5 -166.5t-142.5 -220t-140 -253t-53 -178.5q0 -21 7 -34v-4q0 -7 -4 -7z" />
    <glyph glyph-name="th" unicode="th" horiz-adv-x="710" 
d="M-532 -216q-3 0 -6 7q-7 18 -7 44q0 37 15.5 90.5t37 104t59.5 121t65.5 119t74.5 122t67.5 104.5t63 93.5t43.5 64.5q-243 45 -351 45q-153 0 -245 -58l-5 -2q-4 0 -4 4t5 7q99 62 268 62q119 0 344 -40q70 101 155 211q6 6 14 6q16 0 16 -11q0 -4 -3 -7
q-97 -128 -147 -206q11 -2 78 -14.5t105 -17.5q129 160 231 160q51 0 68 -38q6 -13 6 -28q0 -50 -50 -82q-55 -36 -172 -36q-34 0 -69 3q-85 -111 -173 -249.5t-143 -244.5q22 22 57.5 55t90 73.5t76.5 40.5q14 0 15 -14l-2 -7q-3 -8 -6.5 -20t-6.5 -26.5t-5.5 -31
t-2.5 -29.5q0 -51 33 -54h5q34 0 88.5 37.5t112 82.5t87.5 56h1q6 0 6 -4q0 -3 -4 -4q-27 -9 -86 -56t-118.5 -88t-97.5 -41q-12 0 -17 2q-38 12 -38 89q0 48 12 84q-34 -15 -88 -63.5t-94.5 -89t-46.5 -40.5h-1q-3 2 -3 8q0 31 67 153t154 248q51 74 99 136q-90 13 -181 32
q-58 -82 -114.5 -166t-142.5 -220.5t-139 -252t-53 -178.5q0 -20 6 -35l1 -4q0 -7 -5 -7zM201 626q98 0 149 31.5t51 69.5q0 20 -15.5 34t-41.5 14q-92 0 -206 -146q34 -3 63 -3z" />
    <glyph glyph-name=".notdef" horiz-adv-x="500" 
 />
    <glyph glyph-name=".null" horiz-adv-x="0" 
 />
    <glyph glyph-name=".null" horiz-adv-x="0" 
 />
    <glyph glyph-name="nonmarkingreturn" horiz-adv-x="508" 
 />
    <glyph glyph-name="space" unicode=" " horiz-adv-x="400" 
 />
    <glyph glyph-name="space" unicode="&#xa0;" horiz-adv-x="400" 
 />
    <glyph glyph-name="exclam" unicode="!" horiz-adv-x="313" 
d="M124 223q-6 0 -6 7l2 5q193 336 326 517q2 3 6 3t8.5 -3.5t4.5 -7.5l-1 -4q-68 -93 -168 -246.5t-165 -265.5q-3 -5 -7 -5zM82 141q-10 0 -11 10l-1 3q0 7 12.5 19t20.5 12q3 0 5 -3l1 -8q0 -22 -12 -29q-6 -4 -15 -4z" />
    <glyph glyph-name="quotedbl" unicode="&#x22;" horiz-adv-x="155" 
d="M424 711q-8 0 -8 6l1 3q24 48 39 70q3 5 11 5q10 0 10 -8l-1 -5q-6 -9 -22.5 -33t-24.5 -36q-2 -2 -5 -2zM472 711q-8 0 -8 6l1 3q21 45 39 70q3 5 11 5q10 0 10 -7q0 -2 -2 -6q-5 -8 -12.5 -19t-18 -26t-16.5 -24q-2 -2 -4 -2z" />
    <glyph glyph-name="numbersign" unicode="#" horiz-adv-x="439" 
d="M207 141q-9 0 -9 9q0 3 1 4l43 68h-74l-47 -77q-3 -4 -7 -4q-9 0 -9 9q0 3 1 4l43 68h-71q-8 0 -8 9q0 8 8 8h81l45 72h-89q-8 0 -8 9q0 8 8 8h100l31 50q3 4 7 4q9 0 9 -7q0 -1 -2 -5l-26 -42h74l31 50q3 4 7 4q9 0 9 -7q0 -1 -2 -5l-26 -42h68q9 0 9 -8q0 -9 -9 -9h-78
l-46 -72h88q9 0 9 -8q0 -9 -9 -9h-98l-47 -77q-3 -4 -7 -4zM252 239l45 72h-73l-45 -72h73z" />
    <glyph glyph-name="dollar" unicode="$" horiz-adv-x="507" 
d="M125 118q-6 0 -6 6l1 5l27 47q-40 22 -51 68q-4 13 -4 31q0 52 42 104t110 94l3 1q5 0 10 -6.5t5 -11.5q0 -4 -3 -6q-74 -47 -110.5 -96t-36.5 -90q0 -50 44 -73q106 179 216 350q-34 57 -34 89q0 26 16 52q26 41 72 63t94 22h3q15 23 35 48q4 4 6 4q9 0 9 -9l-2 -5
l-28 -39q35 -4 56.5 -19t21.5 -39q0 -33 -42 -72q-1 -2 -5 -2q-5 0 -10 4t-5 9q0 3 2 5q38 35 38 61q0 37 -66 39q-78 -113 -135 -201q21 -33 29 -46.5t19.5 -44.5t11.5 -59q0 -44 -20 -85q-30 -68 -96.5 -111.5t-131.5 -43.5q-27 0 -51 9l-28 -47q-3 -5 -6 -5zM214 178
q14 0 31 3q57 10 101 49.5t67 94.5q16 39 16 73q0 52 -47 128q-114 -173 -214 -341q24 -7 46 -7zM388 565q79 122 124 186q-40 -4 -78.5 -24t-59.5 -53q-11 -18 -11 -39q0 -25 25 -70z" />
    <glyph glyph-name="percent" unicode="%" horiz-adv-x="588" 
d="M364 618q-13 0 -22 9q-8 7 -8 18q0 28 48 64t73 39h6q18 0 18 -14q0 -31 -50 -79q-39 -37 -65 -37zM367 634q24 0 59 37t35 55v2l-2 1q-12 0 -57.5 -36.5t-45.5 -51.5q0 -5 6 -6zM218 176q-13 0 -22 9q-8 7 -8 18q0 28 47.5 64t72.5 39h6q18 0 18 -14q0 -31 -50 -79
q-39 -37 -64 -37zM220 193q24 0 59 37t35 54v3l-2 1q-12 0 -57 -37.5t-45 -51.5q0 -4 5 -5zM4 141q-4 0 -4 4q0 27 176 202q119 118 257.5 233.5t248.5 183.5l3 1q4 0 8.5 -5.5t4.5 -10.5t-3 -6q-153 -95 -363 -277t-317 -322q-6 -3 -11 -3z" />
    <glyph glyph-name="ampersand" unicode="&#x26;" horiz-adv-x="894" 
d="M266 -25q-72 0 -129 44q-63 51 -63 148q0 48 19.5 96.5t55 89.5t91.5 67t123 26q24 0 57 -5q-34 37 -34 80q0 47 37 83t83 36q33 0 59.5 -21.5t26.5 -56.5q0 -12 -4.5 -22.5t-11.5 -10.5q-9 0 -9 10q0 3 2.5 15.5t2.5 21.5q0 18 -13 31.5t-36 13.5q-42 0 -83.5 -34
t-41.5 -77q0 -28 22 -53q12 -14 24 -20t14 -11q0 -6 -5 -6q-30 14 -75 14q-118 0 -212 -109q-65 -74 -65 -166q0 -77 49 -122q47 -44 116 -44q54 0 107.5 27.5t89.5 72.5q49 64 49 135q0 39 -20 64t-60 26q-79 -16 -140 -92q-3 -6 -7 -6t-4 5q0 4 4 8q83 106 208 106
q33 0 94.5 -7.5t92.5 -7.5q106 0 159 72q33 46 33 98q0 37 -20.5 60.5t-61.5 23.5q-20 0 -48 -17q-8 -3 -12 -3q-10 0 -10 9q0 26 68 28q45 0 70.5 -29t25.5 -73q0 -53 -32 -98q-59 -83 -174 -83q-30 0 -92 6.5t-94 6.5h-21q56 -23 56 -98q0 -77 -57 -149q-38 -48 -92 -75.5
t-112 -27.5z" />
    <glyph glyph-name="quotesingle" unicode="'" horiz-adv-x="108" 
d="M424 711q-8 0 -8 6l1 3q24 48 39 70q3 5 11 5q10 0 10 -8l-1 -5q-5 -8 -12.5 -19t-18 -26t-16.5 -24q-2 -2 -5 -2z" />
    <glyph glyph-name="parenleft" unicode="(" horiz-adv-x="467" 
d="M10 -70q-5 0 -6 7q-4 56 -4 86q0 284 185 530q96 127 215 218t239 125l4 1q6 0 6 -5q0 -6 -7 -7q-105 -30 -223 -127.5t-205 -215.5q-95 -127 -148.5 -267t-53.5 -274q0 -31 3 -61l1 -2q0 -8 -6 -8z" />
    <glyph glyph-name="parenright" unicode=")" horiz-adv-x="509" 
d="M-353 -70h-3q-8 0 -8 6q0 5 7 6q105 30 222.5 127.5t206.5 215.5q201 271 201 539q0 32 -3 64l-1 1q0 8 6 8t7 -7q4 -54 4 -83q0 -285 -185 -533q-95 -126 -214.5 -217.5t-239.5 -126.5z" />
    <glyph glyph-name="asterisk" unicode="*" horiz-adv-x="216" 
d="M456 665q-9 0 -9 9q0 1 2 5l30 42l-50 -24l-4 -1q-9 0 -9 9q0 6 5 7l66 32q-19 26 -19 37l2 4l2 1q8 0 31 -30l33 47q1 4 6 4q9 0 9 -8q0 -3 -1 -5l-21 -31l45 22l3 1q8 0 8 -9q0 -6 -4 -7l-67 -32l20 -29q1 -2 1 -5q0 -8 -9 -8q-5 0 -6 4l-9 12l-9 12l-38 -55
q-3 -4 -8 -4z" />
    <glyph glyph-name="plus" unicode="+" horiz-adv-x="438" 
d="M147 279q-9 0 -9 8l1 4l87 150h-150q-8 0 -8 9q0 8 8 8h159l71 123q3 5 8 5q9 0 9 -8q0 -1 -2 -5l-66 -115h163q9 0 9 -8q0 -9 -9 -9h-172l-92 -158q-3 -4 -7 -4z" />
    <glyph glyph-name="comma" unicode="," horiz-adv-x="238" 
d="M43 18q-3 0 -3 2q0 3 4 4q12 5 20 23h-3q-9 0 -10 11l-1 3q0 7 7.5 16t15.5 13q1 3 5 3q12 0 12 -17q0 -16 -15 -36q-17 -22 -32 -22z" />
    <glyph glyph-name="hyphen" unicode="-" horiz-adv-x="344" 
d="M311 432h-179q-8 0 -8 9q0 8 8 8h179q9 0 9 -8q0 -9 -9 -9z" />
    <glyph glyph-name="hyphen" unicode="&#xad;" horiz-adv-x="344" 
d="M311 432h-179q-8 0 -8 9q0 8 8 8h179q9 0 9 -8q0 -9 -9 -9z" />
    <glyph glyph-name="period" unicode="." horiz-adv-x="227" 
d="M53 104q-11 0 -12 10l-1 3q0 8 12.5 19.5t20.5 11.5q3 0 5 -3l1 -9q0 -20 -12 -28q-4 -4 -14 -4z" />
    <glyph glyph-name="slash" unicode="/" horiz-adv-x="534" 
d="M65 83q-5 0 -5 5q0 31 203 234q140 140 297.5 274t281.5 211l5 1q5 0 9 -4.5t4 -9.5q0 -4 -4 -7q-173 -107 -414 -321.5t-365 -378.5q-7 -4 -12 -4z" />
    <glyph glyph-name="zero" unicode="0" horiz-adv-x="597" 
d="M81 39q-23 0 -42 12q-39 27 -39 99l2 33q21 151 145 339q25 38 50.5 72.5t64 78t74.5 75t79 53t81 21.5q26 0 51 -11q50 -21 50 -81q0 -24 -8.5 -55t-19 -56.5t-30.5 -63.5t-30.5 -56t-33.5 -55.5t-26 -42.5q-24 -41 -62.5 -94.5t-92 -117.5t-111.5 -107t-102 -43zM81 62
q68 0 186.5 135.5t209.5 294t97 228.5l1 10q0 61 -65 68h-7q-37 0 -84.5 -32t-92.5 -81.5t-79.5 -95t-60.5 -85.5q-162 -253 -162 -370q0 -46 28 -64q12 -8 29 -8z" />
    <glyph glyph-name="one" unicode="1" horiz-adv-x="389" 
d="M15 37q-6 0 -10.5 4t-4.5 10l2 7l437 667q-92 -71 -209 -71q-7 0 -7 4q0 5 7 5q34 0 66 6.5t58 19t46.5 24.5t39.5 30t29 28t24 26.5t15 17.5q4 3 9 3q10 0 10 -8l-2 -5q-42 -69 -245 -375q-187 -281 -255 -387q-3 -6 -10 -6z" />
    <glyph glyph-name="two" unicode="2" horiz-adv-x="783" 
d="M33 36h-2q-14 1 -22.5 10.5t-8.5 21.5q0 19 18.5 32.5t55.5 13.5q32 0 65 -9q25 13 88 62t144.5 122.5t156.5 151t126.5 155.5t51.5 129q0 69 -94 83l-21 1q-89 0 -170 -80.5t-81 -199.5l3 -45q0 -6 -5 -6q-6 0 -7 7q-4 25 -4 54q0 118 82 199.5t194 81.5h15
q51 -3 83.5 -30.5t32.5 -76.5q0 -107 -159 -272q-243 -245 -401 -346q159 -46 278 -46q82 0 148 21l4 1q7 0 7 -5q0 -3 -8 -6q-67 -22 -154 -22q-64 0 -132.5 11.5t-114.5 23.5l-45 12q-77 -49 -124 -49zM33 54q26 0 86 39q-25 8 -47 8q-27 0 -41 -10.5t-14 -23.5q0 -6 4 -9
q3 -4 12 -4z" />
    <glyph glyph-name="three" unicode="3" horiz-adv-x="644" 
d="M162 38h-3q-81 0 -120 38.5t-39 97.5q0 75 49 137q25 31 67 51t88 20q35 0 63 -12l3 -4l-3 -3l-4 1q-29 9 -57 9q-88 0 -145 -72q-47 -55 -47 -125q0 -54 35.5 -89.5t109.5 -35.5q95 1 193 116t98 219q0 92 -90 120q-12 0 -12 10q0 9 10 10q68 7 116.5 40t72.5 78
q18 34 18 69t-19 59.5t-55 30.5l-25 2q-60 0 -103 -36q-2 -2 -6 -2q-5 0 -5 4t4 8q48 39 114 39l28 -2q42 -7 68 -34.5t26 -69.5q0 -29 -13 -61q-19 -55 -66.5 -93.5t-107.5 -55.5q72 -37 72 -131q0 -96 -72 -198q-42 -60 -108.5 -97.5t-134.5 -37.5z" />
    <glyph glyph-name="four" unicode="4" horiz-adv-x="601" 
d="M201 37q-13 0 -13 10l3 9l181 326q-13 1 -230 12q-17 -14 -54 -32.5t-61 -18.5q-26 0 -27 24q0 27 30 35.5t90 8.5q103 80 191 190.5t128 203.5q3 9 9 9t6 -6l-1 -5q-43 -108 -121 -212.5t-173 -182.5q172 -7 223 -7l158 285q4 6 11 6q16 0 16 -13l-1 -5l-152 -273l47 -2
q22 0 39 4h4q7 0 7 -5t-8 -7q-37 -9 -99 -9l-188 -336q-4 -9 -15 -9zM26 355q14 0 39 15.5t35 25.5h-22q-65 0 -65 -26l1 -5q1 -10 12 -10z" />
    <glyph glyph-name="five" unicode="5" horiz-adv-x="673" 
d="M113 36h-8q-54 2 -79.5 32t-25.5 77q0 67 41 131q46 73 122.5 124.5t145.5 57.5h2q6 0 6 -4q0 -6 -8 -8q-66 -7 -138 -57t-110 -110q-41 -65 -41 -129q0 -89 88 -92h9q98 0 183 66.5t146 159.5q74 116 74 214q0 54 -27.5 86t-84.5 32q-49 0 -114 -24l-4 -1q-11 0 -11 11
q0 4 3 8q23 29 73 96.5t81 104.5q10 10 18 10l4 -1q64 -28 146 -28q59 0 107 16h3q6 0 6 -4q0 -5 -7 -8q-53 -18 -112 -18q-66 0 -150 21q-22 -27 -62 -88.5t-63 -90.5q50 11 83 11q71 0 106 -36t35 -97q0 -73 -45 -165q-25 -54 -64 -105t-88.5 -95t-112.5 -70.5t-127 -26.5
z" />
    <glyph glyph-name="six" unicode="6" horiz-adv-x="529" 
d="M91 37q-31 0 -55 18q-36 29 -36 93q0 67 34.5 149.5t72.5 130.5q96 124 238.5 233.5t275.5 156.5l9 2q9 0 9 -6q0 -7 -13 -11q-219 -91 -416 -301q51 27 95 27q31 0 54 -13q50 -29 50 -111q0 -95 -65 -192q-51 -76 -122.5 -126t-130.5 -50zM97 52q47 0 105.5 45.5
t110.5 129.5q69 108 69 195q0 84 -75 90l-11 1q-33 0 -71 -19.5t-69 -53.5q-7 -11 -26 -36t-28 -39q-78 -115 -78 -218q0 -52 26 -77q18 -18 47 -18z" />
    <glyph glyph-name="seven" unicode="7" horiz-adv-x="634" 
d="M16 19q4 0 8 5q224 282 368 443q202 228 345 341q11 8 11 22q0 5 -5 5h-67q-116 0 -175 -4q-115 -7 -196 -28q-9 -3 -9 -9q0 -8 9 -8l1 1q62 16 200 24q60 4 133 4l57 -1q-166 -138 -326 -322q-49 -57 -103 -124t-88 -110.5t-91 -117t-79 -102.5q-3 -4 -3 -10q0 -9 9 -9
h1z" />
    <glyph glyph-name="eight" unicode="8" horiz-adv-x="615" 
d="M117 38q-23 0 -41 6q-76 27 -76 109q0 87 68 168q96 122 270 205q-17 45 -17 84q0 55 40 113q30 45 81.5 72.5t95.5 27.5q14 0 26 -3q52 -13 52 -70q0 -49 -42 -96q-68 -72 -197 -128q33 -89 33 -167q0 -91 -47 -173q-39 -68 -111 -108t-135 -40zM370 543q131 53 196 123
q34 37 34 81q0 26 -14.5 43.5t-41.5 19.5h-12q-78 0 -140 -81q-42 -54 -42 -103q0 -32 20 -83zM120 58q59 0 121 40.5t97 104.5q42 81 42 156q0 65 -37 152q-176 -90 -260 -201q-65 -88 -65 -156q0 -72 65 -91q18 -5 37 -5z" />
    <glyph glyph-name="nine" unicode="9" horiz-adv-x="601" 
d="M98 36h-9q-42 0 -65.5 23.5t-23.5 63.5q0 63 56 134q27 36 72.5 73.5t84.5 56.5l5 1q4 0 4 -3t-6 -8q-42 -20 -83 -56t-69 -74q-49 -65 -49 -125q0 -33 18 -53t52 -20l6 1q40 1 84 33.5t79 76.5t75 110t65.5 116t57 114.5t43.5 86.5q-103 -84 -167 -84q-19 0 -32 9
q-26 20 -26 55q0 67 76 146q44 47 97.5 77t96.5 30q38 0 61 -24l2 -3q0 -7 -8 -7l-6 2q-21 12 -46 12q-41 0 -87.5 -27.5t-87.5 -72.5q-70 -78 -70 -127q0 -24 20 -39q8 -7 24 -7q35 0 89 31.5t77 55.5q11 20 26.5 45.5t42 57.5t40.5 32q5 0 8 -4q2 -2 2 -4
q0 -9 -18.5 -33.5t-38.5 -47.5l-21 -23q-5 -7 -37 -76.5t-75 -150.5t-96.5 -166.5t-118.5 -144t-124 -63.5zM577 684l37 47q-15 -11 -37 -47z" />
    <glyph glyph-name="colon" unicode=":" horiz-adv-x="227" 
d="M45 141q-4 0 -4 3l-1 6q0 22 14 34q5 5 15 5t11 -11v-2q0 -8 -13.5 -21.5t-21.5 -13.5zM107 252q-3 0 -4 3l-1 5q0 26 16 34q5 5 15 5q9 0 10 -10v-2q0 -8 -14 -21.5t-22 -13.5z" />
    <glyph glyph-name="semicolon" unicode=";" horiz-adv-x="235" 
d="M115 251q-4 0 -4 3l-1 6q0 24 15 34q5 5 14 5q11 0 12 -11v-2q0 -8 -14 -21.5t-22 -13.5zM42 105q-2 0 -2 3t4 4q11 3 20 23h-4q-8 0 -8 10l-1 4q0 7 7 16t15 13q1 3 5 3q12 0 12 -17q0 -16 -15 -36q-16 -23 -33 -23z" />
    <glyph glyph-name="semicolon" unicode="&#x37e;" horiz-adv-x="235" 
d="M115 251q-4 0 -4 3l-1 6q0 24 15 34q5 5 14 5q11 0 12 -11v-2q0 -8 -14 -21.5t-22 -13.5zM42 105q-2 0 -2 3t4 4q11 3 20 23h-4q-8 0 -8 10l-1 4q0 7 7 16t15 13q1 3 5 3q12 0 12 -17q0 -16 -15 -36q-16 -23 -33 -23z" />
    <glyph glyph-name="less" unicode="&#x3c;" horiz-adv-x="293" 
d="M140 249q-6 0 -34.5 46.5t-54.5 93.5l-26 47l-1 3l1 4l2 2l339 185q7 0 7 -7t-7 -7l-324 -178l101 -176q5 0 5 -5q0 -8 -8 -8z" />
    <glyph glyph-name="equal" unicode="=" horiz-adv-x="469" 
d="M153 465q-6 0 -6 6q0 5 5 5l204 3q7 0 7 -6q0 -7 -7 -7zM102 398q-6 0 -6 6q0 5 5 6l205 2q5 0 5 -6t-5 -6z" />
    <glyph glyph-name="greater" unicode="&#x3e;" horiz-adv-x="391" 
d="M66 255q-6 0 -6 7q0 6 6 6l325 179l-100 175q-6 0 -6 6q0 8 7 8q6 0 35 -47t55 -93l26 -47q1 -1 1 -3l-3 -7z" />
    <glyph glyph-name="question" unicode="?" horiz-adv-x="389" 
d="M126 168q-17 0 -31 9t-14 26q0 34 53 86q35 35 103 86t122 89t96.5 83t42.5 77q0 6 -2 14q-7 25 -41 25q-28 0 -65 -18t-68 -48q-3 -3 -6 -3q-7 0 -7 8q0 3 3 6q70 69 143 69q29 0 46.5 -13.5t17.5 -39.5q0 -27 -18 -57q-17 -30 -85 -86t-137.5 -106t-125.5 -99.5
t-56 -70.5q0 -10 10 -14q10 -5 24 -5l4 1q14 0 15 -8q0 -11 -24 -11zM60 60q-10 0 -11 10l-1 3q0 8 12.5 19.5t20.5 11.5q3 0 5 -3l1 -9q0 -22 -12 -28q-6 -4 -15 -4z" />
    <glyph glyph-name="at" unicode="@" horiz-adv-x="726" 
d="M305 2q-107 0 -184 74t-77 191q0 80 40 167q50 110 132.5 165.5t171.5 55.5q97 0 165.5 -60t68.5 -157q0 -40 -13 -82q-27 -89 -97.5 -157t-151.5 -86q-7 -2 -18 -2q-30 0 -30 34q0 53 67 172q-73 -59 -117 -59q-42 0 -42 47q0 57 56 110q35 32 73 32q18 0 29.5 -9
t11.5 -26q0 -11 -8 -30q-2 -5 -6 -5t-4 6l1 5q6 14 6 23q0 19 -21 19q-23 0 -53.5 -23.5t-45.5 -60.5q-10 -23 -10 -40q0 -27 25 -27q53 0 144 95q1 2 6 2t10.5 -4.5t5.5 -8.5l-1 -3q-1 -1 -12 -18.5t-18.5 -29.5t-20 -33.5t-21.5 -38.5t-18 -35.5t-13.5 -33.5t-4.5 -25
q0 -18 16 -18l9 1q105 25 177 118t72 192q0 61 -32 108t-98 69q-44 15 -85 15q-90 0 -167.5 -58.5t-116.5 -150.5q-36 -84 -36 -158q0 -111 72 -179t171 -68q118 0 203 94q3 3 6 3t3 -3q0 -4 -4 -9q-93 -100 -216 -100z" />
    <glyph glyph-name="A" unicode="A" horiz-adv-x="1813" 
d="M1356 -406q-6 0 -8 5q-17 48 -17 120q0 104 36.5 237.5t109.5 271.5q-101 14 -268 60q-398 -353 -663 -501q-2 -1 -5 -1q-4 0 -4 3q0 4 6 7q136 76 291.5 198.5t355.5 298.5q-34 9 -155 43.5t-179.5 49t-158 37t-180.5 32t-157 9.5q-212 0 -351 -87q-4 -2 -6 -2
q-3 0 -3 3q0 4 5 7q148 92 366 92q76 0 158 -9.5t181.5 -32t158.5 -37t180.5 -49t155.5 -43.5q43 36 151.5 132t194 169t187.5 156.5t182.5 137t128.5 68.5q5 2 12 2q5 0 5 -2q0 -5 -11 -8q-78 -27 -222 -140t-348.5 -293.5t-260.5 -226.5q170 -45 261 -58q75 139 211 327.5
t269 318.5q9 9 17 9q7 0 7 -7q0 -9 -10 -19q-111 -113 -245 -297t-214 -336q65 -7 106 -7q118 0 190 45q3 2 6 2q4 0 4 -3q0 -4 -5 -7q-83 -53 -210 -53q-39 0 -100 7q-77 -145 -119.5 -285.5t-42.5 -239.5q0 -58 15 -94l1 -3q0 -7 -9 -7z" />
    <glyph glyph-name="B" unicode="B" horiz-adv-x="1505" 
d="M186 -273q-8 0 -8 5t9 5q124 0 292 148q-25 54 -25 116q0 104 65.5 204.5t170.5 159.5l4 1q8 0 8 -9q0 -4 -5 -7q-101 -57 -164 -152.5t-63 -194.5q0 -57 22 -107q71 65 147 152t161.5 202.5t138.5 191t143 207.5l227 320q-77 -32 -159.5 -49.5t-217.5 -36.5
q-362 -51 -535 -98q-335 -90 -389 -229q-1 -7 -6 -7q-2 0 -2 4t1 6q13 35 43.5 67.5t67 57.5t94.5 49.5t106 41.5t122.5 34.5t124.5 28.5t131 24.5t121.5 19.5t116.5 17q57 8 82 12q197 29 318 83q74 98 112 98q11 0 18 -8q4 -6 4 -9q0 -10 -15 -24.5t-32.5 -25.5t-33 -19.5
t-15.5 -9.5q-11 -9 -70 -89q39 26 80 26q52 0 87.5 -37.5t35.5 -93.5q0 -30 -12 -63q-62 -174 -405 -187q110 -28 198 -111.5t88 -193.5q0 -47 -15 -88q-34 -101 -101.5 -182.5t-149.5 -132t-170.5 -77t-173.5 -26.5q-93 0 -164.5 32t-105.5 93q-157 -139 -302 -139z
M751 -242q79 0 163 26t162 75t142 129t98 178q16 47 16 91q0 64 -32.5 120.5t-79.5 90.5t-93 53.5t-77 19.5l-11 -1q-321 -469 -537 -664q31 -58 97 -88t152 -30zM1066 578q5 0 17 1q34 2 57 4t68.5 8.5t79.5 18.5t72 30t65.5 48t42.5 68q10 26 10 54q0 47 -29.5 79.5
t-73.5 32.5q-48 0 -94 -38zM1383 1021q63 39 63 51q0 2 -2 4h-1q-19 0 -60 -55z" />
    <glyph glyph-name="C" unicode="C" horiz-adv-x="1528" 
d="M719 -280q-80 0 -118 47t-38 130q0 116 65.5 278.5t174 319.5t226.5 258q-118 -19 -195.5 -35t-181 -44.5t-194.5 -71.5t-174 -101q-234 -165 -275 -383q-1 -7 -5 -7t-4 6v3q20 104 76 193t131.5 151t168 113t183 82t179.5 54.5t156 34.5t112.5 18t48.5 8l3 3
q217 168 385 231q73 27 126 28h3q36 0 51.5 -15.5t19.5 -43.5l1 -9q0 -27 -24.5 -52t-70 -44.5t-93 -35.5t-110.5 -29t-104 -20.5t-92.5 -15.5t-58.5 -9q-101 -75 -219 -236.5t-201.5 -343t-83.5 -297.5q0 -143 133 -143q20 0 43 3q72 10 180.5 71t218.5 145t204.5 165.5
t161.5 149.5q3 3 6 3q4 0 4 -4q0 -3 -2 -5q-73 -85 -212 -204.5t-302 -224t-259 -118.5q-24 -3 -44 -3zM1116 784q7 1 43 7t62.5 10.5t71 13t79 17t76 19.5t71.5 23.5t56.5 27t40 31.5t13.5 35q0 8 -3 15q-11 36 -59 36q-58 0 -165.5 -55t-177.5 -102.5t-108 -77.5z" />
    <glyph glyph-name="D" unicode="D" horiz-adv-x="1730" 
d="M391 -259q-13 0 -16 11v5q0 16 16 31.5t52 15.5l24 -2q92 70 182.5 177.5t165 222t146.5 228.5t155 225t163 182q-93 -14 -264 -24.5t-310.5 -22t-287.5 -36.5t-254 -80.5t-152 -140.5q-3 -5 -7 -5t-4 5q0 3 1 5q48 90 163.5 148.5t271 85t302.5 39t313.5 23t247.5 23.5
q25 20 66.5 50.5t104.5 65t96 34.5q14 0 24 -8q11 -10 11 -22q0 -33 -67 -67.5t-117 -46.5q-42 -11 -81 -18q-93 -79 -181.5 -191t-160 -224t-144.5 -224.5t-163.5 -222t-188.5 -187.5q129 -27 253 -27q273 0 487 125t311 358q71 167 71 311q0 96 -35 157t-100 72
q-18 3 -37 3q-49 0 -94 -22t-76 -54.5t-56 -72.5t-38.5 -72t-19.5 -57q0 -1 -4 -4.5t-7 -3.5q-5 0 -5 9q0 16 18 64q39 98 115.5 164.5t163.5 66.5q20 0 43 -5q162 -33 162 -248q0 -156 -69 -323q-51 -127 -135.5 -222.5t-191 -152.5t-226.5 -84.5t-253 -27.5
q-147 0 -298 32q-13 -11 -41 -26t-45 -15zM391 -243l36 17q11 5 20 12h-8q-18 0 -29.5 -7t-15 -13t-3.5 -9zM1361 867q50 2 137 41t87 67q0 6 -6 11q-3 3 -11 3q-29 0 -95.5 -43t-111.5 -79z" />
    <glyph glyph-name="E" unicode="E" horiz-adv-x="1691" 
d="M845 -353q-108 0 -160 74t-52 193q0 87 26.5 180t72.5 169q76 128 197.5 208t237.5 80q55 0 105 -21q-70 61 -70 173q0 37 10 76q-37 6 -217 47.5t-357 71t-311 29.5q-274 0 -316 -136q-3 -7 -7 -7t-4 6l1 4q46 150 335 150q134 0 311 -30t351.5 -70.5t219.5 -47.5
q24 54 68 84t93 32h6q42 0 72 -22.5t30 -52.5v-5q-9 -65 -138 -65q-53 0 -107 9q-16 -44 -16 -83q0 -100 79 -167q2 -4 2 -7q0 -7 -5.5 -14t-11.5 -7l-6 2q-47 28 -106 28t-129 -29q-85 -34 -145.5 -92.5t-121.5 -144.5q-122 -173 -122 -352q0 -79 27.5 -137t79.5 -82
q34 -17 81 -17q76 0 177 48t195 117t192 156.5t165.5 156t116.5 125.5q1 2 3 2q7 0 7 -6l-1 -4q-70 -84 -169.5 -182.5t-216 -196t-236.5 -166t-207 -76.5q-10 -1 -29 -1zM1343 786q128 0 128 49q0 4 -2 14q-6 14 -28 26.5t-50 12.5h-9q-39 -4 -77.5 -30.5t-55.5 -65.5
q34 -6 94 -6z" />
    <glyph glyph-name="F" unicode="F" horiz-adv-x="1439" 
d="M364 -332q-69 0 -110.5 37.5t-56.5 74.5l-1 2q0 5 5 5q3 0 4 -3q7 -21 30.5 -47.5t62.5 -42.5q33 -13 68 -13q45 0 94 23.5t91.5 60t90 92.5t84.5 108.5t80 123t71 120t64.5 114.5t53.5 94q-258 76 -405 76q-176 0 -243 -98q-3 -4 -6 -4q-4 0 -4 4q0 3 3 7
q70 106 257 106q145 0 407 -77q37 69 96 154t91 122q-86 8 -182 33t-178.5 55t-163.5 58.5t-163.5 48t-152.5 19.5q-108 0 -201 -48q-58 -31 -96.5 -82.5t-38.5 -100.5q0 -38 24 -63q3 -5 3 -7q0 -5 -4 -5q-3 0 -8 5q-30 34 -30 76q0 55 45 110t98 83q94 50 208 50
q87 0 198.5 -30.5t206 -68t219.5 -73.5t231 -44q107 123 209 179.5t181 56.5q52 0 83 -22t31 -57q0 -43 -48 -85q-48 -41 -140 -67t-215 -26q-37 0 -78 3q-93 -110 -190 -282q19 -5 83 -26t103 -29.5t78 -8.5q43 0 80 11h3q6 0 6 -6t-7 -9q-39 -12 -86 -12q-31 0 -68 7
t-62 14t-72.5 22.5t-68.5 21.5q-53 -92 -88.5 -152t-91 -148.5t-100.5 -148.5t-97.5 -121.5t-103 -99.5t-97.5 -54t-86 -16zM1297 718q193 0 296 51.5t103 110.5q0 26 -22 43.5t-62 18.5h-8q-166 0 -363 -223z" />
    <glyph glyph-name="G" unicode="G" horiz-adv-x="1760" 
d="M1041 -376q-57 0 -99 41t-42 111q0 33 10 66q18 58 62.5 111t102.5 94t133.5 77.5t148 62t154.5 48.5q145 226 209 295q-26 -16 -129.5 -91.5t-179 -113.5t-144.5 -38q-52 0 -97 26q-83 47 -83 151q4 92 56 166.5t150 153.5q-30 8 -121.5 33t-135.5 36.5t-127.5 31
t-140.5 28.5t-129 17t-134 8q-320 0 -495 -192q-3 -4 -6 -4q-4 0 -4 4t3 7q181 201 511 201q75 0 152.5 -8t178.5 -30t147.5 -33t174 -46t144.5 -39q188 143 353 143q76 0 122.5 -30t46.5 -72q0 -34 -35 -64t-105 -46q-31 -7 -71 -7q-91 0 -292 51q-111 -87 -164 -169.5
t-53 -150.5q0 -66 43.5 -105.5t111.5 -39.5q29 0 57 7q70 18 177.5 87t191 128.5t103.5 59.5q9 0 9 -10v-1q0 -4 -3 -7q-74 -60 -249 -330q77 17 95 17q9 0 9 -2t-4 -3q-17 -6 -111 -27q-12 -17 -73.5 -128t-136 -225t-141.5 -178q-72 -70 -151 -72zM1039 -362q46 0 96 35
t91.5 87t86 122t76 129.5t63.5 120t48 84.5q-81 -23 -158 -52t-167.5 -75t-157.5 -110.5t-92 -137.5q-11 -30 -11 -63q0 -67 39.5 -103.5t85.5 -36.5zM1620 737q35 0 69 8q61 14 92.5 39.5t31.5 53.5q0 33 -39 57t-102 24q-152 0 -324 -134q187 -48 272 -48z" />
    <glyph glyph-name="H" unicode="H" horiz-adv-x="1711" 
d="M1261 -300q-6 0 -6 14l1 11q47 269 198 539q-70 7 -181.5 52t-131.5 51q-54 -79 -115 -155.5t-138 -157.5t-161 -138t-158 -72q-19 -4 -38 -4q-58 0 -88.5 41t-30.5 106q0 66 30.5 134.5t84.5 115.5q2 2 5 2q9 0 9 -8q0 -4 -3 -7q-51 -44 -80 -110.5t-29 -128.5
q0 -57 26 -93t77 -36q9 0 33 4q220 45 545 517q-68 19 -124 19q-15 0 -29 -1.5t-25.5 -4t-20 -5t-17.5 -6.5l-13.5 -6t-11 -6t-7.5 -4l-7 -2q-4 0 -4 4t5 7q65 40 142 40q54 0 122 -20q9 14 36 53.5t35.5 52t30.5 44.5t32 46t28.5 39.5t31.5 42t29.5 37t33.5 39.5
q-78 -18 -182 -18q-116 0 -374 33t-378 33q-308 0 -431 -169q-4 -4 -7 -4q-5 0 -5 4q0 3 3 6q71 97 182.5 137t260.5 40q118 0 371.5 -32t369.5 -32q125 0 210 24l1 1q97 108 150 124q7 2 13 2h4q17 -3 17 -17q0 -13 -15 -33t-38 -37q-49 -34 -108 -50q-38 -43 -77 -94
t-63 -86.5t-66.5 -99.5t-64.5 -96q39 -12 100 -38.5t111.5 -43t101.5 -20.5q113 195 256 362.5t266 271.5q2 2 5 2q6 0 11.5 -4t5.5 -8q0 -2 -2 -4q-118 -101 -257 -265t-252 -358h8q108 0 186 50q2 2 6 2q2 0 2 -2q0 -3 -3 -6q-30 -26 -89 -43.5t-119 -17.5
q-171 -298 -214 -539q-5 -21 -12 -21zM1441 780q52 15 88 45.5t36 45.5q0 5 -5 5q-30 0 -119 -96z" />
    <glyph glyph-name="I" unicode="I" horiz-adv-x="923" 
d="M170 -271l-17 1q-72 8 -72 68q0 40 23 65q8 6 12 6q6 0 6 -5q0 -3 -5 -10q-17 -25 -17 -57q0 -46 56 -49h9q68 0 151.5 59.5t161.5 151t167.5 213.5t165 235.5t160.5 230.5t146 185q-42 -8 -140 -25.5t-161.5 -29t-163 -33.5t-168.5 -42.5t-152.5 -52.5t-140.5 -66.5
t-106.5 -82t-74.5 -100.5q-1 -7 -6 -7q-4 0 -4 5q0 4 1 6q32 79 121.5 146t199.5 109.5t243.5 78t240 54t204 35t122.5 23.5q40 43 77 65t61 22q13 0 19 -7q10 -10 10 -21q0 -26 -50 -46t-92 -26q-59 -67 -163 -215.5t-204.5 -290.5t-211.5 -281.5t-218 -225.5t-190 -86z
M1176 849q108 23 108 53l-1 3q-1 9 -11 9q-15 0 -44.5 -20.5t-51.5 -44.5z" />
    <glyph glyph-name="J" unicode="J" horiz-adv-x="1197" 
d="M346 -335q-14 0 -28 3q-63 11 -94.5 69.5t-31.5 138.5q0 95 37 171q64 134 171 205.5t235 71.5q109 0 223 -53q77 126 127 204t126.5 181t150.5 180q-75 -37 -188 -68t-226.5 -52t-236 -43.5t-227 -50.5t-189.5 -65.5t-133.5 -94.5t-48.5 -132q0 -55 28 -123l1 -5
q0 -5 -4 -5q-5 0 -8 8q-30 70 -30 131q0 73 44.5 130.5t118 95t174 69t208.5 51.5t225 43.5t219.5 44.5t196.5 55t152 75l4 2q6 0 11 -5.5t5 -10.5q0 -3 -2 -5q-124 -114 -234 -267.5t-234 -358.5q78 -43 149 -43q12 0 24.5 1.5t22.5 3.5t20.5 5.5t18.5 6.5t17.5 8.5
t14.5 8.5t14 9t11.5 8t10 7.5t8.5 6.5l5 2q5 0 5 -4q0 -3 -3 -6q-72 -69 -171 -69q-76 0 -156 40q-138 -229 -206 -321q-186 -254 -327 -254zM337 -316q34 0 75 22.5t78 55t80.5 84t75.5 94.5t71 101.5t58.5 90.5t46.5 78l27 45q-109 54 -213 54q-160 0 -285 -122
q-68 -66 -106.5 -151.5t-38.5 -165.5q0 -84 44 -140q36 -46 87 -46z" />
    <glyph glyph-name="K" unicode="K" horiz-adv-x="1351" 
d="M1410 -403q-93 0 -178 46t-128 114q-29 44 -49.5 121.5t-35 153t-35 150.5t-61 132t-101.5 80q-68 -96 -159 -206.5t-210 -225.5t-197 -146l-5 -1q-4 0 -4 4t6 7q71 32 183.5 142.5t208.5 229t151 206.5q-5 5 -19.5 8.5t-21.5 3.5q-8 0 -8 8q0 7 8 9q6 1 63 6
q20 29 76.5 113.5t88.5 129t83 103.5t97 94q-84 -31 -239 -74t-290 -81t-272.5 -85t-231 -106t-119.5 -124q-3 -7 -7 -7t-4 5l1 5q30 74 137.5 139.5t259.5 116.5t307 94.5t318 93t253 91.5l3 1q10 0 10 -12q0 -6 -6 -9q-41 -19 -83.5 -53.5t-75 -67.5t-75.5 -88.5
t-66.5 -89.5t-67.5 -98.5t-61 -88.5q123 9 226 45.5t174 85.5t129 99t119 94.5t116 61.5l5 1q6 0 6 -5q0 -7 -7 -8q-52 -18 -113 -65t-121 -98t-134 -101.5t-181 -87t-234 -44.5l-1 -2q65 -25 107 -86t62.5 -138.5t35 -156t39 -158t60.5 -126.5q54 -69 132 -105t156 -36
q71 0 122 30q2 1 5 1q5 0 5 -3q0 -2 -6 -5q-67 -37 -146 -37z" />
    <glyph glyph-name="L" unicode="L" horiz-adv-x="1218" 
d="M1537 -325q-61 0 -130.5 30t-138.5 73.5t-144 86.5t-172.5 73t-198.5 30h-8q-112 -117 -181 -117q-21 0 -28 15q-5 12 -5 20q0 39 62.5 69.5t143.5 35.5q67 77 144.5 198t136.5 224.5t139 219t155 189.5q-52 -11 -127 -11q-117 0 -401 43t-411 43q-145 0 -238 -43.5
t-125 -148.5q-1 -8 -7 -8q-3 0 -3 5l1 5q35 114 132.5 161t249.5 47q134 0 415 -43q27 -4 84.5 -13t88.5 -13.5t75.5 -10t80.5 -8t69 -2.5q80 0 141 17q18 15 64 45t68 30q15 0 15 -10q0 -13 -24 -32t-67 -35q-16 -6 -25 -8q-142 -130 -312 -409q-107 -175 -170.5 -271.5
t-117.5 -159.5q108 -4 208.5 -36.5t174.5 -76.5t140 -87t131 -73t122 -30q70 0 142 45l5 2q5 0 5 -5t-5 -7q-76 -49 -154 -49zM561 -133q63 3 154 101q-71 -6 -118.5 -38t-47.5 -54q0 -9 11 -9h1zM1406 864q37 16 54 33z" />
    <glyph glyph-name="M" unicode="M" horiz-adv-x="1713" 
d="M1434 -352q-44 0 -69.5 35.5t-25.5 101.5q0 120 85 306q150 322 637 892q-120 -41 -369 -209.5t-426 -307.5q-137 -106 -217 -181l-101 -136q-4 -3 -8 -3q-9 0 -9 14v1q0 33 94 122q254 365 558 634q-58 -22 -136.5 -70t-186.5 -129t-186 -142t-219 -174.5t-201 -161.5
q-92 -72 -154 -119t-153.5 -109.5t-163.5 -95t-120 -32.5q-9 0 -21 2q-42 8 -42 68q0 18 4 35q2 8 5 8t3 -5v-3q-3 -18 -3 -31q0 -63 54 -63q42 0 121 38q106 51 265 167t317.5 246t317 257.5t302 222.5t232.5 119h2q5 0 9 -3.5t4 -8.5q0 -2 -2 -4q-58 -38 -274.5 -278.5
t-264.5 -306.5q181 160 526.5 400.5t466.5 261.5h2q13 0 13 -9q0 -4 -4 -9q-107 -122 -225 -276t-236.5 -330.5t-195 -343t-76.5 -270.5q0 -10 2 -26q3 -29 22.5 -51.5t53.5 -22.5q67 0 168 94q3 3 7 3t4 -4q0 -3 -3 -7q-103 -106 -183 -106zM952 178l22 31q-12 -13 -22 -31
z" />
    <glyph glyph-name="N" unicode="N" horiz-adv-x="1365" 
d="M66 -215q-52 0 -66 57v2q0 10 8 10q4 0 5 -5q11 -45 54 -45q148 0 625 512q18 19 70.5 78t88.5 98t93.5 99t104.5 101t100 83.5t101.5 67t89.5 31.5l9 1q16 0 16 -6l-1 -2q-48 -54 -114 -172.5t-126.5 -257.5t-104.5 -288.5t-47 -251.5q44 84 77 144.5t93.5 164.5
t111.5 183t122.5 178t137 173t143 144t152.5 114q2 1 5 1q8 0 8 -8q0 -5 -5 -8q-58 -34 -118.5 -84.5t-112.5 -104t-109 -124.5t-101 -132t-95.5 -142t-85.5 -137.5t-78.5 -136.5t-66.5 -121.5t-57 -108.5l-13 -24q-4 -8 -16 -8q-10 0 -11 8v10q0 223 108.5 499t259.5 475
q-46 -12 -104.5 -50t-106 -76.5t-117.5 -109t-104.5 -107.5t-104 -114.5t-80.5 -89.5q-481 -520 -638 -520z" />
    <glyph glyph-name="O" unicode="O" horiz-adv-x="1629" 
d="M849 -284q-51 0 -88 34q-45 39 -45 115q0 69 37 162.5t92 181t113 162.5t106 121q-11 21 -18 41q-74 -8 -148 -17.5t-206 -29t-240 -45t-213.5 -58t-166 -75.5t-60.5 -90l1 -17q0 -8 -5 -8q-3 0 -6 8q-2 12 -2 19q0 50 63.5 96t164.5 79t220 60.5t236 45.5t206.5 30
t136.5 17q9 1 13 1q-24 75 -24 138q0 122 74.5 196.5t168.5 74.5q29 0 56 -9q98 -32 143 -154q23 -57 23 -134q0 -174 -109 -405q44 -15 94 -15q84 0 163 37l5 1q5 0 5 -5t-6 -8q-81 -39 -168 -39q-50 0 -100 14q-37 -76 -89 -157t-117 -162t-140.5 -137.5t-142.5 -66.5
q-18 -2 -27 -2zM849 -268q100 0 236 134q154 154 263 380q-185 66 -269 218q-58 -57 -133.5 -159t-141 -232.5t-65.5 -216.5q0 -60 33 -93q32 -31 77 -31zM1081 507q9 8 18.5 17t18.5 17q-13 -2 -49 -5q9 -22 12 -29zM1356 262q107 226 107 398q0 77 -21 130
q-29 74 -75 116.5t-106 42.5q-21 0 -44 -6q-91 -23 -134.5 -91.5t-43.5 -159.5q0 -70 24 -140l77 8q61 53 99 53q14 0 21.5 -7t7.5 -16v-2q-2 -39 -103 -43q-35 -28 -70 -66q84 -156 261 -217zM1185 563q68 1 68 25v1q0 10 -9 10q-14 0 -59 -36z" />
    <glyph glyph-name="P" unicode="P" horiz-adv-x="1615" 
d="M142 -290q-16 0 -31 3q-58 11 -109 83q-2 4 -2 7q0 5 5 5q3 0 6 -4q57 -82 136 -82q67 0 149 58q75 52 163 150.5t150 184.5t152.5 215.5t131.5 184.5q219 290 345 421q-247 -87 -475 -87q-62 0 -154 7.5t-125 7.5q-77 0 -134.5 -26.5t-114.5 -99.5q-3 -4 -7 -4
q-5 0 -5 6q0 4 2 6q61 78 121.5 106.5t140.5 28.5q34 0 125.5 -7.5t153.5 -7.5q239 0 501 99l4 1q7 0 13 -4t6 -9l-1 -3q-99 -110 -256 -315q80 71 177.5 125.5t187.5 54.5q52 0 96 -22q46 -22 62 -74q6 -22 6 -46q0 -106 -103.5 -230t-206.5 -183q98 -20 180 -20
q117 0 182 39l4 1q7 0 7 -6q0 -4 -5 -7q-70 -42 -196 -42q-89 0 -194 22l-6 -3q-7 -4 -18 -9t-25.5 -11t-33.5 -12.5t-38.5 -11.5t-43 -8.5t-44.5 -3.5q-54 0 -100 23q-35 18 -35 57q0 25 18.5 43t51.5 18l21 -2l240 -60q109 58 209 195t100 234q0 103 -126 103h-17
q-82 -5 -197.5 -71.5t-239.5 -199.5q-24 -29 -83 -112t-119 -168t-142 -185t-156.5 -175.5t-156 -126.5t-147.5 -51zM1018 207q80 0 177 47l-221 57l-16 1q-28 0 -41.5 -12t-13.5 -30q0 -30 26 -43q37 -20 89 -20z" />
    <glyph glyph-name="Q" unicode="Q" horiz-adv-x="1060" 
d="M1024 -437q-36 0 -82 10t-82 21t-96 37t-88.5 39.5t-98 47.5t-88.5 43q-77 -43 -142 -43q-58 0 -92 35t-34 102l1 17q-97 29 -161 29q-33 0 -52 -7l-6 -1q-3 0 -3 2q0 5 7 6q29 12 75 12q60 0 142 -24q5 47 30 116q36 92 102.5 200t144.5 199q51 184 176 336
q52 66 113 109t116 43q78 0 128 -91q31 -59 31 -139q0 -106 -53 -241.5t-134.5 -258.5t-181 -228.5t-190.5 -162.5q19 -9 74.5 -36t82 -39.5t76.5 -35t81.5 -33.5t72.5 -24.5t75 -19t64 -5.5q100 0 146 72q2 5 6 5q3 0 3 -4q0 -2 -2 -6q-51 -82 -161 -82zM489 -220
q121 72 250.5 224t219 335t89.5 321q0 76 -29 131q-46 83 -116 83q-51 0 -107.5 -41t-106.5 -103q-111 -139 -162 -299q177 196 402 285h2q6 0 12.5 -7.5t6.5 -14.5q0 -6 -6 -9q-249 -108 -424 -309q-12 -13 -18 -50t-10 -66t-12 -29q-10 0 -10 23q0 41 13 77
q-92 -111 -158 -229.5t-77 -219.5q77 -25 241 -102zM349 -266q54 0 121 35q-151 72 -224 95l-1 -11q0 -59 28 -89t76 -30z" />
    <glyph glyph-name="R" unicode="R" horiz-adv-x="1474" 
d="M1633 -416q-215 0 -327 200q-25 45 -60.5 125t-64 139.5t-66 119.5t-84 93t-100.5 33l-15 -1q-345 -445 -533 -445h-6q-7 0 -7 7t8 7h6q64 0 146.5 55.5t160 139t164.5 194.5t153.5 207.5t135 193t102.5 137.5q-81 -17 -193 -31.5t-207.5 -25.5t-203.5 -26.5t-199 -40
t-175 -61t-150.5 -96t-107.5 -137.5q-1 -5 -6 -5q-4 0 -4 5q0 4 1 6q32 61 80.5 110.5t96.5 84t123.5 63t130.5 44.5t150 32.5t149 23.5t160 19q266 32 370 55q15 18 38.5 44.5t78 70.5t86.5 44q20 0 30 -15q6 -7 6 -17q0 -32 -51 -72t-130 -59l-32 -8l-151 -202
q61 48 145 82t149 34q94 0 100 -75l1 -15q0 -60 -43.5 -112.5t-105.5 -86t-140.5 -59.5t-137 -38.5t-106.5 -18.5q46 -14 85.5 -51t70 -93t53.5 -108t51 -122t47 -109q111 -225 343 -225q73 0 159 22l4 1q5 0 5 -4q0 -5 -8 -6q-95 -27 -175 -27zM930 312q53 7 116.5 21
t147 41.5t149.5 61.5t112.5 85t47.5 108v2q0 60 -83 60q-71 0 -166 -44t-161 -113q-80 -113 -163 -222zM1306 819q82 20 130 55.5t48 58.5q0 11 -13 11q-21 0 -63.5 -30.5t-101.5 -94.5z" />
    <glyph glyph-name="S" unicode="S" horiz-adv-x="1962" 
d="M948 -332l-36 1q-175 8 -286 144.5t-111 324.5l1 33q-386 -181 -503 -378q-3 -5 -7 -5q-6 0 -6 7l2 6q70 116 201 211t314 181q9 131 76.5 240.5t171 171t217.5 61.5q120 0 223 -71q71 -50 101 -111q75 25 298.5 110.5t239.5 99.5q20 36 55 78t80.5 84t101 70t106.5 28
q11 0 35 -4q24 -6 24 -23q0 -19 -31 -48.5t-74 -54.5q-136 -79 -267 -139q-80 -130 -194 -392q-33 -77 -63.5 -138.5t-71.5 -128.5t-83.5 -117.5t-98 -97.5t-116.5 -77t-137.5 -48t-161.5 -18zM1889 711q89 41 213 111.5t124 99.5l-1 4q-3 8 -25 8q-24 0 -57.5 -11
t-76 -34.5t-90 -70t-87.5 -107.5zM537 202q57 26 120.5 52t110 44t127.5 46.5t117.5 41t138.5 46.5t137 46q-38 72 -122.5 120t-185.5 48q-97 0 -191 -51t-170 -160q-71 -99 -82 -233zM944 -299q102 0 190 26t152.5 69.5t123 108.5t99.5 133t84.5 153.5t76 160t76 162.5
t82.5 152l-513 -199q11 -30 11 -55q0 -53 -43 -102q-5 -3 -7 -3q-6 0 -6 6q0 3 4 7q34 37 34 83q0 24 -12 57l-92 -30q-431 -139 -668 -250l-1 -26q0 -114 42 -213t129.5 -166.5t203.5 -72.5z" />
    <glyph glyph-name="T" unicode="T" horiz-adv-x="959" 
d="M234 -359q-44 0 -70 36q-1 1 -1 4q0 6 6 6q3 0 4 -3q16 -30 62 -30q69 0 152 82q79 84 161 214t141.5 246.5t139 254.5t148.5 228q117 154 230 195q6 3 17 3q28 0 28 -9q0 -2 -9 -7q-95 -46 -188 -151.5t-172.5 -238t-154.5 -267.5t-164 -270t-172 -215
q-27 -27 -72.5 -52.5t-85.5 -25.5zM7 842q-7 0 -7 8l1 6q68 218 484 218q169 0 352 -33t304 -72q258 -85 504 -85q140 0 242 33l4 1q5 0 5 -6q0 -5 -6 -6q-112 -36 -268 -36q-246 0 -493 76q-125 38 -311 72.5t-354 34.5q-387 0 -448 -205q-2 -6 -9 -6z" />
    <glyph glyph-name="U" unicode="U" horiz-adv-x="1363" 
d="M1077 -269q-4 0 -8 4q-47 48 -47 147q0 103 45.5 228t96.5 200q-151 -140 -263 -211t-174 -71q-70 0 -70 84q0 124 152 390q73 124 165 227q-43 -19 -145.5 -57t-201.5 -74t-214.5 -87.5t-200.5 -100t-142.5 -107.5t-57.5 -115v-1q0 -8 -6 -8t-6 9v1q0 61 59.5 124
t149 114t209.5 104t224 91t210.5 78t153.5 62q7 5 39 35.5t63 54t51 23.5q8 0 11 -2q12 -5 12 -15q0 -8 -9 -18t-22 -19.5t-29 -19t-29 -16l-23 -11.5l-10 -5q-59 -44 -149 -173t-159.5 -272t-69.5 -216q0 -34 16 -47q12 -11 36 -11q65 0 188.5 82.5t260.5 215.5q3 3 56 87
t110 167t127 155.5t112 72.5q8 0 15 -3t7 -11q0 -10 -9 -27t-22.5 -37t-34 -45.5t-39 -47t-41.5 -47.5t-37 -42t-31 -34t-19 -20q-85 -87 -132 -132q-206 -328 -206 -506q0 -80 40 -136q3 -4 3 -7q0 -4 -5 -4zM1289 452q82 82 188 202t116 158h-2q-53 0 -302 -360zM1080 800
q26 13 45.5 25.5t28.5 21t9 12.5l-1 1q-36 -19 -82 -60z" />
    <glyph glyph-name="V" unicode="V" horiz-adv-x="1208" 
d="M626 -170q-31 0 -31 60q0 85 58.5 269.5t129.5 346.5t108 206q-30 -21 -65.5 -41.5t-61.5 -34.5t-70.5 -35t-63.5 -29.5t-72.5 -32t-66.5 -29.5q-5 -2 -54.5 -24l-67.5 -30t-67 -33t-73.5 -42t-65 -46.5t-64.5 -57t-48.5 -64t-38.5 -75.5q-3 -7 -7 -7q-5 0 -5 6l1 4
q20 60 61.5 113t84.5 89t109.5 73.5t111.5 58t116 50.5q291 123 437 229l6 2q7 0 13 -5t6 -10l-1 -4q-108 -168 -214.5 -446t-106.5 -398q0 -26 6 -41q0 -1 2 -1q8 0 37 25t68.5 65t73 74.5t67.5 70.5l33 36q59 64 165 185.5t182 206t170.5 178t181 152t163.5 78.5l4 1
q6 0 6 -5q0 -4 -6 -6q-75 -20 -161 -79t-179 -152t-169.5 -178.5t-180 -206t-164.5 -185.5q-186 -201 -232 -242q-34 -30 -50 -36q-9 -3 -15 -3z" />
    <glyph glyph-name="W" unicode="W" horiz-adv-x="1353" 
d="M797 -189q-37 0 -50 69q-5 29 -5 77q0 124 42 282t97 252q-19 -12 -117.5 -109.5t-212 -197.5t-178.5 -127q-11 -5 -23 -5q-32 0 -32 46q0 86 99 245.5t269 302.5q-46 -15 -231 -56t-313.5 -80t-128.5 -71l1 -5q0 -7 -6 -7t-8 9v4q0 34 95.5 70t214.5 62t246.5 57
t171.5 52l5 1q7 0 14.5 -5.5t7.5 -11.5q0 -5 -7 -9q-42 -27 -115.5 -105t-133.5 -163q-64 -91 -106.5 -172.5t-42.5 -116.5q0 -20 16 -20q13 0 37 15q67 41 182 147.5t208 195.5t118 98h3q9 0 20 -6.5t11 -12.5l-1 -2q-72 -99 -122.5 -279t-50.5 -301q0 -92 33 -92
q40 1 120.5 97.5t179.5 239.5t205.5 290.5t223 270.5t206.5 161q3 1 6 1q6 0 6 -3q0 -5 -6 -6q-80 -31 -193 -155t-221 -276.5t-211.5 -301t-190.5 -249t-132 -100.5z" />
    <glyph glyph-name="X" unicode="X" horiz-adv-x="1768" 
d="M117 -322h-4q-9 0 -9 5t9 5h5q66 0 163 48.5t192 119.5t195 159.5t172 160t123 128.5q23 48 135.5 243t143.5 289q-65 -47 -215 -107t-309.5 -117t-316 -120t-265 -135.5t-125.5 -143.5q-3 -7 -7 -7t-4 5l1 4q16 67 101.5 133.5t204 118t263 106.5t274 99.5t243 95.5
t163.5 96q3 5 19 5q25 0 25 -12v-1q-7 -58 -83.5 -200t-136.5 -231q54 60 145 130.5t202 136.5t238 110t232 44h16q8 0 8 -6t-8 -6h-17q-104 0 -226.5 -42.5t-235 -110.5t-210.5 -147.5t-170 -159.5q-52 -86 -121.5 -251t-69.5 -256q0 -73 53 -73q11 0 26 3q30 8 91.5 53
t140.5 106t170.5 125t206.5 119t224 78l4 1q6 0 6 -4q0 -5 -6 -6q-88 -19 -183 -62.5t-172.5 -95t-155 -108.5t-135.5 -104t-108.5 -82t-77.5 -42q-16 -4 -32 -4q-75 0 -75 109q0 75 32.5 181.5t72.5 191.5q-52 -56 -122 -123t-167 -149t-188.5 -148t-185.5 -110.5
t-159 -44.5z" />
    <glyph glyph-name="Y" unicode="Y" horiz-adv-x="1389" 
d="M508 -403h-2q-59 1 -91 31t-32 82q0 106 117 230q106 112 238 178t316 121q28 48 86.5 144t70.5 115q-221 -179 -364 -194l-12 -1q-44 0 -44 40q0 36 40.5 109t85.5 136.5t105.5 144t74.5 100.5q-49 -33 -132 -59.5t-171.5 -46t-188.5 -42.5t-192.5 -56.5t-173 -80
t-141 -122t-86.5 -173.5q-1 -8 -7 -8q-5 0 -5 6v4q29 111 98.5 194.5t160 132.5t194 83.5t209.5 57t197.5 43t166.5 52.5t110 75q5 5 15 5q19 0 19 -12l-3 -8q-17 -34 -75.5 -116.5t-117.5 -161t-106 -154.5t-47 -105q0 -19 19 -19l6 1q156 20 387 216q71 113 146 201
t124 110q17 7 28 7q16 0 16 -14t-17 -37q-24 -33 -75 -87q-155 -163 -203 -225.5t-159 -247.5q149 33 292 33h9q8 0 8 -5q0 -6 -8 -6q-167 -6 -314 -45q-53 -87 -87.5 -142t-83 -128t-83.5 -119t-79.5 -95.5t-81 -77.5t-77.5 -46t-80 -18zM1322 616q27 23 115.5 115
t88.5 105l-1 2l-2 1q-19 0 -95 -88.5t-106 -134.5zM508 -384q36 0 75 18.5t73 45t77 77t74.5 92.5t78.5 115t76 120.5t79 131.5q-364 -112 -532 -296q-109 -118 -109 -212q0 -42 27 -67t79 -25h2z" />
    <glyph glyph-name="Z" unicode="Z" horiz-adv-x="1457" 
d="M440 -383q-124 0 -124 83q0 33 20 76q43 93 126 171t179 129t205 87.5t202 53.5t173 21q18 49 18 83q0 75 -79 75q-51 0 -133 -34l-6 -1q-5 0 -5 4q0 3 4 7q81 64 241.5 231.5t180.5 216.5q4 8 4 17q0 23 -38 23q-80 0 -303.5 -94t-456.5 -216t-424.5 -247t-213.5 -180
q-2 -6 -6 -6t-4 5l1 5q31 66 220 193t418 247.5t452 211t316 90.5q56 0 56 -35q0 -12 -6 -27q-19 -48 -146 -193t-203 -211q42 11 72 11q95 0 95 -89q0 -38 -17 -86q125 2 200 41q6 3 7 -2q0 -4 -4 -5q-57 -39 -209 -49q-36 -94 -94.5 -178t-125 -147.5t-143.5 -115.5
t-150 -86t-145 -55q-89 -25 -154 -25zM439 -367q116 3 237.5 54t224 132.5t186 186.5t129.5 216q-220 -9 -434 -93.5t-348 -230.5q-38 -42 -69 -97t-31 -97q0 -71 98 -71h7z" />
    <glyph glyph-name="bracketleft" unicode="[" horiz-adv-x="481" 
d="M64 -70l-26 1h-14q-20 0 -23 4l-1 4l1 4q135 231 325 521q165 252 292 426q2 3 26 3q43 0 43 -11v-1q-1 -7 -16 -7q-5 0 -12 0.5t-16 1.5t-14 1q-47 -64 -92 -129.5t-68 -100t-70 -107t-60 -92.5q-10 -16 -62 -94.5t-91 -141t-81 -136.5l-76 -130q5 0 13 -0.5t13.5 -1
t10.5 -1t8 -2.5t3 -5v-1q0 -5 -13 -5z" />
    <glyph glyph-name="backslash" unicode="\" horiz-adv-x="1111" 
d="M1108 83l-12 4q-126 164 -367 378.5t-413 321.5q-4 3 -4 7q0 5 4.5 9.5t9.5 4.5l5 -1q124 -78 282 -212t297 -273q203 -203 203 -234q0 -5 -5 -5z" />
    <glyph glyph-name="bracketright" unicode="]" horiz-adv-x="434" 
d="M-186 -69q-42 0 -42 11q0 8 16 8q6 0 20.5 -1.5t21.5 -1.5q114 155 291 430q10 15 61.5 93t90.5 140.5t82 136.5q60 106 75 131q-4 0 -20.5 0.5t-22.5 2.5t-6 8q0 4 12 4l29 -1h15q17 0 21 -3l1 -4l-1 -5q-121 -208 -324 -520q-155 -239 -293 -426q-3 -3 -27 -3z" />
    <glyph glyph-name="asciicircum" unicode="^" horiz-adv-x="174" 
 />
    <glyph glyph-name="underscore" unicode="_" horiz-adv-x="349" 
d="M-361 -26q-9 0 -9 9q0 7 6 8l288 2q8 0 8 -8q0 -9 -8 -9z" />
    <glyph glyph-name="grave" unicode="`" horiz-adv-x="165" 
 />
    <glyph glyph-name="a" unicode="a" horiz-adv-x="445" 
d="M49 45h-3q-32 0 -32 48q0 46 25 98q-54 -40 -90 -40q-41 0 -41 44q0 34 27.5 68t73.5 47q6 2 19 2q33 0 60 -38l14 21q2 3 6 3q5 0 10.5 -4.5t5.5 -9.5l-1 -3q-23 -29 -58 -92q-32 -57 -32 -97q0 -30 17 -32h2q28 0 95.5 49t142 105t111.5 66l4 1q5 0 5 -4q0 -1 -4 -5
q-48 -20 -124 -77.5t-139 -103t-94 -46.5zM-52 164q22 0 58 25t72 71q-21 36 -49 36q-35 0 -75 -53q-28 -36 -28 -59q0 -20 22 -20z" />
    <glyph glyph-name="b" unicode="b" horiz-adv-x="349" 
d="M-231 1q-34 0 -53.5 14.5t-19.5 37.5q0 36 42 54q22 41 89 144t155 227.5t175 217.5t129 93q21 0 21 -20q0 -34 -48.5 -105t-82.5 -110q-147 -175 -295 -269l-61 -90q65 66 117 66q25 0 39 -15.5t14 -41.5q0 -13 -5 -31q111 29 213 107l4 1q3 0 3 -2q0 -3 -2 -4
q-55 -44 -103 -69t-120 -45q-33 -79 -93 -119.5t-118 -40.5zM-241 20q19 0 41 7q96 29 145 124l-176 -46q-8 -14 -16 -14q-6 0 -12 5q-32 -14 -32 -40q0 -15 13 -25.5t37 -10.5zM-220 122l171 44q11 27 11 50q0 31 -25 31l-14 -2q-78 -19 -143 -123zM-104 309
q127 89 263.5 251.5t136.5 206.5q0 4 -1 6t-2.5 2t-5.5 1q-10 0 -28.5 -14t-42.5 -39.5t-50 -56t-56 -68.5t-56.5 -72.5t-54 -73t-46 -64t-36.5 -50.5t-21 -29z" />
    <glyph glyph-name="c" unicode="c" horiz-adv-x="315" 
d="M-39 108q-17 0 -30 6q-31 14 -31 57q0 30 16 62q50 89 110 89q18 0 29 -8.5t12 -21.5q0 -9 -6 -9q-4 0 -6 5q-2 8 -6 11q-7 7 -18 7q-20 0 -45.5 -22t-39.5 -49q-22 -40 -22 -68q0 -39 42 -41h5q95 0 297 152l5 2q4 0 4 -4q0 -2 -4 -5q-83 -66 -170 -114.5t-142 -48.5z
" />
    <glyph glyph-name="d" unicode="d" horiz-adv-x="519" 
d="M107 48q-21 0 -35.5 15t-14.5 48q0 47 33 110q-100 -77 -154 -77q-40 0 -40 39q0 46 51 96.5t111 50.5q55 0 63 -52q25 50 110.5 169t186.5 230t143 111q20 0 20 -20q0 -33 -50 -109t-147 -176q-161 -165 -251 -232q-52 -93 -52 -148q0 -42 31 -42q33 0 104 47t146.5 103
t106.5 69l3 1q5 0 5 -5q0 -4 -3 -5q-30 -13 -83.5 -51.5t-100.5 -75.5t-99 -66.5t-84 -29.5zM-59 160q24 0 70 25.5t95 67.5v6q0 51 -43 51t-81 -36q-22 -20 -39 -51t-17 -50q0 -11 7 -12zM151 284q48 36 138.5 123t161.5 169q52 62 85.5 116t33.5 76q0 10 -7 10
q-15 0 -61 -44q-71 -70 -181 -214.5t-170 -235.5z" />
    <glyph glyph-name="e" unicode="e" horiz-adv-x="317" 
d="M-45 109q-17 0 -30 6q-29 12 -29 52q0 32 19 67q27 49 60 71t60 22q30 0 30 -17q0 -21 -34.5 -46t-91.5 -36q-18 -36 -18 -61q0 -39 40 -41h5q51 0 135.5 45.5t165.5 106.5l5 2q4 0 4 -3t-4 -6q-86 -66 -174 -114t-143 -48zM-53 243q34 3 70.5 24t36.5 36q0 3 -3 6
q-4 4 -11 4q-18 0 -44 -17.5t-49 -52.5z" />
    <glyph glyph-name="f" unicode="f" horiz-adv-x="278" 
d="M-718 -386l-6 1q-24 4 -24 35q0 44 52.5 144.5t96.5 167.5t86 127q221 324 285 324l8 -1q11 -5 11 -16q0 -30 -47.5 -75.5t-91.5 -47.5q-55 -67 -131 -174q81 23 200 80.5t186 99.5l2 1q5 0 5 -5q0 -2 -2 -4q-47 -34 -194.5 -104.5t-206.5 -85.5q-23 -207 -115 -361
q-64 -106 -114 -106zM-334 292q35 7 72.5 46t37.5 53v1q-4 2 -6 2q-19 0 -104 -102zM-717 -368q40 0 99 97q82 137 109 324l-38 -57l-10 -16q-10 -15 -26.5 -41t-36 -58t-39 -66.5t-36 -66.5t-26.5 -59t-10 -41q0 -13 10 -16h4z" />
    <glyph glyph-name="g" unicode="g" horiz-adv-x="382" 
d="M-875 -536q-11 0 -17 2q-38 11 -38 48q0 39 43.5 106.5t81.5 110.5t70 75q37 36 75.5 71.5t72.5 64.5t64.5 54t57 45t44 33.5t32 24t15.5 10.5l80 134q-33 -32 -91 -65.5t-94 -33.5q-17 0 -28 11q-11 12 -11 31q0 25 18.5 53.5t41.5 45.5q50 36 101 36q53 0 86 -39
q3 4 7 10.5t7 10.5t5 6t5 2q14 0 14 -8l-1 -2q-44 -80 -100 -172q24 15 62.5 37.5t94.5 55t98 57.5l3 1q4 0 4 -4l-2 -4q-37 -23 -127 -75.5t-149 -93.5l-56 -93q-24 -42 -53 -90t-88.5 -136t-112 -153.5t-113 -116t-102.5 -50.5zM-870 -521q23 0 51 16t58.5 46.5t60.5 65
t64 82.5t60.5 88t58.5 92t51 84t43.5 74.5t30.5 52.5q-182 -130 -333 -284q-34 -35 -70.5 -77t-78 -104.5t-41.5 -96.5q0 -29 29 -37q10 -2 16 -2zM-469 160q33 0 94 38.5t97 72.5q-30 36 -69 36q-42 0 -97 -46q-18 -15 -34.5 -37.5t-16.5 -40.5q0 -9 6 -16q7 -7 20 -7z" />
    <glyph glyph-name="h" unicode="h" horiz-adv-x="462" 
d="M-200 67h-1q-3 1 -3 7q0 29 67 147.5t157 250.5q89 129 175 221t124 92q7 0 10 -2q9 -5 9 -20q0 -67 -133 -221q-29 -34 -69 -74t-76.5 -73t-68.5 -60.5t-53 -44.5l-20 -17q-65 -109 -88 -157q177 169 223 169q14 0 15 -14l-2 -7q-2 -7 -5 -18.5t-6 -24.5t-5 -29t-2 -29
q0 -56 36 -59h5q34 0 85.5 35.5t107 81t82.5 58.5l3 1q4 0 4 -3q0 -2 -4 -5q-23 -11 -79 -60t-111.5 -88t-93.5 -39q-9 0 -18 3q-44 13 -44 106q0 36 8 66q-34 -15 -87.5 -63.5t-94.5 -89t-47 -40.5zM-65 301q156 135 260 252q55 61 94 122t39 83q0 8 -4 9q-4 2 -6 2
q-29 0 -115.5 -103.5t-159.5 -206t-108 -158.5z" />
    <glyph glyph-name="i" unicode="i" horiz-adv-x="281" 
d="M49 367q-9 0 -13 3q-7 5 -7 13q0 6 4 12q5 5 11 5q9 0 14 -7q6 -6 6 -12q0 -5 -3 -9q-3 -5 -12 -5zM-59 103q-11 0 -18 4q-23 13 -23 44q0 41 33.5 100.5t62.5 91.5q3 3 6 3q5 0 9.5 -4t4.5 -9l-2 -4q-34 -38 -65.5 -92t-31.5 -86q0 -21 15 -29q6 -3 15 -3q38 0 151 76.5
t134 83.5l5 1q5 0 5 -3q0 -5 -7 -6q-23 -9 -83.5 -52t-119.5 -79.5t-91 -36.5z" />
    <glyph glyph-name="j" unicode="j" horiz-adv-x="241" 
d="M-1096 -511q43 0 93 56q48 53 99 139q51 87 89 168q41 84 69 144q22 49 29 62q-69 -44 -152 -115q-86 -74 -154 -153q-17 -18 -45 -60q-28 -41 -55 -93q-26 -50 -26 -90q0 -26 16 -42q15 -16 37 -16zM-1100 -526q-29 0 -47 20q-19 19 -19 51q0 43 27 96q24 49 58 98
q37 50 49 65q83 92 168 163q91 76 162 122q32 62 76 130q45 71 90 120q3 3 7 3q6 0 10 -4t4 -8l-2 -4q-33 -36 -74 -98t-70 -116q140 86 320 166l6 2q4 0 4 -3t-6 -6q-184 -85 -338 -186q-23 -46 -39 -79q-57 -117 -80 -161q-51 -99 -98 -174q-51 -82 -106 -140
q-54 -57 -102 -57zM-485 367q-7 0 -13 3q-6 4 -6 11q0 6 5 13q5 6 11 6q7 0 13 -7q3 -3 4 -5q2 -4 2 -7q0 -5 -3 -9q-5 -5 -13 -5z" />
    <glyph glyph-name="k" unicode="k" horiz-adv-x="426" 
d="M6 59h-5q-15 0 -26.5 9t-21 32.5t-14 38.5t-13.5 53q-35 -27 -63.5 -58.5t-41.5 -47.5t-18 -16h-1q-4 1 -4 8q0 30 62 139t149 233q101 144 191.5 241t134.5 97q3 0 11 -2q18 -7 18 -28q0 -36 -59 -112t-138.5 -153t-148 -137.5t-98.5 -82.5l-69 -120q36 45 108 97.5
t117 52.5q22 0 34 -16q4 -8 4 -12q0 -15 -18 -31t-45 -25q-46 -15 -101 -15h-8q23 -94 35 -112q11 -15 27 -17h2q37 0 161 97t157 108l4 1q4 0 4 -3t-5 -5q-31 -11 -95 -64t-126.5 -100t-99.5 -50zM-65 300q38 34 86 78t134 127t141.5 152.5t55.5 100.5q0 10 -6 16
q-5 3 -10 3q-34 0 -129 -111.5t-170 -216.5t-102 -149zM-46 216q46 1 81 12t49 22.5t14 21.5q0 9 -12 9l-6 -1q-21 -5 -45 -16q-33 -16 -81 -48z" />
    <glyph glyph-name="l" unicode="l" horiz-adv-x="386" 
d="M-144 -41q-10 0 -18 4q-28 14 -28 59q0 65 50.5 171t109.5 197q103 159 235 279t185 120q10 0 15 -6q5 -5 5 -15q0 -27 -39.5 -79t-106.5 -117t-125.5 -118.5t-126 -112t-78.5 -68.5q-15 -20 -55.5 -116t-40.5 -144q0 -34 24 -34q36 1 95.5 41t113.5 90t117 101.5
t102 68.5l5 1q5 0 5 -4q0 -5 -6 -6q-31 -12 -95 -64t-123.5 -106t-122.5 -98t-97 -44zM-53 299q234 212 296 274q63 63 107.5 118.5t44.5 72.5l-1 4q-2 2 -5 2q-15 0 -53 -24.5t-91 -73.5q-169 -156 -298 -373z" />
    <glyph glyph-name="m" unicode="m" horiz-adv-x="643" 
d="M-237 68q-7 0 -7 6q0 4 1 6q18 45 61.5 114t79.5 110q3 3 6 3q5 0 10 -5t5 -9t-2 -5q-80 -92 -128 -183q41 41 133 111.5t122 70.5q10 0 10 -10q-26 -57 -65 -161q18 30 73 74t79 44q12 0 12 -13v-8q0 -104 43 -122q8 -3 16 -3q33 0 97 41t129 90t87 59l5 1q2 0 2 -2
q0 -3 -4 -4q-19 -10 -85.5 -62.5t-132.5 -94.5t-107 -42l-11 1q-31 6 -47.5 34t-16.5 92v15q-26 -9 -62.5 -39t-59.5 -55l-24 -25q-7 -8 -11 -8q-6 0 -6 14q0 26 15.5 76t34.5 80q-47 -20 -131 -88.5t-113 -99.5q-1 -3 -8 -3z" />
    <glyph glyph-name="n" unicode="n" horiz-adv-x="439" 
d="M-196 83q-8 0 -8 9v3q20 54 37 82q58 99 76 120q4 4 8 4t8.5 -3.5t4.5 -7.5q0 -2 -2 -4q-77 -104 -115 -180q23 26 51.5 56t72 65t64.5 35q7 0 10 -2q7 -5 7 -10l-1 -7q-5 -23 -5 -48q0 -37 12 -62.5t38 -26.5q32 0 87 35t114 81.5t79 57.5h3q4 0 4 -3q0 -1 -3 -3
q-17 -11 -83 -64t-119 -85.5t-86 -32.5h-2q-72 2 -72 123v23q-19 -11 -40 -27t-43 -36t-35.5 -32.5t-34 -34t-22.5 -23.5z" />
    <glyph glyph-name="o" unicode="o" 
d="M-113 106q-10 0 -17 7q-8 8 -8 25q0 30 22 72q22 46 52 75q-15 12 -15 23q0 13 18 13q17 0 27 -14q8 -11 11 -18.5t2.5 -10t4 -6t17.5 -10.5q30 -15 78 -15q79 0 145 32l4 1q4 0 4 -3q0 -2 -5 -5q-76 -36 -153 -36q-51 0 -91 20v-1q0 -47 -33 -98t-63 -51zM-45 293
l-13 11q4 -5 13 -11zM-107 121q21 0 47.5 47t26.5 83l-2 14l-8 5q-36 -36 -54.5 -76t-18.5 -62q0 -7 2 -9q4 -2 7 -2z" />
    <glyph glyph-name="p" unicode="p" horiz-adv-x="395" 
d="M-829 -445q-8 0 -13 4q-14 10 -14 35q0 76 106 249q105 172 256 323q11 22 33 60q43 70 91 136q3 4 12 4q16 0 16 -7l-2 -3l-95 -142q115 107 176 107q34 0 34 -35q0 -36 -36 -87q103 0 234 78q3 2 6 2t3 -2q0 -3 -5 -6q-72 -46 -129 -64.5t-119 -18.5q-7 -8 -19.5 -20
t-47 -31.5t-64.5 -19.5h-4q-15 2 -27 12.5t-12 24.5l1 9q13 33 149 36q44 53 44 86q0 19 -19 19q-36 0 -115 -64q-20 -15 -28.5 -22t-16 -13.5t-8.5 -7.5t-7 -8t-10 -11q-12 -19 -92 -189.5t-157.5 -302t-120.5 -131.5zM-827 -428q19 0 52.5 45.5t71.5 118.5t71 142.5
t66 141t42 90.5q-113 -121 -213 -277q-104 -182 -104 -242q0 -17 12 -19h2zM-406 133q22 0 51 18.5t47 34.5q-125 -4 -125 -32q0 -7 5 -12q8 -9 22 -9z" />
    <glyph glyph-name="q" unicode="q" horiz-adv-x="388" 
d="M-517 -469q-21 0 -21 29q0 96 214 423l144 204q-59 -42 -96 -42q-42 0 -42 44q0 38 32 75.5t84 47.5l19 2q48 0 69 -42q22 26 33 37q1 2 5 2q5 0 9.5 -4t4.5 -8l-2 -4q-99 -111 -209 -274q70 30 190.5 108.5t202.5 147.5q3 3 6 3q4 0 4 -4q0 -2 -3 -5
q-79 -71 -212 -156.5t-200 -114.5q29 -37 29 -93q0 -57 -31.5 -126.5t-74 -123t-86.5 -90t-69 -36.5zM-270 162q26 0 66 25t81 73q-17 39 -52 39q-42 0 -84 -49q-37 -40 -37 -66q0 -22 26 -22zM-512 -452q26 0 83.5 56.5t108 143.5t50.5 156q0 47 -26 82l-24 -37
q-23 -37 -56.5 -92t-67 -113t-57 -109.5t-23.5 -72.5q0 -12 9 -14h3z" />
    <glyph glyph-name="r" unicode="r" horiz-adv-x="329" 
d="M-50 69l-12 2q-22 7 -22 32q0 23 24 75.5t24 53.5q4 14 4 21q0 11 -6 15q-10 6 -10 17q0 18 20 39.5t38 21.5l5 -1q6 -1 6 -7q0 -10 -16.5 -30t-29.5 -28q11 -10 11 -28q0 -25 -27.5 -79.5t-27.5 -68.5q0 -13 12 -17q3 -1 10 -1q12 0 32 7t41 17t49 26.5t50 30.5
t51.5 33.5t45 30.5t39.5 27.5t27 18.5t7 2q3 0 3 -2q0 -3 -5 -6q-6 -5 -49.5 -36t-77 -54t-78 -51.5t-80.5 -44.5t-58 -16zM-30 289q10 5 23 21t13 20q0 1 -1 1q-8 -5 -21.5 -20.5t-13.5 -20.5v-1z" />
    <glyph glyph-name="s" unicode="s" horiz-adv-x="291" 
d="M-314 -38q-21 0 -34.5 12.5t-13.5 32.5q0 39 46 81q41 40 120 72q2 13 4 40.5t5.5 50t9.5 39.5q11 28 33 46t40 18q13 0 17 -10l1 -6q0 -17 -26.5 -35t-43.5 -25q-4 -18 -7.5 -54t-6.5 -54q239 70 285 110q1 1 3 1q3 0 3 -3l-1 -3q-25 -22 -78 -44t-123.5 -44.5
t-91.5 -30.5q-18 -98 -59 -146t-82 -48zM-153 291q16 7 37 21t21 24v2q-1 7 -8 7q-11 0 -28.5 -19t-21.5 -35zM-314 -26q34 0 71 53t45 118q-73 -29 -112 -68q-38 -39 -38 -68q0 -17 13 -27q10 -8 21 -8z" />
    <glyph glyph-name="t" unicode="t" horiz-adv-x="234" 
d="M-536 -216q-3 0 -6 6q-7 18 -7 44q0 33 10.5 76.5t33.5 96t45.5 100t59.5 110.5t61 105t66 105.5t58.5 89t53.5 80t38 55.5q-231 45 -350 45q-155 0 -246 -57l-5 -2q-4 0 -4 4t5 7q101 63 268 63q115 0 344 -41q84 122 155 211q6 6 14 6q16 0 16 -11q0 -4 -3 -7
q-90 -119 -147 -206q9 -1 25 -4t24 -4q236 -38 384 -38q182 0 250 53q5 3 7 3q4 0 4 -4t-4 -7q-78 -61 -286 -61q-161 0 -360 34q-6 1 -26 4.5t-31 5.5q-55 -76 -114 -164.5t-143.5 -222.5t-138 -251t-53.5 -179q0 -20 6 -34l1 -4q0 -7 -5 -7z" />
    <glyph glyph-name="u" unicode="u" horiz-adv-x="506" 
d="M57 35q-5 0 -11 2q-22 11 -22 43q0 33 19 79.5t40 78.5q-128 -97 -166 -97q-4 0 -8 2q-7 6 -7 20q0 31 30 85.5t50 71.5q4 4 10 4q16 0 16 -11q0 -3 -3 -6q-18 -17 -55 -70.5t-37 -75.5q0 -5 4 -9l3 -1q19 0 101 63t116 94q3 3 8 3q11 0 11 -8q0 -2 -2 -6
q-17 -23 -38 -56t-44.5 -82.5t-23.5 -76.5q0 -20 13 -27q3 -2 11 -2q26 0 92 46.5t151 104t146 76.5h2q5 0 5 -4q0 -3 -5 -5q-60 -19 -149 -79t-159 -108.5t-98 -48.5z" />
    <glyph glyph-name="v" unicode="v" horiz-adv-x="375" 
d="M-89 104l-3 1q-4 1 -4 12q0 28 27.5 107t34.5 91q4 7 13 7q12 0 12 -10q0 -4 -1 -6q-41 -93 -68 -184q110 75 170 161q-4 12 -4 23q0 15 7.5 24.5t16.5 9.5q14 0 14 -17t-18 -43q26 -37 89 -37q73 0 135 36l3 1q3 0 3 -2t-5 -5q-22 -14 -61.5 -26.5t-77.5 -12.5
q-63 0 -93 37q-21 -34 -94.5 -100.5t-95.5 -66.5zM101 294q13 21 13 31q0 5 -3 5q-12 0 -12 -22q0 -9 2 -14z" />
    <glyph glyph-name="w" unicode="w" horiz-adv-x="440" 
d="M27 96q-5 0 -7 1q-13 5 -13 36q0 36 24 126q-3 -3 -23 -28.5t-39 -45t-30 -19.5q-3 0 -6 3t-3 11q0 33 47 127q6 13 19 13q9 0 9 -6l-1 -4q-63 -121 -63 -133q0 -2 2 -2q4 0 51 57.5t58 57.5q4 0 4 -8v-6q-2 -13 -18 -78t-16 -80l1 -6q1 -4 6 -4q18 0 68 70t69 108
q-7 13 -7 27q0 16 9 28t17 12h1q11 -2 11 -19q0 -20 -16 -49q33 -29 110 -29q74 0 122 23h1q3 0 3 -2q0 -1 -2 -3q-37 -25 -122 -25q-79 0 -117 27l-12 -20q-11 -19 -21.5 -35.5t-28 -41t-31.5 -41.5t-29.5 -29.5t-26.5 -12.5zM172 297q12 30 12 38q0 3 -2 3h-1
q-13 -2 -13 -25q0 -8 4 -16z" />
    <glyph glyph-name="x" unicode="x" horiz-adv-x="401" 
d="M-298 55h-2q-4 0 -4 2q0 3 6 5q66 29 136 95q-2 20 -2 32q0 37 9 76t19 57q4 7 12 7q11 0 11 -8l-1 -1q-28 -62 -28 -129v-15q14 12 42.5 39t50.5 47t47.5 41.5t46 34t34.5 13.5h3q6 0 6 -3q0 -4 -9 -6q-12 -1 -32 -14.5t-46.5 -36t-48.5 -42.5t-51.5 -47.5t-41.5 -38.5
q2 -35 26 -43q9 -3 20 -3q86 0 345 160q3 2 7 2q3 0 3 -2q0 -3 -5 -6q-271 -168 -361 -168q-15 0 -24 4q-22 10 -29 39q-79 -68 -139 -91z" />
    <glyph glyph-name="y" unicode="y" horiz-adv-x="381" 
d="M-828 -538q-13 0 -24 4q-52 18 -52 77q0 48 31.5 111t76.5 118q67 81 162.5 159t155.5 116.5t112 66.5q29 54 68 134q-122 -124 -174 -124q-19 0 -27 14q-7 10 -7 25q0 61 80 151q3 3 7 3q10 0 10 -7l-2 -4q-18 -21 -45.5 -73t-27.5 -77q0 -7 1 -9q5 -12 16 -12
q38 0 196 155q3 3 6 3t6 -3t3 -6l-1 -4l-75 -147q44 27 81.5 48t89 48t90.5 49q2 2 6 2q3 0 3 -3t-5 -6q-33 -19 -125.5 -71.5t-149.5 -88.5q-6 -11 -31 -59.5t-42.5 -81.5t-49 -90.5t-57.5 -99.5t-60 -94t-64 -88.5t-62 -69.5t-62.5 -49.5t-57.5 -16.5zM-827 -520
q24 0 52 16t57.5 47t58 66t59.5 83.5t56 89.5t53.5 93.5t45.5 85t39 75t28 53.5q-113 -65 -218.5 -150t-176.5 -169q-46 -55 -80 -119t-34 -109t39 -59q10 -3 21 -3z" />
    <glyph glyph-name="z" unicode="z" horiz-adv-x="307" 
d="M-911 -499q-14 0 -26 7q-19 12 -19 39q0 67 109 210q37 51 98.5 112.5t100.5 95.5q101 84 193 143q2 6 2 16q0 17 -14 17q-10 0 -40 -15q-4 -2 -8 -2q-6 0 -10.5 3.5t-4.5 8.5q0 3 3 6q28 17 92.5 78.5t64.5 78.5v1q0 3 -8 3q-33 0 -83 -26q-1 0 -4 -2.5t-6 -4.5l-5 -1
q-7 0 -7 7t7 10q50 25 96 25q22 0 22 -11t-12 -30.5t-25.5 -35t-35.5 -40t-29 -32.5q3 2 9 2q9 0 16 -9t7 -24l-1 -9q101 63 263 157l3 1q3 0 3 -3t-3 -4q-33 -21 -117.5 -72t-150.5 -93q-33 -123 -136 -282.5t-203 -252.5q-35 -32 -74 -52t-67 -20zM-911 -480q24 0 58 15.5
t60 39.5q105 95 225 292q74 121 109 225q-117 -77 -247 -203q-95 -93 -165 -194t-70 -147q0 -18 11 -24q7 -4 19 -4z" />
    <glyph glyph-name="braceleft" unicode="{" horiz-adv-x="369" 
d="M15 -92q-3 0 -6 5q-9 18 -9 40q0 42 30.5 105.5t67.5 118.5t67.5 114t30.5 92t-29 47q-4 2 -4 5t6 5q30 5 60.5 25t62 56.5t54.5 66.5t57 79q59 84 106.5 133.5t93.5 61.5l5 1q3 0 3 -2q0 -4 -8 -7q-35 -10 -76.5 -52.5t-72.5 -90t-69 -105.5t-59 -83q-59 -71 -132 -95
q24 -22 24 -55q0 -37 -28 -90q-12 -25 -60.5 -94.5t-83 -133t-34.5 -104.5q0 -19 7 -32q1 -2 1 -6q0 -5 -5 -5z" />
    <glyph glyph-name="bar" unicode="|" horiz-adv-x="678" 
d="M19 -124q-6 0 -12.5 4.5t-6.5 10.5l1 4q137 238 330 541.5t321 480.5q3 4 9 4t11.5 -4t5.5 -9l-2 -5q-128 -177 -319.5 -480t-328.5 -542q-3 -5 -9 -5z" />
    <glyph glyph-name="braceright" unicode="}" horiz-adv-x="465" 
d="M-180 -93q-4 0 -4 3q0 5 8 7q45 12 95.5 72.5t105 146t76.5 112.5q57 68 132 95q-24 22 -24 55q0 37 28 90q12 25 60.5 94.5t83 133t34.5 105.5q0 19 -7 32q-1 2 -1 5q0 5 4 5q5 0 6 -5q9 -18 9 -40q0 -42 -30.5 -105.5t-67 -118.5t-67 -114t-30.5 -92t29 -47q3 -1 3 -5
t-5 -5q-30 -5 -60.5 -25t-62.5 -56.5t-54.5 -66.5t-56.5 -79q-58 -83 -106 -133t-94 -63z" />
    <glyph glyph-name="asciitilde" unicode="~" horiz-adv-x="370" 
 />
    <glyph glyph-name="dieresis" unicode="&#xa8;" horiz-adv-x="164" 
 />
    <glyph glyph-name="acute" unicode="&#xb4;" horiz-adv-x="165" 
 />
    <glyph glyph-name="cedilla" unicode="&#xb8;" horiz-adv-x="140" 
 />
    <glyph glyph-name="Agrave" unicode="&#xc0;" horiz-adv-x="1815" 
d="M1357 -404q-7 0 -9 6q-18 47 -18 121q0 104 36.5 237t110.5 270q-103 15 -268 60q-406 -358 -663 -500l-6 -2q-4 0 -4 3q0 4 6 7q136 76 291.5 198t356.5 299q-46 12 -157 43.5t-177 48.5t-161.5 38.5t-178 31.5t-158.5 10q-210 0 -348 -87q-3 -2 -7 -2q-3 0 -3 2
q0 4 6 7q146 92 364 92q77 0 159.5 -9.5t179.5 -31.5t160 -37.5t178.5 -48t156.5 -43.5q47 39 195 168.5t250.5 216.5t221.5 173.5t178 104.5l11 2q5 0 5 -3q0 -5 -10 -8q-79 -27 -224 -141t-345.5 -291.5t-260.5 -226.5q159 -44 260 -58q74 137 210.5 326t269.5 319
q9 9 17 9q7 0 7 -7q0 -8 -10 -18q-110 -112 -244 -296.5t-215 -336.5q61 -8 108 -8q116 0 188 45q2 2 6 2t4 -3q0 -4 -5 -7q-84 -52 -210 -52q-39 0 -100 7q-77 -145 -119.5 -285.5t-42.5 -240.5q0 -58 15 -94l1 -4q0 -6 -8 -6zM2185 992l-5 1q-15 8 -51 30.5t-53 30.5l-2 3
q0 4 7.5 9t14.5 5q3 0 5 -1q53 -33 90 -72l1 -2q0 -4 -7 -4z" />
    <glyph glyph-name="Aacute" unicode="&#xc1;" horiz-adv-x="1815" 
d="M2019 1022q-8 0 -8 4v2q61 54 91 72q2 1 5 1q7 0 14.5 -5t7.5 -10l-2 -2q-17 -7 -53.5 -30.5t-50.5 -30.5zM1356 -404q-5 0 -8 6q-17 48 -17 121q0 104 36.5 237t109.5 270q-103 15 -268 60q-411 -361 -664 -500l-5 -2q-3 0 -3 3q0 4 5 7q136 76 290.5 197.5t356.5 299.5
q-43 12 -155.5 43.5t-177.5 48.5t-160.5 38.5t-178.5 31.5t-159 10q-209 0 -348 -87q-2 -2 -6 -2t-4 2q0 4 5 7q148 92 366 92q76 0 158.5 -9.5t179.5 -31.5t160 -37.5t178.5 -48t156.5 -43.5q44 37 194.5 168.5t251.5 217t220.5 172.5t178.5 105l11 2q5 0 5 -3q0 -5 -11 -8
q-78 -27 -223.5 -141.5t-345 -290.5t-261.5 -227q161 -44 260 -58q75 138 211 326.5t269 318.5q9 9 18 9q6 0 6 -7q0 -9 -9 -18q-109 -111 -243.5 -296t-216.5 -337q61 -8 109 -8q116 0 188 45q3 2 6 2q4 0 4 -3q0 -4 -6 -7q-82 -52 -208 -52q-38 0 -101 7
q-77 -146 -120 -286.5t-43 -239.5q0 -58 15 -94l1 -4q0 -6 -8 -6z" />
    <glyph glyph-name="Acircumflex" unicode="&#xc2;" horiz-adv-x="1817" 
d="M2129 1019q-6 0 -6 8q0 11 1.5 31.5t1.5 26.5v5q-10 -6 -41.5 -23t-48.5 -29q-4 -2 -6 -2q-6 0 -6 4q0 6 10 13q50 34 96 63q4 2 7 2q5 0 8 -4l1 -5q0 -12 -4.5 -43.5t-6.5 -39.5q-1 -7 -6 -7zM1356 -404q-5 0 -8 6q-17 48 -17 120q0 104 36.5 237t109.5 271
q-101 15 -268 60q-409 -359 -663 -500l-5 -2q-4 0 -4 4t5 6q136 76 290.5 197.5t356.5 299.5q-45 12 -156.5 43.5t-177 48.5t-161 38.5t-178 31.5t-158.5 10q-210 0 -348 -87q-3 -2 -7 -2q-3 0 -3 2q0 4 5 7q148 92 365 92q77 0 159.5 -9.5t179.5 -31.5t160 -37.5t178.5 -48
t156.5 -43.5q44 37 194 168.5t251 217.5t221 172.5t179 104.5l11 2q5 0 5 -3q0 -5 -11 -8q-78 -27 -223.5 -141.5t-345 -290.5t-261.5 -227q162 -44 261 -58q74 137 210.5 326t269.5 319q9 9 17 9q7 0 7 -7q0 -8 -10 -18q-109 -111 -243.5 -296t-216.5 -337q61 -8 109 -8
q116 0 189 45q2 2 6 2q3 0 3 -3q0 -4 -5 -7q-84 -52 -210 -52q-39 0 -100 7q-77 -145 -119.5 -285.5t-42.5 -240.5q0 -58 15 -94l1 -3q0 -7 -9 -7z" />
    <glyph glyph-name="Atilde" unicode="&#xc3;" horiz-adv-x="1815" 
d="M2141 981q-20 0 -36 32t-34 32q-11 0 -25 -7l-6 -2q-5 0 -5 7q0 8 9.5 16.5t27.5 8.5h6q17 -1 27.5 -17t19.5 -31.5t22 -15.5q8 0 20 6l5 1q7 0 7 -9q0 -7 -7 -11q-19 -10 -31 -10zM1356 -404q-6 0 -8 6q-18 47 -18 122q0 104 36.5 236.5t109.5 269.5q-100 15 -267 60
q-409 -359 -664 -500l-5 -2q-4 0 -4 3q0 4 6 7q136 76 291 198t355 299q-43 12 -155.5 43.5t-177.5 48.5t-160.5 38.5t-178.5 31.5t-159 10q-210 0 -348 -87q-2 -2 -6 -2q-3 0 -3 2q0 4 5 7q148 92 365 92q76 0 158.5 -9.5t180 -31.5t160 -37.5t179 -48t156.5 -43.5
q44 37 194 168.5t251 217.5t221 172.5t179 104.5l11 2q5 0 5 -3q0 -5 -11 -8q-79 -27 -224 -141t-345.5 -291.5t-260.5 -226.5q159 -44 261 -58q72 135 209 324.5t270 320.5q9 9 17 9q7 0 7 -7q0 -8 -10 -18q-109 -111 -243 -295.5t-216 -337.5q61 -8 109 -8q116 0 188 45
q2 2 6 2q3 0 3 -3q0 -4 -5 -7q-84 -52 -210 -52q-39 0 -100 7q-77 -144 -119 -284.5t-42 -240.5q0 -59 15 -95l1 -3q0 -7 -9 -7z" />
    <glyph glyph-name="Adieresis" unicode="&#xc4;" horiz-adv-x="1815" 
d="M1356 -404q-6 0 -8 6q-18 47 -18 122q0 104 36.5 236.5t109.5 269.5q-100 15 -267 60q-409 -359 -664 -500l-5 -2q-4 0 -4 3q0 4 6 7q136 76 291 198t355 299q-45 12 -156.5 43.5t-177 48.5t-161 38.5t-178 31.5t-158.5 10q-210 0 -348 -87q-2 -2 -6 -2q-3 0 -3 2
q0 4 5 7q148 92 365 92q76 0 158.5 -9.5t180 -31.5t160 -37.5t179 -48t156.5 -43.5q41 35 193 168t252 218t220 172t179 105l11 2q6 0 6 -3q0 -5 -11 -8q-79 -27 -224 -141t-345.5 -291.5t-260.5 -226.5q159 -44 261 -58q72 135 209 324.5t270 320.5q9 9 17 9q7 0 7 -7
q0 -8 -10 -18q-109 -111 -243 -295.5t-216 -337.5q61 -8 108 -8q116 0 189 45q2 2 6 2q3 0 3 -3q0 -4 -5 -7q-84 -52 -210 -52q-39 0 -100 7q-77 -144 -119 -284.5t-42 -240.5q0 -59 15 -95l1 -3q0 -7 -9 -7zM2140 986q-4 0 -5 4l-1 8q0 28 19 40q9 6 18 6q13 0 14 -13l1 -3
q0 -10 -18 -26t-28 -16zM2072 1019q-4 0 -5 4l-1 7q0 30 19 41q9 6 18 6q13 0 14 -13l1 -3q0 -10 -18 -26t-28 -16z" />
    <glyph glyph-name="Aring" unicode="&#xc5;" horiz-adv-x="1815" 
d="M2140 1024q-14 0 -28 10q-11 8 -11 21l1 10q3 12 16 28q20 24 51.5 42.5t55.5 18.5h2q11 -1 15 -11l1 -4q0 -16 -17.5 -42t-29.5 -37q-34 -36 -56 -36zM2144 1044q10 0 26 13t24 23q14 16 27 45q-46 -10 -76 -48q-11 -11 -12 -19l-1 -2l6 -10zM1357 -404q-6 0 -9 6
q-17 48 -17 120q0 104 36.5 237t109.5 271q-97 14 -268 60q-404 -356 -663 -500l-6 -2q-3 0 -3 3q0 5 5 7q136 76 291.5 198t356.5 299q-44 12 -156.5 43.5t-177.5 48.5t-161 38.5t-178.5 31.5t-158.5 10q-210 0 -349 -87q-2 -2 -6 -2q-3 0 -3 2q0 4 5 7q148 92 365 92
q77 0 159.5 -9.5t180 -31.5t160 -37.5t179 -48t156.5 -43.5q45 38 194.5 168.5t250.5 217t220.5 173t178.5 104.5l11 2q5 0 5 -3q0 -5 -10 -8q-79 -27 -224.5 -141t-345 -291t-261.5 -227q157 -43 261 -58q75 138 211 326.5t269 318.5q9 9 17 9q7 0 7 -7q0 -8 -10 -18
q-110 -112 -244 -296.5t-215 -336.5q61 -8 109 -8q117 0 187 45q2 2 6 2t4 -3q0 -4 -6 -7q-82 -52 -209 -52q-39 0 -100 7q-77 -144 -119.5 -285t-42.5 -240q0 -59 15 -95l1 -3q0 -7 -8 -7z" />
    <glyph glyph-name="AE" unicode="&#xc6;" horiz-adv-x="2460" 
d="M1357 -404q-7 0 -8 6q-18 47 -18 122q0 104 36.5 236.5t109.5 269.5q-97 14 -268 60q-404 -356 -663 -500l-5 -2q-4 0 -4 3q0 4 6 7q136 76 291.5 198.5t355.5 298.5q-45 12 -156.5 43.5t-177 48.5t-161 38.5t-178.5 31.5t-159 10q-210 0 -349 -87q-2 -2 -6 -2q-3 0 -3 2
q0 4 5 7q148 92 366 92q77 0 159.5 -9.5t179.5 -31.5t160 -37.5t178.5 -48t156.5 -43.5q45 38 194.5 168.5t250.5 217t220.5 173t178.5 104.5l11 2q6 0 6 -3q0 -5 -11 -8q-78 -27 -223.5 -141t-345.5 -291t-262 -227q159 -44 261 -58q75 138 211 326.5t269 318.5q9 9 17 9
q7 0 7 -7q0 -8 -10 -18q-176 -180 -358 -462q73 66 156 103.5t160 37.5q56 0 104 -21q-30 25 -50.5 70t-20.5 99q0 38 12 80q15 53 63 91.5t103 41.5h4q44 0 74.5 -24.5t30.5 -53.5t-31 -42l-6 -2q-5 0 -5 6q0 5 3 6q22 11 22 32q0 9 -2 14q-4 14 -26.5 26.5t-50.5 12.5h-10
q-49 -4 -85.5 -34.5t-53.5 -77.5q-17 -44 -17 -85q0 -96 79 -165q3 -3 3 -7q0 -7 -5.5 -13.5t-12.5 -6.5q-4 0 -7 2q-47 27 -105 27q-60 0 -129 -28q-85 -34 -146 -93.5t-120 -143.5q-47 -67 -84.5 -172.5t-37.5 -198.5q0 -151 106 -201q35 -17 81 -17q76 0 177.5 48
t195.5 117t192 157t164.5 156.5t116.5 125.5q1 1 4 1q7 0 7 -7q0 -2 -1 -3q-71 -85 -170.5 -183t-216 -195.5t-236.5 -165.5t-207 -76q-10 -1 -30 -1q-107 0 -159 74.5t-52 192.5q0 38 4 70q-57 -169 -57 -286q0 -59 15 -95l1 -3q0 -7 -8 -7z" />
    <glyph glyph-name="Ccedilla" unicode="&#xc7;" horiz-adv-x="1529" 
d="M588 -357q-16 0 -30.5 9.5t-18.5 24.5l-1 6q0 8 6 8q5 0 8 -7q10 -21 33 -21q14 0 21 11q6 8 6 14q0 7 -8.5 20t-8.5 20q0 12 20 27q-51 45 -51 144q0 177 142.5 439t323.5 418q-117 -19 -195.5 -35t-181.5 -44.5t-194 -72t-174 -101.5q-234 -164 -275 -382q-2 -8 -6 -8
t-4 6v3q20 104 76 193t131.5 151t168 113t183.5 82t179.5 55t155.5 35t112.5 18t48.5 8l19 15q19 14 50.5 36.5t72.5 50t89.5 55t96 50.5t97 38t88.5 16h3q37 0 52.5 -15.5t20.5 -43.5l1 -8q0 -22 -15.5 -42t-44.5 -36.5t-62.5 -31t-78.5 -27t-83.5 -21.5t-85.5 -17.5
t-76 -13.5t-64.5 -10.5t-42.5 -6.5q-101 -76 -219 -237.5t-201.5 -343t-83.5 -297.5q0 -143 133 -143q21 0 43 3q93 13 250.5 115t288 212t225.5 205q3 3 6 3q5 0 5 -5q0 -3 -3 -6q-72 -85 -211 -203.5t-302 -223.5t-259 -119q-22 -3 -42 -3q-56 0 -93 23q-14 -12 -14 -20
q0 -4 2 -6q16 -16 16 -34q0 -15 -10 -26q-13 -16 -35 -16zM1115 786q250 40 361 76q154 50 154 109q0 7 -3 15q-11 35 -58 35q-58 0 -167 -55.5t-177.5 -102t-109.5 -77.5z" />
    <glyph glyph-name="Egrave" unicode="&#xc8;" horiz-adv-x="1691" 
d="M845 -350q-108 0 -160 74t-52 192q0 87 26.5 180t72.5 169q76 128 197.5 208.5t237.5 80.5q55 0 105 -21q-30 25 -50 70.5t-20 101.5q0 38 10 77q-36 6 -216 47t-357 70.5t-311 29.5q-276 0 -317 -135q-3 -7 -7 -7t-4 5l1 3q45 150 336 150q134 0 310.5 -29.5
t351.5 -69.5t219 -47q24 53 68 83t93 33h4q42 0 73 -22.5t31 -52.5v-6q-9 -64 -140 -64q-43 0 -104 8q-16 -44 -16 -84q0 -100 78 -166q3 -3 3 -7q0 -7 -5.5 -13.5t-12.5 -6.5q-4 0 -6 2q-51 27 -106 27q-61 0 -129 -28q-85 -34 -145 -92.5t-122 -144.5q-121 -173 -121 -353
q0 -79 27 -137t79 -82q34 -17 80 -17q76 0 177.5 48t195.5 117.5t192 157t165 156t117 125.5q1 1 3 1q8 0 8 -7q0 -2 -1 -3q-70 -85 -169.5 -183t-216 -195.5t-237 -165.5t-207.5 -76q-10 -1 -29 -1zM1343 788q128 0 128 49q0 4 -2 14q-5 15 -27 27t-51 12h-9
q-39 -4 -77 -30t-56 -66q34 -6 94 -6zM1499 993l-5 1q-12 6 -49 29t-55 31q-2 2 -2 3q0 5 7.5 10t14.5 5q4 0 6 -1q52 -34 90 -72v-2q0 -4 -7 -4z" />
    <glyph glyph-name="Eacute" unicode="&#xc9;" horiz-adv-x="1691" 
d="M845 -350q-108 0 -160 74t-52 192q0 87 26.5 180t72.5 169q76 128 197.5 208.5t237.5 80.5q55 0 105 -21q-30 25 -50 70.5t-20 101.5q0 38 10 77q-37 6 -217 47t-357 70.5t-310 29.5q-276 0 -317 -135q-3 -7 -7 -7t-4 5l1 3q45 150 336 150q134 0 310.5 -29.5
t351.5 -69.5t219 -47q24 53 68 83t93 33h4q43 0 73.5 -22.5t30.5 -53.5v-5q-9 -64 -140 -64q-43 0 -104 8q-16 -44 -16 -84q0 -100 78 -166q2 -4 2 -7q0 -7 -5 -13.5t-12 -6.5q-4 0 -6 2q-51 27 -106 27q-61 0 -129 -28q-85 -34 -145 -92.5t-122 -144.5q-122 -174 -122 -353
q0 -79 27.5 -137t79.5 -82q34 -17 80 -17q76 0 177.5 48t195.5 117.5t192 157t165 156t117 125.5q1 1 3 1q8 0 8 -7q0 -2 -1 -3q-70 -85 -169.5 -183t-216 -195.5t-237 -165.5t-207.5 -76q-10 -1 -29 -1zM1343 788q128 0 128 49q0 4 -2 14q-6 15 -27.5 27t-50.5 12h-9
q-39 -4 -77.5 -30.5t-55.5 -65.5q34 -6 94 -6zM1305 985q-8 0 -8 4l1 2q55 52 91 72q1 1 5 1q7 0 14 -5t7 -9l-1 -2q-16 -8 -52 -31t-52 -31z" />
    <glyph glyph-name="Ecircumflex" unicode="&#xca;" horiz-adv-x="1691" 
d="M1492 978q-5 0 -5 8q0 10 1.5 29.5t1.5 25.5v8q-12 -8 -43.5 -24.5t-46.5 -25.5q-4 -3 -8 -3t-4 4q0 6 10 12q46 33 96 64l5 2q5 0 10 -5v-6q0 -13 -4 -43.5t-6 -38.5q-3 -7 -7 -7zM845 -350q-108 0 -160 74t-52 192q0 87 26.5 180t72.5 169q76 128 197.5 208.5
t237.5 80.5q55 0 105 -21q-30 25 -50 70.5t-20 101.5q0 38 10 77q-37 6 -217 47t-357 70.5t-310 29.5q-276 0 -317 -135q-3 -7 -7 -7t-4 5l1 3q45 150 336 150q134 0 310.5 -29.5t351.5 -69.5t219 -47q24 53 68 83t93 33h4q43 0 73.5 -22.5t30.5 -53.5v-5q-9 -64 -140 -64
q-41 0 -105 8q-16 -44 -16 -84q0 -101 79 -166q2 -4 2 -7q0 -7 -5 -13.5t-12 -6.5q-5 0 -7 2q-47 27 -105 27q-61 0 -129 -28q-85 -34 -145 -92.5t-122 -144.5q-122 -174 -122 -353q0 -79 27.5 -137t79.5 -82q34 -17 80 -17q76 0 177.5 48t195 117t192 157t165.5 156
t117 126q0 1 3 1q7 0 7 -7v-3q-70 -85 -170 -183t-216.5 -195.5t-236.5 -165.5t-207 -76q-10 -1 -29 -1zM1343 788q128 0 128 49q0 4 -2 14q-6 15 -27.5 27t-50.5 12h-9q-39 -4 -77.5 -30.5t-55.5 -65.5q34 -6 94 -6z" />
    <glyph glyph-name="Edieresis" unicode="&#xcb;" horiz-adv-x="1691" 
d="M845 -350q-108 0 -160 74t-52 192q0 87 26.5 180t72.5 169q76 128 198 208.5t238 80.5q54 0 104 -21q-30 25 -50 69.5t-20 100.5q0 41 11 79q-37 6 -217.5 47t-357.5 70.5t-310 29.5q-276 0 -317 -135q-3 -7 -8 -7q-3 0 -3 4l1 4q46 150 337 150q134 0 310.5 -29.5
t351 -69.5t219.5 -47q24 54 67.5 83.5t93.5 32.5h4q43 0 73 -22.5t30 -53.5v-5q-9 -64 -140 -64q-41 0 -105 8q-15 -41 -15 -83q0 -101 78 -167q2 -4 2 -7q0 -7 -5 -13.5t-12 -6.5q-4 0 -6 2q-51 27 -106 27q-61 0 -129 -28q-85 -34 -145 -93t-121 -144q-122 -172 -122 -352
q0 -80 27.5 -138t79.5 -82q34 -17 80 -17q76 0 177.5 48t195 117t192 157t165.5 156t117 126q0 1 3 1q7 0 7 -7q0 -2 -1 -3q-70 -85 -169.5 -183t-216 -195.5t-237 -165.5t-207.5 -76q-10 -1 -29 -1zM1343 788q128 0 128 49q0 4 -2 14q-5 15 -26.5 27t-50.5 12h-10
q-38 -4 -76.5 -30.5t-56.5 -65.5q34 -6 94 -6zM1481 966q-3 0 -4 3q-3 6 -3 16q0 24 11 34q10 10 21 10q9 0 12 -10v-2q1 -2 1 -3q0 -11 -14.5 -29.5t-23.5 -18.5zM1408 985q-2 0 -4 3q-4 5 -4 17q0 23 12 33q10 10 21 10q8 0 12 -10l1 -4q0 -11 -14.5 -30t-23.5 -19z" />
    <glyph glyph-name="Igrave" unicode="&#xcc;" horiz-adv-x="994" 
d="M171 -268l-16 1q-73 8 -73 69q0 41 23 62q7 7 13 7q3 0 3 -4q0 -5 -4 -10q-16 -27 -16 -56q0 -47 56 -50h8q68 0 151.5 59.5t161.5 150.5t168 213.5t165 236t160 230.5t146 184q-44 -9 -140 -26t-161.5 -28.5t-163.5 -33.5t-168 -42.5t-152.5 -52.5t-139.5 -66.5
t-106.5 -81.5t-74.5 -101q-3 -7 -7 -7t-4 6l1 5q32 79 122.5 146t200 109.5t243.5 78.5t240 54.5t204 35t122 22.5q83 87 137 87q15 0 21 -7q9 -11 9 -20q0 -26 -51.5 -46.5t-90.5 -25.5q-52 -59 -135 -174.5t-162 -231.5t-176 -244t-182 -225t-174 -160.5t-158 -63.5z
M1177 851q107 27 107 54v2q-1 9 -12 9q-15 0 -44.5 -20.5t-50.5 -44.5zM1361 1005l-3 1q-16 8 -52.5 31t-52.5 31l-2 2q0 4 7.5 9t14.5 5q4 0 5 -1q45 -26 91 -72l1 -1q0 -5 -9 -5z" />
    <glyph glyph-name="Iacute" unicode="&#xcd;" horiz-adv-x="924" 
d="M171 -268l-16 1q-73 8 -73 69q0 41 23 62q7 7 13 7q3 0 3 -4q0 -5 -4 -10q-16 -27 -16 -56q0 -47 56 -50h8q68 0 151.5 59.5t161.5 150.5t168 213.5t165 236t160 230.5t146 184q-44 -9 -140 -26t-161 -28.5t-163 -33.5t-168 -42.5t-153 -52.5t-140 -66.5t-106.5 -81.5
t-74.5 -101q-3 -7 -7 -7t-4 6l1 5q32 79 122.5 146t200 109.5t243.5 78.5t240 54.5t204 35t122 22.5q83 87 137 87q15 0 21 -7q9 -11 9 -20q0 -26 -52 -46.5t-91 -25.5q-52 -59 -135 -174.5t-161.5 -231.5t-175.5 -244t-182 -225t-174 -160.5t-158 -63.5zM1176 851
q107 25 107 53v3q-1 9 -11 9q-16 0 -44.5 -20.5t-51.5 -44.5zM1184 997q-7 0 -7 4l1 2q44 44 91 72q1 1 5 1q7 0 14 -4.5t7 -8.5q0 -1 -2 -3q-15 -8 -51 -31t-53 -31z" />
    <glyph glyph-name="Icircumflex" unicode="&#xce;" horiz-adv-x="982" 
d="M170 -268l-16 1q-38 4 -55.5 23t-17.5 45q0 41 24 63q7 7 13 7q4 0 4 -4q0 -5 -4 -10q-18 -26 -18 -57q0 -46 57 -49h8q68 0 151.5 59.5t161.5 150.5t168 213.5t165.5 236t160.5 230.5t146 184q-44 -8 -140.5 -25.5t-161.5 -29t-163 -33.5t-168 -42.5t-153 -52.5
t-140 -66.5t-106.5 -81.5t-74.5 -101q-3 -7 -7 -7t-4 6l1 5q32 79 122 146t199.5 109.5t243.5 78.5t240 54.5t204.5 35t122.5 22.5q83 87 137 87q14 0 20 -7q10 -10 10 -21q0 -26 -51.5 -46t-91.5 -25q-59 -67 -163 -215.5t-204.5 -290.5t-211.5 -281.5t-218 -225.5
t-190 -86zM1177 851q106 25 106 53v3q-1 9 -11 9q-16 0 -44.5 -20.5t-50.5 -44.5zM1341 990q-6 0 -6 7q0 11 1.5 32t1.5 27v4q-9 -5 -41 -22t-49 -28q-2 -2 -7 -2t-5 3q0 5 10 12q46 33 96 64q4 2 7 2q5 0 8 -4l1 -7q0 -27 -11 -82q-1 -6 -6 -6z" />
    <glyph glyph-name="Idieresis" unicode="&#xcf;" horiz-adv-x="997" 
d="M1336 971q-4 0 -5 3q-3 6 -3 18q0 23 10 33q12 9 22 9q8 0 11 -10l2 -5q0 -12 -14.5 -30t-22.5 -18zM1262 990q-4 0 -5 3q-3 6 -3 16q0 22 11 35q12 9 22 9q9 0 11 -10q2 -2 2 -5q0 -11 -14.5 -29.5t-23.5 -18.5zM171 -268l-17 1q-38 4 -55.5 23t-17.5 45q0 41 24 63
q7 7 13 7q4 0 4 -4q0 -3 -5 -10q-17 -28 -17 -57q0 -46 56 -49h9q68 0 151.5 59.5t161.5 150.5t168 213.5t165 236t160 230.5t146 184q-44 -8 -140.5 -25.5t-161 -29t-163 -33.5t-168.5 -42.5t-152.5 -52.5t-139.5 -66.5t-106.5 -81.5t-74.5 -101q-1 -7 -7 -7q-4 0 -4 6l1 5
q32 79 122 146t199.5 109.5t243.5 78.5t240 54.5t204.5 35t122.5 22.5q83 87 137 87q14 0 20 -7q10 -10 10 -21q0 -26 -51.5 -46t-91.5 -25q-45 -52 -113 -145.5t-135.5 -191.5t-146 -208.5t-156 -206.5t-153 -175.5t-149 -125.5t-133.5 -46zM1177 851q107 25 107 53l-1 3
q-1 9 -11 9q-16 0 -44.5 -20.5t-50.5 -44.5z" />
    <glyph glyph-name="Eth" unicode="&#xd0;" horiz-adv-x="1731" 
d="M392 -256q-13 0 -17 11v4q0 15 15.5 30.5t49.5 15.5q17 0 27 -2q112 85 207.5 207.5t212.5 304.5q-77 9 -125 9q-41 0 -76 -8q-11 0 -11 9q0 15 79 15q57 0 140 -8h4q58 91 75 117.5t68 102.5t80 112.5t73 87t85 87.5q-83 -12 -218.5 -22t-251 -16t-250.5 -23t-237 -43
t-187.5 -76.5t-123.5 -122.5q-3 -6 -7 -6t-4 5q0 3 1 5q48 90 163.5 148.5t271 85t302.5 39t313.5 23t248.5 23.5q25 21 66 50.5t104 64t96 34.5q16 0 24 -8q11 -10 11 -22q0 -23 -39.5 -49t-79 -41.5t-65.5 -22.5q-36 -10 -81 -17q-48 -41 -97 -93.5t-82 -93t-83 -113
t-70.5 -104t-74.5 -115.5q53 -5 91 -5q28 0 49 3q2 0 6.5 -3t4.5 -6q0 -10 -55 -10q-46 0 -106 5q-58 -90 -95 -144.5t-93 -128.5t-113 -133.5t-120 -109.5q127 -27 251 -27q273 0 488 125.5t312 358.5q71 167 71 310q0 96 -34.5 157.5t-100.5 72.5q-18 3 -37 3
q-49 0 -94 -22.5t-76 -54.5t-56 -72.5t-38 -72t-20 -56.5q0 -1 -3.5 -4t-6.5 -3q-4 0 -4 8q0 17 17 64q38 98 115 164.5t165 66.5q22 0 41 -4q163 -34 163 -249q0 -156 -69 -323q-51 -127 -135.5 -222.5t-191.5 -152t-226.5 -84t-252.5 -27.5q-147 0 -298 32
q-13 -11 -41 -26t-45 -15zM1361 869q50 2 137 41.5t87 66.5q0 7 -6 11q-4 4 -11 4q-29 0 -95 -43t-112 -80zM391 -241l37 17l19 13h-6q-19 0 -31.5 -7.5t-15.5 -13.5t-3 -9z" />
    <glyph glyph-name="Ntilde" unicode="&#xd1;" horiz-adv-x="1365" 
d="M66 -215q-52 0 -66 57q0 12 7 12q5 0 6 -5q11 -45 54 -45q148 0 625 512q15 17 80 89t107 118t114 117t126.5 114.5t117.5 79t112 41.5q16 0 16 -6l-1 -2q-48 -54 -114 -172.5t-126.5 -257.5t-104.5 -288.5t-47 -251.5q44 84 77 144.5t93.5 164.5t111.5 183t122.5 178
t137 173t143 144t152.5 114q2 1 5 1q8 0 8 -8q0 -5 -5 -8q-55 -32 -111 -78t-102.5 -90.5t-101.5 -112.5t-92 -115.5t-90 -130t-80 -125t-77.5 -131t-67 -118t-63 -116.5t-52.5 -98q-4 -8 -16 -8q-11 0 -11 13v5q0 223 108.5 499t259.5 475q-46 -12 -104.5 -50t-106 -76.5
t-117.5 -109t-104.5 -107.5t-104 -114.5t-80.5 -89.5q-481 -520 -638 -520zM1545 917q-17 0 -35.5 27.5t-34.5 27.5q-11 0 -27 -10q-4 -3 -7 -3q-6 0 -6 8q0 10 11 19.5t31 9.5q21 0 40 -28.5t32 -28.5q4 0 13 5t14 5q8 0 8 -10q0 -7 -5 -9q-18 -13 -34 -13z" />
    <glyph glyph-name="Ograve" unicode="&#xd2;" horiz-adv-x="1628" 
d="M849 -282q-52 0 -89 33q-44 40 -44 115q0 69 37 162.5t92 181t113 162.5t106 121q-12 24 -18 42q-51 -5 -102 -11.5t-142 -18.5t-171 -27t-175 -34t-170 -43t-139 -51.5t-99.5 -61t-35.5 -69.5l1 -16q0 -8 -5 -8q-3 0 -6 8q-2 14 -2 19q0 50 63.5 96t164.5 79t220 60.5
t236 45.5t206.5 30t136.5 17q9 1 13 1q-24 71 -24 138q0 122 74 196t167 74q31 0 58 -9q96 -30 143 -153q22 -59 22 -134q0 -178 -108 -405q42 -16 93 -16q84 0 163 38l5 1q6 0 6 -6q0 -4 -6 -7q-83 -40 -169 -40q-50 0 -100 15q-28 -59 -66.5 -123t-89.5 -132.5t-104 -124
t-113.5 -95.5t-115.5 -48q-18 -2 -26 -2zM849 -266q100 0 236 134q154 153 263 380q-186 66 -269 217q-58 -56 -133.5 -158.5t-140.5 -233t-65 -215.5q0 -62 32 -94q33 -30 77 -30zM1081 509q22 20 37 33l-49 -5zM1356 263q108 228 108 399q0 73 -22 129q-28 74 -75 117
t-107 43q-20 0 -43 -6q-91 -24 -134.5 -92t-43.5 -159q0 -69 24 -141q20 3 41.5 5t35.5 4q61 53 99 53q14 0 21.5 -7t7.5 -16v-2q-1 -11 -7 -18.5t-30 -15.5t-66 -10q-31 -23 -71 -66q83 -154 262 -217zM1185 564q68 2 68 26v1q0 9 -8 9q-15 0 -60 -36zM1475 976l-6 2
q-18 8 -54.5 31t-50.5 30l-1 2q0 5 7.5 10t14.5 5l4 -1q47 -29 91 -73l1 -2q0 -4 -6 -4z" />
    <glyph glyph-name="Oacute" unicode="&#xd3;" horiz-adv-x="1628" 
d="M1224 1008q-8 0 -8 3l1 2q46 46 90 73l5 1q7 0 14.5 -5t7.5 -10l-2 -2q-16 -8 -52 -31t-52 -30zM848 -282q-58 0 -95 40.5t-37 107.5q0 90 63 221t140.5 236.5t143.5 169.5q-13 31 -17 42q-51 -5 -102.5 -11.5t-142 -18.5t-171 -27t-175 -34t-169.5 -43t-139 -51.5
t-99.5 -61t-35.5 -69.5l2 -16q0 -8 -6 -8q-8 0 -8 28q0 50 63.5 95.5t164.5 78.5t220 60.5t236 45.5t206.5 30t136.5 17h5t4 0.5t4 0.5q-24 71 -24 138q0 122 74 196t167 74q91 0 157 -80.5t66 -215.5q0 -174 -108 -405q42 -16 94 -16q83 0 162 38l5 1q5 0 5 -5t-6 -8
q-83 -40 -168 -40q-52 0 -100 15q-39 -81 -95.5 -167.5t-125.5 -169t-148 -135.5t-147 -53zM848 -266q99 0 237 134q153 153 263 380q-187 66 -269 217q-58 -56 -134 -158.5t-141 -233t-65 -216.5q0 -60 32 -93q33 -30 77 -30zM1081 509q7 7 17 16t19 17l-49 -5zM1355 263
q108 226 108 400q0 122 -59.5 205t-143.5 83q-20 0 -43 -6q-91 -24 -134.5 -92t-43.5 -158q0 -70 24 -142q20 3 41.5 5t35.5 4q61 53 99 53q14 0 21.5 -7t7.5 -16q-1 -12 -5.5 -19.5t-29 -16t-69.5 -10.5q-35 -27 -70 -66q83 -155 261 -217zM1184 564q69 3 69 25
q-2 11 -9 11q-14 0 -60 -36z" />
    <glyph glyph-name="Ocircumflex" unicode="&#xd4;" horiz-adv-x="1628" 
d="M848 -282q-57 0 -94.5 40.5t-37.5 107.5q0 69 37 162.5t92 181t113 162.5t106 121q-11 22 -19 42q-52 -5 -102.5 -11.5t-141.5 -18.5t-171 -27t-175 -34t-170 -43t-139 -51.5t-99.5 -61t-35.5 -69.5l2 -18q0 -6 -5 -6q-8 0 -8 27q0 50 63.5 96t164.5 79t220 60.5
t236 45.5t206.5 30t136.5 17q9 1 13 1q-24 71 -24 138q0 122 74 196t167 74q91 0 157 -80t66 -215q0 -176 -109 -406q42 -16 94 -16q84 0 163 38l5 1q5 0 5 -5q0 -6 -5 -8q-85 -40 -169 -40q-50 0 -100 15q-39 -81 -95.5 -168t-125.5 -169t-148 -135t-147 -53zM848 -266
q54 0 117 39t119 95q155 152 264 380q-185 65 -270 217q-41 -40 -96.5 -111.5t-110.5 -158t-93 -179t-38 -158.5q0 -62 32 -94q31 -30 76 -30zM1081 509q26 24 37 33l-49 -5zM1356 263q107 226 107 397q0 122 -60 206.5t-143 84.5q-22 0 -44 -6q-91 -24 -134 -92t-43 -158
q0 -70 24 -142q20 3 41.5 5t35.5 4q61 53 99 53q14 0 21.5 -7t7.5 -16q0 -12 -6 -20t-30.5 -16t-67.5 -10q-30 -23 -70 -66q83 -154 262 -217zM1185 564q68 2 68 26q0 10 -9 10q-14 0 -59 -36zM1411 999q-6 0 -6 7q0 11 2 32t2 27l-1 5q-10 -6 -41.5 -23t-48.5 -29
q-4 -2 -6 -2q-5 0 -5 4q0 6 9 12q56 40 96 64q6 2 8 2q7 0 8 -9q0 -33 -10 -83q-1 -7 -7 -7z" />
    <glyph glyph-name="Otilde" unicode="&#xd5;" horiz-adv-x="1628" 
d="M1462 981q-17 0 -35 27.5t-34 27.5q-12 0 -28 -10q-3 -3 -7 -3q-5 0 -5 8q0 10 10.5 19.5t30.5 9.5q13 0 24 -9t16.5 -19.5t14 -19.5t17.5 -9q4 0 13 5t14 5q9 0 9 -10q0 -6 -6 -9q-18 -13 -34 -13zM849 -282q-57 0 -95 40.5t-38 107.5q0 69 37 162.5t92 181t113 162.5
t106 121q-11 22 -19 42q-51 -5 -102 -11.5t-141.5 -18.5t-170.5 -27t-175 -34t-170 -43t-139 -51.5t-99.5 -61t-35.5 -69.5l1 -16q0 -8 -5 -8q-8 0 -8 27q0 50 63.5 96t164.5 79t220 60.5t236 45.5t206.5 30t136.5 17q9 1 13 1q-24 71 -24 138q0 122 74 196t167 74
q91 0 157 -79.5t66 -216.5q0 -178 -108 -405q42 -16 93 -16q84 0 163 38l5 1q6 0 6 -6q0 -4 -6 -7q-83 -40 -168 -40q-52 0 -100 15q-38 -79 -94 -165t-125.5 -169.5t-148.5 -137t-148 -53.5zM849 -266q54 0 117 39.5t118 94.5q154 151 265 380q-186 65 -271 217
q-41 -40 -96.5 -111.5t-110.5 -158t-93 -179t-38 -158.5q0 -62 32 -94q33 -30 77 -30zM1081 509q26 24 37 33l-49 -5zM1356 263q108 228 108 399q0 122 -60 205.5t-143 83.5q-21 0 -44 -6q-91 -24 -134.5 -92t-43.5 -159q0 -69 24 -141q20 3 41.5 5t35.5 4q62 53 100 53
q13 0 20.5 -7t7.5 -16q0 -12 -6 -20t-30 -16t-67 -10q-33 -24 -70 -66q81 -154 261 -217zM1185 564q69 3 69 25q-2 11 -9 11q-15 0 -60 -36z" />
    <glyph glyph-name="Odieresis" unicode="&#xd6;" horiz-adv-x="1628" 
d="M849 -282q-57 0 -95 40.5t-38 107.5q0 69 37 162.5t92 181t113 162.5t106 121q-12 24 -18 42q-51 -5 -102 -11.5t-142 -18.5t-171 -27t-175 -34t-170 -43t-139 -51.5t-99.5 -61t-35.5 -69.5l2 -16q0 -8 -6 -8q-8 0 -8 28q0 50 63.5 95.5t164.5 78.5t220 60.5t236 45.5
t206.5 30t136.5 17h5t4 0.5t4 0.5q-24 75 -24 138q0 122 74 196t167 74q90 0 156.5 -80t66.5 -216q0 -174 -108 -405q42 -16 94 -16q83 0 162 38l5 1q6 0 6 -6q0 -4 -6 -7q-83 -40 -169 -40q-50 0 -100 15q-39 -81 -95.5 -167.5t-125.5 -169t-147.5 -135.5t-146.5 -53z
M849 -266q100 0 236 134q151 150 263 380q-188 67 -269 217q-58 -56 -133.5 -158.5t-140.5 -233t-65 -215.5q0 -61 32 -94q33 -30 77 -30zM1081 509q23 21 36 33l-49 -5zM1356 263q107 227 107 400q0 121 -59.5 204.5t-143.5 83.5q-20 0 -43 -6q-91 -24 -134.5 -92
t-43.5 -158q0 -70 24 -142q20 3 41.5 5t35.5 4q61 53 99 53q14 0 21.5 -7.5t7.5 -16.5q0 -39 -104 -45q-28 -21 -70 -66q85 -155 262 -217zM1185 564q68 3 68 25q-2 11 -9 11q-13 0 -59 -36zM1335 1009q-8 0 -8 19q0 23 11 34q13 10 22 10q13 0 13 -15q0 -11 -14.5 -29.5
t-23.5 -18.5zM1409 990q-8 0 -8 21q0 22 11 33q13 10 22 10t12 -14q0 -11 -14.5 -30.5t-22.5 -19.5z" />
    <glyph glyph-name="Oslash" unicode="&#xd8;" horiz-adv-x="1629" 
d="M695 -300q-9 0 -9 9q0 3 1 4q44 68 47 72q-18 35 -18 81q0 90 63 221t141 237t144 169q-12 24 -18 42q-51 -5 -102 -11.5t-142 -18.5t-171 -27t-175 -34t-170 -43t-139 -51.5t-99.5 -61t-35.5 -69.5l2 -17q0 -7 -5 -7q-9 0 -9 28q0 50 63.5 95.5t164.5 78.5t220 60.5
t236 45.5t206.5 30t136.5 17h5t4 0.5t4 0.5q-24 75 -24 138q0 122 74 196t167 74q77 0 136.5 -58.5t80.5 -161.5q60 70 102 108q3 3 6 3q9 0 9 -9q0 -3 -3 -6q-48 -46 -111 -118q3 -26 3 -53q0 -179 -108 -406q42 -16 94 -16q83 0 162 38l5 1q6 0 6 -5t-6 -8
q-83 -40 -169 -40q-50 0 -100 15q-39 -81 -95.5 -168t-125.5 -169t-147.5 -135t-146.5 -53q-30 0 -60.5 14.5t-44.5 37.5q-24 -35 -43 -67q-1 -3 -6 -3zM1172 375q168 212 287 347q-4 34 -17 69q-28 74 -75 117t-107 43q-20 0 -43 -6q-91 -24 -134.5 -92t-43.5 -158
q0 -70 24 -142q20 3 41.5 5t35.5 4q61 53 99 53q14 0 21.5 -7.5t7.5 -16.5q0 -11 -6 -19t-30 -16t-67 -10q-31 -23 -71 -66q33 -60 78 -105zM1081 509q5 5 16 15t21 18l-50 -5zM1185 564q69 3 69 26q-1 10 -9 10q-14 0 -60 -36zM747 -195q107 157 413 555q-46 43 -81 105
q-58 -56 -133.5 -158.5t-140.5 -233.5t-65 -216q0 -30 7 -52zM849 -266q100 0 236 134q151 150 263 380q-99 36 -175 101q-280 -357 -418 -563q13 -17 17 -22q33 -30 77 -30zM1356 263q108 226 108 400q0 12 -2 36q-99 -111 -277 -336q69 -64 171 -100z" />
    <glyph glyph-name="Ugrave" unicode="&#xd9;" horiz-adv-x="1363" 
d="M1077 -268q-4 0 -8 4q-47 48 -47 147q0 103 45.5 229t96.5 200q-304 -282 -437 -282q-69 0 -69 83q0 97 97.5 290t219.5 327q-43 -19 -146 -57t-201.5 -74t-214.5 -87t-201 -99.5t-142.5 -107.5t-57.5 -115v-1q0 -8 -6 -8t-6 9q0 61 59.5 124t149 114t209.5 104.5t224 91
t211 77.5t154 62q5 4 38 36t64 55t51 23q10 0 16.5 -5.5t6.5 -11.5q0 -10 -12.5 -22t-30.5 -23.5t-35.5 -21t-30.5 -15.5l-14 -7q-59 -44 -149 -173t-159.5 -273t-69.5 -216q0 -58 52 -58q65 0 188.5 82.5t260.5 215.5q2 2 56 87t110.5 167.5t126.5 155t112 72.5
q22 0 22 -13q0 -23 -55.5 -95t-101 -122t-77.5 -83q-50 -54 -131 -133q-38 -61 -65 -108.5t-64.5 -121.5t-57.5 -145.5t-20 -131.5q0 -80 40 -134q3 -4 3 -8t-4 -4zM1290 454q84 86 188.5 204t114.5 156h-2q-12 0 -33.5 -18t-48.5 -49t-55 -66.5t-56.5 -75t-49.5 -69
t-39 -55t-19 -27.5zM1080 801q25 13 45 26.5t29 21.5t9 11l-1 1q-35 -18 -82 -60zM1476 963l-5 1q-15 7 -51.5 30t-52.5 31l-1 2q0 4 8 9.5t14 5.5l4 -1q37 -22 91 -73l1 -1q0 -4 -8 -4z" />
    <glyph glyph-name="Uacute" unicode="&#xda;" horiz-adv-x="1363" 
d="M1077 -268q-4 0 -8 4q-48 49 -48 147q0 103 46 228.5t97 200.5q-151 -140 -263 -211t-175 -71q-69 0 -69 83q0 124 152 390q71 124 166 227q-43 -19 -146 -57t-201.5 -74t-214.5 -87t-201 -99.5t-142.5 -107.5t-57.5 -115v-1q0 -8 -6 -8t-6 10q0 61 59.5 124t149 114
t209.5 104t224.5 90.5t210.5 77.5t153 62q6 4 39 35.5t64 55t51 23.5q10 0 16.5 -5.5t6.5 -11.5q0 -10 -12.5 -22t-30.5 -23.5t-35.5 -21t-30.5 -15.5l-14 -7q-59 -44 -149 -173.5t-159.5 -273t-69.5 -215.5q0 -58 52 -58q65 0 188 82.5t261 215.5q2 2 56 87t110.5 167.5
t126.5 155t112 72.5q22 0 22 -13q0 -51 -234 -300q-50 -54 -131 -133q-207 -326 -207 -506q0 -81 40 -135q3 -4 3 -8t-4 -4zM1289 454q81 81 187.5 201.5t116.5 158.5h-2q-12 0 -34 -18t-49 -49t-55 -66t-56.5 -75t-49.5 -69.5t-39 -55.5t-19 -27zM1080 801q25 13 45 26.5
t29 21.5t9 11l-1 1q-36 -18 -82 -60zM1357 955q-7 0 -7 4l1 2q43 43 90 72q2 1 5 1q7 0 14.5 -5t7.5 -9l-2 -3q-16 -8 -52 -30.5t-52 -30.5z" />
    <glyph glyph-name="Ucircumflex" unicode="&#xdb;" horiz-adv-x="1363" 
d="M1078 -268q-4 0 -8 4q-48 49 -48 149q0 102 45.5 228t96.5 199q-304 -282 -437 -282q-69 0 -69 83q0 124 152 390q70 123 165 227q-43 -19 -146 -57t-201.5 -74t-214.5 -87t-201 -99.5t-142.5 -107.5t-57.5 -115v-1q0 -8 -6 -8t-6 9q0 61 59.5 124t149 114t209.5 104.5
t224.5 91t210.5 77.5t153 62q6 5 39 36t64 54.5t50 23.5q10 0 16.5 -5.5t6.5 -12.5q0 -8 -9 -18t-22 -19t-29 -18.5t-29 -16l-23 -11.5l-10 -5q-59 -44 -149 -172.5t-159.5 -272t-69.5 -216.5q0 -59 53 -59q64 0 187 82.5t261 215.5q2 2 56 87t110.5 167.5t126.5 155
t112 72.5q22 0 22 -13q0 -52 -233 -300l-131 -133q-207 -326 -207 -506q0 -81 40 -135q3 -4 3 -7q0 -5 -4 -5zM1081 801q25 13 45 26.5t29 21.5t9 11l-1 1q-37 -18 -82 -60zM1290 454q80 80 186.5 201t117.5 159h-2q-57 0 -302 -360zM1428 901q-6 0 -6 8t2 27.5t2 27.5l-1 9
q-12 -8 -43.5 -25t-46.5 -27q-4 -2 -7 -2q-5 0 -5 4q0 5 10 12q46 33 96 64l6 1q9 0 10 -10q0 -45 -11 -82q-1 -7 -6 -7z" />
    <glyph glyph-name="Udieresis" unicode="&#xdc;" horiz-adv-x="1362" 
d="M1077 -268q-4 0 -8 4q-48 49 -48 148q0 102 45.5 227t96.5 201q-304 -282 -437 -282q-69 0 -69 83q0 97 97.5 290t219.5 327q-43 -19 -146 -57t-201.5 -74t-214.5 -87t-201 -99.5t-142.5 -107.5t-57.5 -115v-1q0 -8 -5 -8q-6 0 -6 10q0 72 80 145.5t211 136.5t259 114
t266 101.5t189 74.5q6 4 39 35.5t64 55t51 23.5q10 0 16.5 -5.5t6.5 -11.5q0 -10 -12.5 -22t-30 -23.5t-35.5 -21t-31 -15.5l-13 -7q-60 -44 -150 -173t-159 -272.5t-69 -216.5q0 -58 52 -58q64 0 187 82.5t261 215.5q3 4 56.5 87.5t110.5 167t126.5 155.5t111.5 72
q22 0 22 -13q0 -24 -55.5 -96t-100.5 -121t-78 -83q-60 -65 -130 -133q-207 -326 -207 -507q0 -81 39 -134q4 -4 4 -8t-4 -4zM1289 454q81 81 187.5 201.5t116.5 158.5h-2q-57 0 -302 -360zM1080 801q25 13 45 27t28.5 22t8.5 10v1q-36 -18 -82 -60zM1350 919q-8 0 -8 22
q0 21 11 32q9 9 21 9q13 0 13 -15q0 -11 -14.5 -29.5t-22.5 -18.5zM1424 900q-8 0 -8 21q0 16 7.5 29t23.5 13q13 0 13 -15q0 -11 -14 -29.5t-22 -18.5z" />
    <glyph glyph-name="Yacute" unicode="&#xdd;" horiz-adv-x="1389" 
d="M507 -402q-59 0 -91.5 31.5t-32.5 82.5q0 105 117 229q106 113 237 178.5t317 121.5q46 78 158 259q-234 -189 -376 -196q-45 0 -45 40q0 37 40.5 110.5t85.5 136t106.5 143.5t74.5 100q-44 -29 -114 -53.5t-145 -40.5t-162.5 -37t-169 -42t-162.5 -56.5t-145.5 -80.5
t-114.5 -114t-73 -155q-1 -8 -7 -8q-5 0 -5 6v4q29 111 98.5 194.5t160 132t194 83t209.5 57t198 43.5t167 53t109 75q4 4 15 4q19 0 19 -12q0 -3 -3 -8q-20 -40 -109 -160.5t-163.5 -230t-74.5 -145.5q0 -19 19 -19q155 13 393 217q72 113 146.5 200.5t123.5 109.5
q17 7 29 7q15 0 15 -13q0 -27 -90 -124q-155 -162 -203.5 -224.5t-159.5 -249.5q144 34 302 34q6 0 6 -5q0 -6 -6 -6q-169 -6 -315 -45q-60 -100 -101.5 -165.5t-96 -146t-97.5 -130.5t-92 -96t-95 -67.5t-91 -21.5zM509 -383q28 0 58 11.5t56.5 28t59 49t57.5 59.5t60 76
t58 82.5t61.5 94.5t60 96.5t61.5 102.5q-363 -111 -533 -295q-107 -118 -107 -212q0 -43 26.5 -67.5t79.5 -25.5h2zM1323 618q30 27 116.5 117t86.5 103q-1 2 -3 3q-20 0 -94.5 -88t-105.5 -135zM1314 918q-8 0 -8 4l1 2q52 49 91 72l4 1q7 0 15 -5.5t8 -9.5l-2 -2
q-18 -8 -54 -31t-50 -30z" />
    <glyph glyph-name="Thorn" unicode="&#xde;" horiz-adv-x="1627" 
d="M142 -289q-42 0 -74 20t-66 67l-2 6q0 6 5 6q3 0 6 -4q57 -82 136 -82q50 0 110.5 34t114 83t118 125t110.5 138.5t104 145.5q-64 27 -112 55q-4 3 -4 7q0 9 9 9l4 -1q59 -33 113 -57q293 429 523 675q-246 -87 -474 -87q-62 0 -154.5 7.5t-125.5 7.5q-77 0 -134.5 -26.5
t-114.5 -99.5q-3 -4 -6 -4q-5 0 -5 5q0 4 2 6q61 78 121.5 106.5t140.5 28.5q34 0 125.5 -7.5t153.5 -7.5q239 0 501 99l5 1q7 0 12.5 -3.5t5.5 -7.5l-1 -4q-42 -47 -91.5 -106.5t-82.5 -101t-89 -113t-80 -101.5q-18 -22 -116 -160q67 62 140.5 121.5t163 123t174.5 102.5
t145 39q55 0 85 -35t30 -94q0 -74 -39 -165.5t-84 -142.5q-135 -155 -370 -155q-162 0 -341 72q-384 -525 -592 -525zM1051 186q225 0 359 155q50 57 83 136.5t33 143.5q0 112 -96 112q-94 0 -264 -114q-115 -77 -233.5 -181.5t-170.5 -162.5l-18 -25q163 -64 307 -64z" />
    <glyph glyph-name="germandbls" unicode="&#xdf;" horiz-adv-x="555" 
d="M97 54q-37 0 -37 22q0 39 115 95q76 36 165 66q15 18 29 53t14 70q0 55 -38 86q-24 20 -63 20h-11q-15 0 -16 6l-1 3q0 3 7 7q110 27 185 111t75 144q0 36 -31 36q-11 0 -22 -4q-42 -14 -138 -149q-26 -36 -103.5 -152.5t-128 -180.5t-88.5 -86q-3 -2 -6 -2q-4 0 -4 3
q0 4 6 7q37 25 87.5 90t99.5 140.5t98.5 149t96 127.5t79.5 65q14 5 30 5q46 0 46 -51q0 -62 -63.5 -139.5t-167.5 -115.5q47 -6 70 -40.5t23 -82.5q0 -64 -32 -111q40 14 188 35q6 0 6 -4q0 -3 -6 -4q-106 -15 -195 -40q-9 -12 -26 -32t-71.5 -64.5t-111.5 -68.5
q-32 -14 -60 -14zM89 64q39 0 120.5 53.5t118.5 102.5q-71 -19 -164.5 -67.5t-93.5 -75.5l1 -4q3 -9 18 -9z" />
    <glyph glyph-name="agrave" unicode="&#xe0;" horiz-adv-x="444" 
d="M49 45h-2q-33 0 -33 48q0 46 25 99q-55 -41 -90 -41q-41 0 -41 45q0 33 27.5 67.5t74.5 46.5q9 3 19 3q33 0 59 -38l14 21q1 2 5 2q5 0 10.5 -4.5t5.5 -8.5l-1 -3q-31 -44 -57 -93q-33 -61 -33 -98q0 -30 18 -30h2q35 0 170.5 104t178.5 116h2q6 0 6 -3q0 -2 -4 -5
q-48 -20 -123.5 -77.5t-138.5 -103.5t-94 -47zM-52 165q23 0 58.5 24.5t71.5 70.5q-21 36 -49 36q-35 0 -75 -52q-28 -36 -28 -59q0 -20 22 -20zM105 332l-4 1q-10 5 -40 22t-47 25l-2 2q0 4 7 8.5t14 4.5l4 -1q43 -25 74 -56l1 -2q0 -4 -7 -4z" />
    <glyph glyph-name="aacute" unicode="&#xe1;" horiz-adv-x="444" 
d="M-10 332q-8 0 -8 4l1 2q31 31 74 56l5 1q6 0 13 -4.5t7 -7.5q0 -1 -2 -3q-16 -8 -45 -24.5t-41 -22.5zM49 45h-2q-33 0 -33 48q0 46 25 99q-55 -41 -90 -41q-20 0 -30.5 12.5t-10.5 32.5q0 33 27.5 67.5t73.5 46.5q10 3 19 3q32 0 60 -38l13 21q1 2 6 2t10.5 -4.5
t5.5 -8.5l-1 -3q-31 -44 -57 -93q-33 -61 -33 -98q0 -30 18 -30h3q28 0 95.5 49t141.5 105t111 66h2q6 0 6 -3q0 -2 -4 -5q-48 -20 -123.5 -77.5t-138.5 -103.5t-94 -47zM-52 165q23 0 58.5 24.5t71.5 70.5q-21 36 -49 36q-33 0 -75 -52q-28 -36 -28 -59q0 -20 22 -20z" />
    <glyph glyph-name="acircumflex" unicode="&#xe2;" horiz-adv-x="444" 
d="M124 348q-9 0 -9 10v1q3 18 3 44q-8 -6 -33.5 -20t-38.5 -22q-4 -3 -9 -3q-6 0 -6 3t6 8l85 56l5 1q5 0 9 -2l2 -4l1 -4q0 -29 -7 -57q-1 -11 -8 -11zM48 45h-2q-33 0 -33 48q0 41 25 99q-54 -41 -89 -41q-20 0 -30.5 12.5t-10.5 32.5q0 33 27.5 67.5t73.5 46.5
q10 3 19 3q33 0 59 -38l15 21q1 2 5 2q5 0 10.5 -4.5t5.5 -8.5l-1 -3q-24 -33 -58 -93q-32 -60 -32 -97q0 -31 18 -31h3q27 0 94.5 49t141.5 105t111 66h2q7 0 7 -3q0 -2 -4 -5q-48 -20 -124 -77.5t-139 -103.5t-94 -47zM-52 165q23 0 58.5 24.5t71.5 70.5q-21 36 -49 36
q-34 0 -76 -52q-27 -36 -27 -59q0 -20 22 -20z" />
    <glyph glyph-name="atilde" unicode="&#xe3;" horiz-adv-x="444" 
d="M130 333q-15 0 -33 24t-32 24q-11 0 -26 -11q-3 -3 -7 -3t-4 7q0 9 10 18.5t29 10.5q17 0 35 -24t30 -24q5 0 13 4.5t13 6.5q8 0 8 -10q0 -5 -4 -8q-18 -15 -32 -15zM48 45h-2q-33 0 -33 48q0 41 25 99q-54 -41 -89 -41q-20 0 -30.5 12.5t-10.5 32.5q0 37 37 77t83 40
q33 0 59 -38l15 21q1 2 5 2q5 0 10.5 -4.5t5.5 -8.5l-1 -3q-24 -33 -58 -93q-32 -61 -32 -98q0 -30 20 -30q35 0 170 104t179 116h2q6 0 6 -3q0 -2 -4 -5q-48 -20 -124 -77.5t-139 -103.5t-94 -47zM-52 165q23 0 58.5 24.5t71.5 70.5q-21 36 -49 36q-35 0 -69 -43t-34 -68
q0 -20 22 -20z" />
    <glyph glyph-name="adieresis" unicode="&#xe4;" horiz-adv-x="444" 
d="M49 45h-2q-33 0 -33 48q0 46 25 99q-55 -41 -90 -41q-41 0 -41 45q0 33 27.5 67.5t74.5 46.5q9 3 19 3q33 0 59 -38l14 21q1 2 5 2q5 0 11 -4.5t6 -8.5l-1 -3q-30 -40 -58 -93q-32 -61 -32 -98q0 -30 18 -30h2q28 0 95.5 49t141.5 105t111 66h2q6 0 6 -3q0 -2 -4 -5
q-48 -20 -123.5 -77.5t-138.5 -103.5t-94 -47zM-52 165q23 0 58.5 24.5t71.5 70.5q-21 36 -49 36q-35 0 -75 -52q-28 -36 -28 -59q0 -20 22 -20zM112 338q-3 0 -4 2q-2 6 -2 12q0 19 9 28q7 7 17 7q6 0 9 -8l1 -4q0 -8 -11.5 -22.5t-18.5 -14.5zM49 351q-3 0 -4 3
q-3 4 -3 13q0 19 9 26q8 8 16 8q7 0 10 -9l1 -4q0 -8 -11 -22.5t-18 -14.5z" />
    <glyph glyph-name="aring" unicode="&#xe5;" horiz-adv-x="445" 
d="M81 336q-5 0 -11 2q-9 4 -9 14v4q0 6 8 20q10 17 28.5 31.5t34.5 15.5q8 0 11 -5q5 -3 5 -8v-1q0 -12 -16 -40q-16 -25 -30 -29q-11 -4 -21 -4zM88 347q12 0 30 27q8 14 13 30q-28 -9 -44 -36q-5 -6 -5 -14l-1 -1l4 -5zM49 45h-2q-33 0 -33 48q0 41 25 99
q-55 -41 -90 -41q-41 0 -41 45q0 33 27.5 67.5t74.5 46.5q10 3 19 3q33 0 59 -38l14 21q1 2 5 2q5 0 11 -4.5t6 -8.5l-1 -3q-27 -34 -58 -93q-32 -59 -32 -98q0 -30 17 -30h2q35 0 170.5 104t179.5 116h2q6 0 6 -3q0 -2 -4 -5q-48 -20 -124 -77.5t-139 -103.5t-94 -47z
M-52 165q23 0 58.5 24.5t71.5 70.5q-21 36 -49 36q-34 0 -74 -52q-29 -38 -29 -59q0 -20 22 -20z" />
    <glyph glyph-name="ae" unicode="&#xe6;" horiz-adv-x="459" 
d="M105 111q-17 0 -31 6q-29 11 -29 51q0 18 4 31q-2 -1 -5 -3.5t-5 -3.5q-55 -41 -90 -41q-41 0 -41 45q0 33 27.5 67.5t74.5 46.5q6 2 18 2q35 0 61 -38q45 54 95 54q30 0 30 -17q0 -21 -34.5 -45.5t-90.5 -35.5l-2 -3q-18 -37 -18 -59q0 -38 41 -40h5q95 0 301 152l5 2
q3 0 3 -4q0 -2 -3 -5q-86 -66 -173.5 -114t-142.5 -48zM97 244q34 3 69.5 24.5t35.5 36.5q0 4 -2 6q-3 3 -11 3q-16 0 -39 -14t-44 -42zM-52 165q23 0 58.5 24.5t71.5 70.5q-21 36 -48 36q-34 0 -76 -52q-28 -36 -28 -59q0 -20 22 -20z" />
    <glyph glyph-name="ccedilla" unicode="&#xe7;" horiz-adv-x="318" 
d="M-72 58q-20 0 -27 14l-1 4q0 4 4 4q2 0 4 -2q6 -10 17 -10q8 0 12 8l1 5q0 5 -8 12t-8 13q0 7 6 13q-25 15 -25 53q0 35 17 63q49 88 109 88q17 0 28.5 -8.5t12.5 -21.5v-1q0 -7 -6 -7q-5 0 -5 5l-6 11q-7 7 -18 7q-20 0 -46 -22t-40 -49q-22 -40 -22 -68q0 -40 43 -42h5
q51 0 133.5 45.5t162.5 106.5l4 2q4 0 4 -4q0 -2 -3 -5q-82 -65 -169 -113t-142 -48q-17 0 -28 4q-4 -6 -4 -8q0 -3 4 -6q13 -8 13 -20q0 -3 -2 -11q-5 -12 -20 -12z" />
    <glyph glyph-name="egrave" unicode="&#xe8;" horiz-adv-x="317" 
d="M-44 111q-17 0 -31 6q-29 12 -29 52q0 32 19 67q27 48 60 70t60 22q30 0 30 -17q0 -21 -34.5 -46t-90.5 -35q-19 -38 -19 -62q0 -38 40 -40h5q51 0 135 45.5t167 106.5l4 2q4 0 4 -3t-4 -6q-87 -66 -174 -114t-142 -48zM-53 244q35 3 71 24.5t36 36.5q0 4 -2 6
q-3 3 -11 3q-18 0 -44.5 -17t-49.5 -53zM103 352l-5 1q-15 7 -43.5 23t-42.5 23q-2 2 -2 3q0 4 7 8.5t13 4.5l4 -1q45 -27 75 -57l1 -1q0 -4 -7 -4z" />
    <glyph glyph-name="eacute" unicode="&#xe9;" horiz-adv-x="316" 
d="M-9 347q-7 0 -7 4l1 2q34 32 74 56l4 1q7 0 14 -5t7 -9l-2 -2q-18 -8 -49.5 -25.5t-37.5 -20.5zM-44 111q-17 0 -31 6q-29 12 -29 53q0 33 18 66q27 48 60.5 70t60.5 22q30 0 30 -17q0 -21 -34.5 -46t-90.5 -35q-19 -38 -19 -62q0 -38 40 -40h5q95 0 301 152l5 2
q4 0 4 -4q0 -2 -4 -5q-87 -66 -174 -114t-142 -48zM-53 244q35 3 71 24.5t36 36.5q0 3 -3 6t-11 3q-18 0 -44 -17t-49 -53z" />
    <glyph glyph-name="ecircumflex" unicode="&#xea;" horiz-adv-x="316" 
d="M83 344q-9 0 -9 9v1q3 19 3 45q-8 -5 -33.5 -19t-39.5 -23q-3 -3 -9 -3q-5 0 -5 3t6 8q71 48 85 55q4 2 6 2q5 0 7 -2q3 -2 3 -4l1 -4q0 -36 -7 -57q-1 -11 -8 -11zM-44 111q-19 0 -32 6q-28 13 -28 52q0 34 18 67q27 48 60 70t60 22q31 0 31 -17q0 -21 -34.5 -46
t-91.5 -35q-19 -38 -19 -62q0 -38 41 -40h5q95 0 301 152l5 2q4 0 4 -4q0 -2 -4 -5q-86 -66 -173.5 -114t-142.5 -48zM-53 244q35 3 71 24.5t36 36.5q0 3 -3 6t-11 3q-18 0 -44 -17t-49 -53z" />
    <glyph glyph-name="edieresis" unicode="&#xeb;" horiz-adv-x="317" 
d="M93 347q-3 0 -3 2q-3 4 -3 13q0 20 10 27q7 7 16 7q6 0 9 -8v-4q0 -8 -11 -22.5t-18 -14.5zM30 361q-3 0 -3 2q-3 5 -3 13q0 18 9 27q11 7 16 7q7 0 10 -8v-4q0 -8 -11 -22.5t-18 -14.5zM-44 111q-18 0 -30 6q-30 12 -30 52q0 32 19 67q27 48 59.5 70t60.5 22
q31 0 31 -17q0 -21 -35 -46t-92 -35q-19 -38 -19 -61q0 -39 41 -41h5q96 0 302 152l4 2q4 0 4 -4q0 -2 -3 -5q-86 -66 -174 -114t-143 -48zM-52 244q34 3 70 24.5t36 36.5q0 2 -2 6q-4 3 -11 3q-19 0 -45 -17t-48 -53z" />
    <glyph glyph-name="igrave" unicode="&#xec;" horiz-adv-x="281" 
d="M-58 105q-12 0 -19 4q-23 13 -23 43q0 41 33.5 100t63.5 93q1 3 6 3t9 -4t4 -9q0 -1 -2 -5q-34 -38 -65.5 -91.5t-31.5 -86.5q0 -20 15 -28q6 -3 16 -3q39 0 152 76.5t132 83.5l5 1q5 0 5 -4t-7 -7q-23 -8 -83 -51t-119 -79t-91 -36zM81 366l-4 1q-16 7 -44.5 23
t-42.5 23l-2 2q0 4 7 9t13 5l4 -1q45 -27 75 -57l1 -2q0 -3 -7 -3z" />
    <glyph glyph-name="iacute" unicode="&#xed;" horiz-adv-x="281" 
d="M3 393q-7 0 -7 4l1 1q34 34 75 57l4 1q6 0 13 -5t7 -8q0 -2 -1 -2q-16 -8 -45 -24t-42 -23zM-58 105q-11 0 -18 4q-24 13 -24 44q0 41 33.5 99.5t63.5 92.5q1 3 5 3q5 0 9.5 -4.5t4.5 -8.5q0 -1 -2 -5q-34 -38 -65.5 -91.5t-31.5 -86.5q0 -21 15 -28q6 -3 15 -3
q38 0 152 76.5t134 83.5l4 1q5 0 5 -3q0 -5 -7 -8q-21 -7 -136 -86.5t-157 -79.5z" />
    <glyph glyph-name="icircumflex" unicode="&#xee;" horiz-adv-x="281" 
d="M58 357q-8 0 -8 9l1 2q2 19 2 44q-8 -6 -33.5 -19.5t-39.5 -22.5q-4 -3 -9 -3t-5 3t7 7q48 35 84 56q2 2 7 2t7 -2l3 -3v-3q0 -7 -3 -33l-3 -25q-3 -12 -10 -12zM-58 105q-11 0 -18 4q-24 13 -24 44q0 41 33 98.5t63 93.5q2 3 6 3q5 0 9.5 -4.5t4.5 -8.5q0 -1 -2 -5
q-34 -38 -65.5 -91.5t-31.5 -86.5q0 -21 15 -28q6 -3 15 -3q39 0 152.5 76.5t132.5 83.5l5 1q5 0 5 -3q0 -5 -7 -8q-21 -7 -136 -86.5t-157 -79.5z" />
    <glyph glyph-name="idieresis" unicode="&#xef;" horiz-adv-x="281" 
d="M-58 105q-11 0 -18 4q-24 13 -24 44q0 41 33.5 99.5t63.5 92.5q1 3 5 3q5 0 9.5 -4.5t4.5 -9.5v-2l-1 -2q-35 -38 -67 -91.5t-32 -86.5q0 -21 16 -28q6 -3 15 -3q39 0 152.5 76.5t132.5 83.5l5 1q5 0 5 -3q0 -5 -7 -8q-21 -7 -136 -86.5t-157 -79.5zM2 383q-4 0 -4 3
q-2 3 -2 11q0 19 9 28q12 8 17 8q6 0 9 -8v-4q0 -9 -11 -23.5t-18 -14.5zM66 370q-4 0 -4 2q-2 3 -2 12q0 21 9 27q11 7 16 7q7 0 10 -8v-3q0 -9 -11 -23t-18 -14z" />
    <glyph glyph-name="eth" unicode="&#xf0;" horiz-adv-x="519" 
d="M107 49q-6 0 -16 2q-34 10 -34 62q0 45 33 110q-100 -77 -154 -77q-40 0 -40 39q0 26 19 58t50 55q48 34 94 34q54 0 62 -52q23 46 100 148l-131 -1q-8 0 -8 9q0 6 6 7l145 2q201 265 304 342q5 3 8 3q7 0 7 -5q0 -3 -4 -6q-123 -101 -289 -334l117 2q8 0 8 -8
q0 -9 -8 -9l-129 -2q-68 -95 -114 -175q-53 -91 -53 -147q0 -31 15 -40q7 -4 17 -4q44 0 186.5 104t170.5 115l4 1q5 0 5 -5q0 -4 -4 -5q-36 -15 -111 -72.5t-145.5 -104t-110.5 -46.5zM-59 161q24 0 69.5 26t95.5 67v7q0 51 -43 51q-41 0 -81 -36q-22 -21 -39 -52t-17 -49
q0 -12 7 -13z" />
    <glyph glyph-name="ntilde" unicode="&#xf1;" horiz-adv-x="439" 
d="M-196 86q-8 0 -8 9v3q20 54 37 82q72 124 84 124q4 0 8.5 -3.5t4.5 -7.5q0 -2 -2 -4q-77 -104 -115 -180q23 26 51.5 56t72 65t64.5 35q7 0 10 -2q7 -5 7 -10q-1 -7 -2.5 -17t-2.5 -19t-1 -19q0 -37 12 -62.5t38 -26.5q32 0 87 35t114 81.5t79 57.5h3q4 0 4 -3
q0 -2 -3 -3q-17 -11 -83 -64t-119 -85.5t-86 -32.5q-74 1 -74 123v23q-19 -11 -40 -27t-43 -36t-35.5 -32.5t-34 -34t-22.5 -23.5zM71 296q-13 0 -21.5 10t-12 21.5t-11.5 21.5t-20 10q-11 0 -22 -5l-5 -1q-5 0 -5 5q0 8 9 15.5t24 7.5l9 -1q19 -3 32 -33t29 -30q8 0 17 4
l4 1q8 0 8 -9q0 -7 -8 -10q-15 -7 -27 -7z" />
    <glyph glyph-name="ograve" unicode="&#xf2;" horiz-adv-x="289" 
d="M-112 107q-8 0 -18 8q-8 8 -8 25q0 28 21 72q22 46 53 75q-15 13 -15 23q0 13 18 13q17 0 27 -14q10 -13 11 -22t4 -12t20 -11q33 -16 80 -16q79 0 143 32l5 1q3 0 3 -3q0 -2 -4 -5q-78 -35 -153 -35q-53 0 -93 20l1 -3q0 -47 -32.5 -97.5t-62.5 -50.5zM-45 294l-12 11z
M-107 123q20 0 46.5 46.5t26.5 82.5q0 11 -2 15q-3 3 -6 4q-36 -34 -55 -74t-19 -63q0 -7 2 -9q4 -2 7 -2zM24 331l-5 1q-6 3 -37.5 20.5t-49.5 25.5l-1 2q0 4 6.5 8.5t13.5 4.5q3 0 4 -1q38 -21 74 -55l1 -2q0 -4 -6 -4z" />
    <glyph glyph-name="oacute" unicode="&#xf3;" 
d="M-98 342q-7 0 -7 3l1 2q31 31 74 56q2 1 6 1q6 0 12.5 -4.5t6.5 -8.5q0 -2 -2 -2q-14 -7 -42.5 -23t-44.5 -23q-1 -1 -4 -1zM-112 107q-10 0 -18 8t-8 25q0 28 21 72q27 51 53 75q-14 13 -14 23q0 13 17 13t27 -14q8 -11 11 -18.5t2.5 -10t4 -6.5t17.5 -10q33 -16 79 -16
q80 0 144 32l5 1q3 0 3 -3q0 -2 -5 -5q-76 -35 -152 -35q-52 0 -93 20v-1q0 -48 -32.5 -99t-61.5 -51zM-45 294l-13 11zM-107 123q21 0 47.5 47.5t26.5 83.5l-2 13l-8 4q-35 -34 -54 -74.5t-19 -62.5q0 -7 2 -9q6 -2 7 -2z" />
    <glyph glyph-name="ocircumflex" unicode="&#xf4;" 
d="M23 338q-8 0 -8 8l1 2q2 19 2 45q-9 -6 -34.5 -19.5t-37.5 -21.5q-4 -3 -10 -3q-4 0 -4 3t6 7q56 39 85 55q2 2 7 2q4 0 6 -2q3 -2 3 -4v-4q0 -33 -6 -57q-3 -11 -10 -11zM-112 107q-9 0 -17 8q-9 8 -9 26q0 29 22 71q23 49 53 75q-15 12 -15 23q0 13 17 13t28 -14
q10 -13 11 -21.5t3.5 -12t19.5 -11.5q32 -16 79 -16q79 0 145 32l4 1q3 0 3 -2q0 -3 -5 -6q-78 -35 -152 -35q-52 0 -92 20v-1q0 -48 -32.5 -99t-62.5 -51zM-45 294l-12 11zM-107 123q20 0 46.5 47t26.5 83l-1 14q-3 2 -8 4q-35 -34 -54 -74.5t-19 -62.5q0 -8 3 -9
q4 -2 6 -2z" />
    <glyph glyph-name="otilde" unicode="&#xf5;" 
d="M38 327q-13 0 -22 10t-12 21.5t-11 21.5t-20 10q-11 0 -22 -5l-5 -1q-6 0 -6 5q0 8 9 15.5t25 7.5l9 -1q16 -3 24.5 -18.5t15.5 -30t20 -14.5q9 0 18 4l4 1q7 0 7 -9q0 -7 -7 -10q-15 -7 -27 -7zM-112 107q-10 0 -18 8t-8 25q0 30 22 72q23 48 52 75q-14 13 -14 22
q0 14 18 14q16 0 27 -14q10 -13 11 -21.5t3.5 -12t19.5 -11.5q33 -16 80 -16q78 0 144 32l4 1q3 0 3 -2q0 -3 -5 -6q-76 -35 -152 -35q-52 0 -92 20v-1q0 -48 -33 -99t-62 -51zM-45 294l-13 11zM-107 123q21 0 47.5 47t26.5 83l-2 14q-3 2 -8 4q-36 -35 -54.5 -75.5
t-18.5 -62.5q0 -6 2 -8q4 -2 7 -2z" />
    <glyph glyph-name="odieresis" unicode="&#xf6;" 
d="M13 327q-3 0 -4 2q-2 6 -2 12q0 19 9 28q7 7 16 7q8 0 9 -8q1 -1 1 -4q0 -9 -11 -23t-18 -14zM-112 107q-10 0 -18 8t-8 25q0 30 22 72q23 48 52 75q-14 13 -14 22q0 14 18 14q16 0 27 -14q10 -13 11 -21.5t3.5 -12t19.5 -11.5q33 -16 79 -16q77 0 145 32l4 1q3 0 3 -2
q0 -3 -4 -6q-78 -35 -153 -35q-52 0 -92 20v-1q0 -48 -33 -99t-62 -51zM-45 294l-13 11zM-107 123q21 0 47.5 47t26.5 83l-2 14q-3 2 -8 4q-36 -35 -54.5 -75.5t-18.5 -62.5q0 -6 2 -8q4 -2 7 -2zM-50 340q-2 0 -4 3q-3 5 -3 13q0 18 9 26q10 7 17 7q6 0 9 -8l1 -4
q0 -8 -11 -22.5t-18 -14.5z" />
    <glyph glyph-name="oslash" unicode="&#xf8;" 
d="M-180 101q-4 0 -4 4q0 2 1 3q4 5 12.5 14.5t9.5 10.5v7q0 32 22 72q23 48 52 75q-14 13 -14 22q0 14 18 14q17 0 27 -14t12 -23t4 -11q16 18 27 29q2 2 3 2q4 0 4 -5l-1 -2q-5 -5 -14 -15t-13 -14l12 -6q33 -16 80 -16q78 0 144 32l4 1q3 0 3 -2q0 -3 -5 -6
q-76 -35 -151 -35q-53 0 -93 20q0 -48 -32.5 -99.5t-61.5 -51.5q-10 0 -18 8q-4 3 -6 8l-20 -21zM-68 294l-13 11zM-132 166q36 47 76 91q0 8 -9 14q-49 -46 -67 -105zM-129 123q19 0 43.5 42t28.5 79q-8 -9 -21 -25.5t-20 -24.5q-26 -32 -40 -47l-1 -11q0 -10 3 -11z" />
    <glyph glyph-name="ugrave" unicode="&#xf9;" horiz-adv-x="506" 
d="M155 366l-4 1q-15 7 -44 23t-44 23l-1 2q0 4 7 9t13 5l4 -1q45 -27 75 -57l1 -1q0 -4 -7 -4zM58 37q-8 0 -12 2q-21 11 -21 44q0 34 19 80t40 77q-30 -25 -87.5 -61.5t-80.5 -36.5q-4 0 -8 2q-6 6 -6 19q0 30 30 85t49 73q5 4 13 4q16 0 16 -10q0 -3 -4 -6
q-17 -15 -54 -69.5t-37 -76.5q0 -6 3 -9l4 -1q19 0 103 65.5t112 91.5q2 2 8 2q12 0 12 -8l-2 -5q-106 -151 -106 -214q0 -21 13 -28q3 -2 11 -2q21 0 67.5 29.5t95.5 67t113 76t112 53.5h3q5 0 5 -3t-5 -5q-60 -19 -149 -79t-159 -108.5t-98 -48.5z" />
    <glyph glyph-name="uacute" unicode="&#xfa;" horiz-adv-x="507" 
d="M58 37q-8 0 -11 2q-22 11 -22 44q0 34 19 80t40 77q-33 -27 -88.5 -62.5t-78.5 -35.5q-4 0 -8 2q-7 6 -7 19q0 31 30 85.5t50 72.5q4 4 12 4q15 0 15 -10q0 -3 -3 -6q-17 -15 -54.5 -69.5t-37.5 -76.5q0 -6 4 -9l3 -1q19 0 100.5 62.5t116.5 94.5q1 2 7 2q12 0 12 -8
q0 -1 -2 -5q-107 -153 -107 -214q0 -21 14 -28q3 -2 11 -2q26 0 92 46.5t151 103.5t146 76h2q5 0 5 -3t-5 -5q-60 -19 -149 -79t-159 -108.5t-98 -48.5zM83 369q-8 0 -8 4l1 2q33 33 74 56q1 1 4 1q7 0 13.5 -4.5t6.5 -8.5q0 -2 -1 -2q-16 -8 -45 -24.5t-41 -22.5z" />
    <glyph glyph-name="ucircumflex" unicode="&#xfb;" horiz-adv-x="506" 
d="M57 37q-8 0 -11 2q-22 11 -22 44q0 34 19 80t40 77q-33 -27 -88.5 -62.5t-78.5 -35.5q-3 0 -7 2q-7 6 -7 20q0 31 30 85.5t50 71.5q4 4 12 4q15 0 15 -10q0 -3 -3 -6q-17 -15 -54.5 -69.5t-37.5 -76.5q0 -6 4 -9l3 -1q32 0 217 157q1 2 7 2q12 0 12 -8l-2 -5
q-17 -23 -38.5 -56t-45 -82.5t-23.5 -76.5q0 -20 13 -27q3 -2 11 -2q26 0 92 46.5t151 103.5t146 76h2q5 0 5 -3q0 -4 -4 -5q-60 -19 -149 -79t-159.5 -108.5t-98.5 -48.5zM131 350q-8 0 -8 9v1q2 11 3 27t1 18q-9 -6 -34.5 -19.5t-38.5 -22.5q-6 -3 -11 -3q-4 0 -4 2
q0 4 7 8q52 38 84 56l6 2q5 0 8 -3q2 0 2 -3v-4q0 -39 -6 -57q-1 -11 -9 -11z" />
    <glyph glyph-name="udieresis" unicode="&#xfc;" horiz-adv-x="506" 
d="M58 37q-8 0 -12 2q-21 11 -21 44q0 34 19 79.5t39 77.5q-30 -25 -87 -61.5t-80 -36.5q-4 0 -8 2q-6 6 -6 19q0 31 30 86t49 72q5 4 12 4q16 0 16 -10q0 -3 -4 -6q-17 -16 -54 -70t-37 -76q0 -6 3 -9l4 -1q31 0 216 157q2 2 8 2q12 0 12 -8l-2 -5q-17 -23 -38.5 -56
t-45 -82.5t-23.5 -76.5q0 -20 13 -27q3 -2 11 -2q26 0 92 46.5t151 103.5t146 76h3q5 0 5 -3q0 -4 -6 -5q-60 -19 -148.5 -79t-159 -108.5t-97.5 -48.5zM50 369q-2 0 -4 2q-2 6 -2 13q0 20 9 27q10 7 17 7q8 0 9 -8l1 -3q0 -9 -11.5 -23.5t-18.5 -14.5zM114 356q-3 0 -4 2
q-2 6 -2 13q0 17 8 27q10 7 17 7t10 -8l1 -3q0 -9 -11.5 -23.5t-18.5 -14.5z" />
    <glyph glyph-name="yacute" unicode="&#xfd;" horiz-adv-x="380" 
d="M-354 344q-7 0 -7 4l1 2q36 34 74 56l5 1q6 0 13 -4.5t7 -7.5q0 -1 -2 -3q-15 -7 -44 -23.5t-43 -23.5zM-827 -536q-14 0 -25 4q-52 18 -52 77q0 48 31.5 111t77.5 118q66 80 161.5 158.5t155 117t111.5 66.5q33 59 69 133q-123 -123 -175 -123q-17 0 -26 13q-7 10 -7 25
q0 61 80 151q3 3 7 3q10 0 10 -7l-2 -4q-19 -22 -46.5 -73t-27.5 -76l2 -9q5 -12 16 -12q39 0 197 155q2 3 5 3t6 -3t3 -6l-1 -4l-74 -147q43 27 81 48t88.5 48t90.5 49l6 2q3 0 3 -3q0 -5 -5 -7q-31 -18 -124.5 -70.5t-150.5 -88.5q-6 -12 -30.5 -59.5t-42.5 -81.5
t-49 -90.5t-57.5 -99t-60 -94.5t-64 -88.5t-62 -69.5t-62 -49.5t-57.5 -16.5zM-827 -519q24 0 52 16t58 47.5t58 65.5t60 84.5t55.5 89t53.5 94t45.5 84.5t39 75.5t27.5 53.5q-112 -64 -217.5 -149.5t-176.5 -169.5q-46 -55 -80.5 -119t-34.5 -109t39 -59q14 -4 21 -4z" />
    <glyph glyph-name="thorn" unicode="&#xfe;" horiz-adv-x="400" 
d="M-821 -443q-8 0 -13 4q-14 10 -14 35q0 68 105 249q102 166 256 323q119 220 251 401q7 9 16 9q7 0 7 -8q0 -7 -6 -14q-37 -54 -213 -341q116 108 176 108q34 0 34 -35q0 -36 -36 -87q105 0 234 78q3 2 7 2q3 0 3 -2q0 -4 -6 -7q-128 -82 -247 -83l-4 -4q-4 -4 -11 -10
t-16 -13.5t-20.5 -15t-24 -13.5t-27 -10t-27.5 -4h-4q-17 2 -28.5 12.5t-11.5 23.5l1 10q13 32 149 35q44 55 44 86q0 20 -20 20q-34 0 -115 -64q-50 -41 -69 -63q-12 -20 -92.5 -189.5t-158 -301t-119.5 -131.5zM-398 134q22 0 51.5 19t45.5 35q-1 0 -15.5 -1t-22 -1.5
t-23 -2.5t-24.5 -4t-19.5 -5t-15.5 -7.5t-5 -10.5q0 -5 5 -12q9 -10 23 -10zM-819 -426q19 0 52.5 45t71.5 119t70.5 142t66 141t41.5 90q-120 -130 -211 -277q-21 -33 -63 -118t-42 -122q0 -19 12 -20h2z" />
    <glyph glyph-name="ydieresis" unicode="&#xff;" horiz-adv-x="380" 
d="M-358 351q-2 0 -4 3q-1 3 -1 12q0 20 8 27q8 8 17 8q8 0 9 -9l1 -4q0 -8 -11.5 -22.5t-18.5 -14.5zM-294 338q-3 0 -4 2q-2 6 -2 13q0 17 8 27q11 7 17 7q7 0 10 -8l1 -3q0 -8 -11.5 -23t-18.5 -15zM-827 -536q-14 0 -26 4q-51 18 -51 76q0 48 31.5 111.5t76.5 118.5
q66 80 161.5 158t155.5 116.5t112 66.5q10 19 69 134q-123 -123 -175 -123q-17 0 -27 13q-6 9 -6 25q0 60 79 151q5 3 9 3q9 0 9 -6q0 -2 -3 -5q-18 -21 -45.5 -73t-27.5 -77q0 -2 0.5 -5t0.5 -4q5 -12 17 -12q38 0 196 156q2 2 5 2q9 0 9 -9l-1 -3l-74 -148q43 27 80.5 48
t89.5 49t90 49l6 2q4 0 4 -4t-6 -6q-40 -23 -95 -54t-95.5 -54.5t-83.5 -51.5q-7 -13 -31 -59.5t-42.5 -81t-49 -90.5t-57.5 -99t-60 -94.5t-63.5 -88t-62.5 -69t-62.5 -49.5t-56.5 -17zM-827 -520q24 0 52 15.5t58 48t57.5 66t60 84.5t55.5 88.5t53.5 94.5t45 84t39.5 75.5
t27 53.5q-112 -65 -218 -149.5t-176 -168.5q-46 -55 -80 -119.5t-34 -109.5t38 -59q14 -4 22 -4z" />
    <glyph glyph-name="OE" unicode="&#x152;" horiz-adv-x="2318" 
d="M1473 -351q-109 0 -161 74t-52 192q0 92 30 193q-62 -102 -131.5 -185.5t-154 -144t-156.5 -60.5q-57 0 -94.5 40.5t-37.5 107.5q0 90 63 221t140.5 236.5t143.5 169.5q-13 31 -17 42q-51 -5 -102.5 -11.5t-142 -18.5t-171 -27t-175 -34t-169.5 -43t-139 -51.5t-99.5 -61
t-35.5 -69.5l1 -16q0 -8 -5 -8q-8 0 -8 27q0 50 63.5 96t164.5 79t220 60.5t236 45.5t206.5 30t136.5 17q9 1 13 1q-24 71 -24 138q0 122 74 196t167 74q91 0 157 -80t66 -216q0 -144 -76 -332q79 101 184.5 161.5t205.5 60.5q56 0 104 -21q-33 28 -51 77t-18 101
q0 93 56 147.5t128 56.5q41 0 71 -22.5t30 -51.5q0 -2 -4 -20q-1 -4 -6 -4q-8 0 -8 6q0 1 1.5 5.5t1.5 7.5q0 19 -20.5 37t-60.5 18q-41 -2 -81.5 -28.5t-61.5 -67.5q-21 -45 -21 -94q0 -105 77 -173q3 -2 3 -7q0 -6 -5.5 -13t-11.5 -7q-1 0 -7 2q-47 27 -105 27
q-61 0 -130 -28q-85 -34 -145.5 -93t-120.5 -144q-121 -173 -121 -353q0 -112 49.5 -174t136.5 -62q76 0 177.5 48t195.5 117.5t192 156.5t165 156t116 126q4 2 5 2q8 0 8 -7q0 -2 -2 -4q-71 -85 -170.5 -183t-216 -195.5t-236.5 -165.5t-207 -76q-9 -1 -28 -1zM1356 263
q108 228 108 399q0 122 -60 205.5t-143 83.5q-21 0 -44 -6q-91 -24 -134.5 -92t-43.5 -160q0 -71 23 -140q20 3 41.5 5t36.5 4q62 53 100 53q13 0 20.5 -7t7.5 -16q0 -12 -6 -20t-30.5 -16t-67.5 -10q-32 -25 -69 -66q81 -154 261 -217zM1081 509q26 24 37 33l-49 -5
q1 -5 12 -28zM1185 564q68 2 68 26q0 10 -9 10q-14 0 -59 -36zM849 -266q54 0 117 39.5t118 94.5q80 79 138 165t127 215q-186 65 -270 217q-58 -56 -133.5 -158.5t-140.5 -233t-65 -215.5q0 -62 32 -94q33 -30 77 -30z" />
    <glyph glyph-name="oe" unicode="&#x153;" horiz-adv-x="395" 
d="M-102 108q-10 0 -17 7q-9 9 -9 26q0 27 21 71q25 49 53 75q-15 12 -15 23t15 11q17 0 31.5 -15.5t14.5 -46.5v-2q49 71 108 71q30 0 30 -17q0 -21 -34.5 -46t-91.5 -35q-18 -36 -18 -62q0 -38 39 -40h5q96 0 302 152l5 2q4 0 4 -4q0 -2 -4 -5q-86 -66 -173.5 -114
t-142.5 -48q-18 0 -31 6q-25 9 -29 44q-34 -53 -63 -53zM12 244q34 3 70.5 24.5t36.5 36.5q0 3 -3 6t-11 3q-18 0 -44 -17t-49 -53zM-35 294l-12 11q1 -2 12 -11zM-97 123q14 0 32.5 25.5t30.5 56.5l4 11q7 23 7 37q0 6 -2 14q-3 2 -8 4q-35 -34 -54 -74.5t-19 -62.5
q0 -8 3 -9q4 -2 6 -2z" />
    <glyph glyph-name="Wcircumflex" unicode="&#x174;" horiz-adv-x="1353" 
d="M1016 589q-7 0 -7 7q0 10 1.5 29t1.5 25l-1 9q-8 -5 -39.5 -22.5t-49.5 -28.5q-4 -2 -7 -2q-5 0 -5 4q0 5 10 12q42 30 96 64l6 2q9 0 10 -10q0 -12 -4.5 -43.5t-6.5 -39.5q-1 -6 -5 -6zM796 -188q-55 0 -55 146q0 124 42 282t98 252q-19 -11 -117.5 -109t-212 -198
t-179.5 -127q-10 -5 -23 -5q-31 0 -31 46q0 86 99 245.5t269 303.5q-48 -15 -232 -56.5t-312.5 -81t-128.5 -70.5l1 -5q0 -6 -6 -6q-7 0 -8 13q0 34 95.5 70t214.5 62t246 57t171 52l5 1q7 0 15 -5.5t8 -11.5q0 -5 -7 -9q-42 -27 -116 -105.5t-134 -162.5q-64 -90 -106 -172
t-42 -117q0 -21 16 -21q13 0 37 15q67 42 182 148.5t208 195.5t118 98h3q8 0 19.5 -6.5t11.5 -12.5l-1 -2q-72 -100 -123 -280.5t-51 -300.5q0 -92 33 -92q40 1 120 96.5t179 239t205.5 291.5t223.5 271.5t208 161.5q3 1 7 1q5 0 5 -3q0 -5 -6 -6q-80 -31 -193 -155
t-221.5 -277t-212 -301.5t-190.5 -249t-132 -100.5z" />
    <glyph glyph-name="wcircumflex" unicode="&#x175;" horiz-adv-x="441" 
d="M128 322q-8 0 -8 10v1q1 10 2 26t1 19q-9 -7 -35 -20.5t-39 -21.5q-5 -3 -9 -3q-5 0 -5 3t7 7q54 39 85 56q4 2 6 2q5 0 8 -3q2 0 2 -3l1 -4q0 -36 -7 -57q-3 -12 -9 -12zM28 98q-5 0 -7 1q-13 5 -13 36q0 50 25 125q-4 -4 -24 -29t-39 -44.5t-30 -19.5q-4 0 -7 3t-3 11
q0 10 6.5 30t13 35t17 38t11.5 25q6 13 19 13q9 0 9 -6l-1 -4q-63 -121 -63 -134q0 -2 2 -2q4 0 51 57.5t58 57.5q4 0 4 -8v-6q-2 -12 -18 -77t-16 -80l1 -6q1 -4 6 -4q17 0 66 68.5t71 109.5q-8 14 -8 27q0 16 9 27.5t18 11.5h1q11 -2 11 -18q0 -20 -16 -49q32 -29 110 -29
t122 23h1q2 0 2 -2t-1 -3q-37 -26 -125 -26q-78 0 -115 27l-8 -13q-7 -12 -13.5 -23t-18 -28.5t-21.5 -32t-22.5 -30.5t-23.5 -27t-22 -18t-19 -7zM173 299q12 24 12 36q0 4 -2 4h-1q-13 -2 -13 -25q0 -10 4 -15z" />
    <glyph glyph-name="Ycircumflex" unicode="&#x176;" horiz-adv-x="1390" 
d="M508 -402q-59 0 -91.5 31t-32.5 83q0 105 117 229q105 113 236 178.5t317 121.5q72 121 159 259q-236 -189 -377 -196q-45 0 -45 40q0 47 54.5 138t152 220t99.5 132q-49 -33 -132 -59.5t-171.5 -45.5t-188.5 -42t-192.5 -56.5t-173 -80t-140.5 -122t-86 -173.5
q-1 -8 -7 -8t-6 7v3q29 111 98.5 194.5t160 132t194 83t209.5 57t198 43.5t167 53t109 75q4 4 15 4q19 0 19 -12q0 -5 -2 -8q-20 -40 -109 -160.5t-163.5 -230t-74.5 -145.5q0 -19 18 -19q154 13 394 217q72 113 146.5 200.5t123.5 109.5q15 7 28 7q16 0 16 -13
q0 -28 -91 -124q-115 -122 -153.5 -166t-83.5 -108.5t-126 -199.5q144 34 302 34q7 0 7 -5q0 -6 -7 -6q-169 -6 -314 -45q-61 -100 -102 -165t-96 -146t-98 -131t-91.5 -96t-94.5 -67.5t-91 -21.5zM509 -383q36 0 74.5 18.5t72.5 45t77 77t74.5 92.5t78.5 114.5t76.5 120.5
t79.5 132q-362 -110 -533 -295q-108 -119 -108 -212q0 -43 26.5 -67.5t79.5 -25.5h2zM1323 618q30 27 116.5 117t86.5 103q-1 2 -3 3q-20 0 -95.5 -89t-104.5 -134zM1396 899q-6 0 -6 7q0 10 1.5 29t1.5 25l-1 9q-9 -6 -40.5 -23t-49.5 -28l-6 -2q-5 0 -5 4q0 5 10 12
q57 40 95 63q2 2 7 2q9 0 10 -9q0 -12 -4.5 -43.5t-6.5 -39.5q-1 -6 -6 -6z" />
    <glyph glyph-name="ycircumflex" unicode="&#x177;" horiz-adv-x="380" 
d="M-281 333q-8 0 -8 9v1q1 10 2 26t1 19q-9 -6 -34.5 -19.5t-38.5 -21.5q-4 -3 -9 -3t-5 3t6 7q74 49 84 55q3 2 8 2t7 -2l2 -4q1 0 1 -4q0 -33 -8 -57q-1 -11 -8 -11zM-827 -536q-14 0 -25 4q-52 18 -52 77q0 48 31.5 111t76.5 118q51 62 117 121t128.5 103t105.5 71.5
t78 46.5q33 59 69 133q-125 -123 -175 -123q-16 0 -26 13q-7 10 -7 25q0 60 79 151q5 3 8 3q10 0 10 -7l-2 -4q-18 -20 -45.5 -72t-27.5 -77q0 -7 1 -9q5 -12 16 -12q39 0 196 155q3 3 6 3q9 0 9 -9l-1 -4l-75 -147q44 27 81.5 48t89 48t90.5 49l6 2q3 0 3 -3q0 -4 -6 -7
q-42 -24 -95.5 -54t-94.5 -54t-84 -51q-6 -12 -30.5 -59.5t-42.5 -81.5t-49 -90.5t-57.5 -99t-60 -94.5t-64 -88.5t-62 -69.5t-62 -49.5t-57.5 -16.5zM-826 -519q27 0 60 22t63 54.5t67 84t64.5 96t62 106t53.5 98t46 88t32 61.5q-112 -64 -217.5 -149t-177.5 -170
q-46 -54 -80 -118t-34 -109q0 -46 39 -60q14 -4 22 -4z" />
    <glyph glyph-name="Ydieresis" unicode="&#x178;" horiz-adv-x="1390" 
d="M1398 914q-8 0 -8 20q0 22 11 33q13 10 22 10t13 -14q0 -11 -14.5 -30t-23.5 -19zM1324 932q-2 0 -5 3q-2 8 -2 17q0 16 7.5 29.5t24.5 13.5q13 0 13 -15q0 -11 -14.5 -29.5t-23.5 -18.5zM507 -402q-59 0 -91.5 31.5t-32.5 82.5q0 105 117 229q105 113 236.5 178.5
t317.5 121.5q46 78 158 259q-234 -189 -376 -196q-46 0 -46 40q0 47 55 138.5t152 219t100 132.5q-44 -29 -113.5 -53.5t-144.5 -40.5t-162.5 -37t-169 -42t-162.5 -56.5t-145.5 -80.5t-114.5 -114t-73 -155q-1 -8 -7 -8q-5 0 -5 6v4q26 98 83 174.5t130.5 124t163.5 84.5
t180 58t181.5 42.5t167 39t137.5 47t93 68.5q4 4 15 4q19 0 19 -12l-3 -8q-20 -40 -109 -160.5t-163.5 -230t-74.5 -145.5q0 -19 19 -19q155 13 393 217q71 112 146.5 200t123.5 110q17 7 29 7q16 0 16 -13q0 -27 -92 -124q-91 -96 -119.5 -127t-74.5 -89.5t-75.5 -105.5
t-92.5 -152q144 34 302 34q6 0 6 -5q0 -6 -7 -6q-169 -6 -314 -45q-60 -100 -101.5 -165.5t-96 -146t-97.5 -130.5t-92 -96t-95 -67.5t-91 -21.5zM508 -383q36 0 75 18.5t73 45t77 77t74.5 92.5t78.5 115t76 120.5t79 131.5q-363 -111 -533 -295q-108 -119 -108 -212
q0 -42 27 -67t79 -26h2zM1322 618q28 24 115.5 115t87.5 105q-1 2 -3 3q-19 0 -94 -88.5t-106 -134.5z" />
    <glyph glyph-name="circumflex" unicode="&#x2c6;" horiz-adv-x="168" 
 />
    <glyph glyph-name="ring" unicode="&#x2da;" horiz-adv-x="188" 
 />
    <glyph glyph-name="tilde" unicode="&#x2dc;" horiz-adv-x="191" 
 />
    <glyph glyph-name="Wgrave" unicode="&#x1e80;" horiz-adv-x="1355" 
d="M1031 582l-5 1q-13 7 -49.5 30t-54.5 31l-1 2q0 5 7 10t14 5q3 0 4 -1q40 -23 92 -72l1 -2q0 -4 -8 -4zM798 -188q-55 0 -55 146q0 124 42 282t97 252q-19 -11 -117.5 -109t-212 -198t-179.5 -127q-10 -5 -23 -5q-31 0 -31 46q0 86 99 245.5t269 303.5
q-48 -15 -232 -56.5t-312.5 -81t-128.5 -70.5l1 -5q0 -6 -6 -6q-7 0 -9 12q0 34 95.5 70t214.5 62t246.5 57.5t171.5 52.5l4 1q7 0 15.5 -5.5t8.5 -11.5q0 -5 -7 -9q-42 -27 -116 -105.5t-134 -162.5q-64 -90 -106 -172t-42 -117q0 -21 16 -21q13 0 37 15q67 42 182 148.5
t208.5 195.5t117.5 98h3q8 0 19.5 -6.5t11.5 -12.5l-1 -2q-72 -100 -123 -280.5t-51 -300.5q0 -92 33 -92q34 0 97.5 69.5t136.5 175t165.5 234.5t180 245t184 210t173.5 126q3 1 6 1q6 0 6 -3q0 -5 -6 -6q-81 -31 -194 -155t-221 -277t-211.5 -301.5t-190.5 -249
t-132 -100.5z" />
    <glyph glyph-name="wgrave" unicode="&#x1e81;" horiz-adv-x="441" 
d="M27 98q-5 0 -7 1q-13 5 -13 36q0 35 24 125q-4 -4 -23.5 -29t-38 -44.5t-29.5 -19.5q-4 0 -7 3t-3 11q0 21 47 128q6 13 19 13q9 0 9 -6l-1 -4q-62 -119 -62 -134q0 -2 1 -2q4 0 51.5 57.5t58.5 57.5q4 0 4 -8v-6q-2 -13 -18.5 -78t-16.5 -79l1 -6q1 -4 6 -4q18 0 68 70
t69 108q-7 13 -7 26q0 16 8.5 28t17.5 12h1q11 -2 11 -18q0 -20 -16 -49q32 -29 110 -29t122 23h1q3 0 3 -2l-2 -3q-37 -26 -124 -26q-78 0 -115 27q-1 -1 -15.5 -25t-29.5 -46.5t-34.5 -49t-38 -42.5t-31.5 -16zM172 299q0 1 3.5 8.5t6 15.5t2.5 12t-3 4h-1q-12 -2 -12 -25
q0 -7 4 -15zM124 332l-4 1q-12 6 -41 22.5t-45 24.5q-2 2 -2 3q0 3 7 7.5t13 4.5l4 -1q43 -24 75 -56l1 -2q0 -4 -8 -4z" />
    <glyph glyph-name="Wacute" unicode="&#x1e82;" horiz-adv-x="1354" 
d="M797 -188q-55 0 -55 146q0 124 42 282t98 252q-18 -10 -83.5 -73.5t-137 -133.5t-154.5 -138t-134 -89q-10 -5 -23 -5q-32 0 -32 46q0 85 99.5 245t268.5 304q-48 -15 -231.5 -56.5t-312.5 -81t-129 -70.5l1 -6q0 -5 -5 -5q-7 0 -9 12q0 43 148 87.5t338 87t242 67.5l4 1
q7 0 15.5 -5.5t8.5 -11.5q0 -5 -7 -9q-42 -27 -116.5 -105.5t-133.5 -162.5q-64 -92 -106.5 -173t-42.5 -116q0 -21 16 -21q13 0 37 15q67 42 182.5 148.5t208.5 195.5t117 98h3q9 0 20 -6.5t11 -12.5l-1 -2q-72 -100 -122.5 -279.5t-50.5 -300.5q0 -93 33 -93q34 0 97 69.5
t136.5 175t165.5 234.5t179.5 245t184 210t173.5 126q3 1 6 1q6 0 6 -3t-7 -6q-80 -31 -193 -155t-221 -277t-211.5 -301.5t-190.5 -249t-132 -100.5zM920 625q-9 0 -9 4l1 2q46 46 91 72q2 1 6 1q6 0 13 -4.5t7 -8.5q0 -2 -2 -3q-16 -8 -52 -31t-52 -31z" />
    <glyph glyph-name="wacute" unicode="&#x1e83;" horiz-adv-x="440" 
d="M35 328q-7 0 -7 4v1q37 35 75 56q2 1 5 1q6 0 13 -4.5t7 -8.5l-2 -2q-16 -7 -44.5 -23t-42.5 -23zM27 98q-5 0 -7 1q-13 6 -13 36q0 50 25 125q-4 -4 -23.5 -29t-38.5 -44.5t-30 -19.5q-4 0 -7 3t-3 11q0 28 48 128q6 13 19 13q9 0 9 -7l-1 -3q-62 -119 -62 -134l1 -2
q4 0 51 57.5t58 57.5q5 0 5 -9l-1 -5q-2 -13 -18 -78.5t-16 -79.5v-5q3 -4 6 -4q18 0 69 71.5t68 106.5q-7 13 -7 27q0 16 8.5 27.5t18.5 11.5h1q11 -2 11 -18q0 -20 -17 -49q33 -29 111 -29q77 0 121 23h1q3 0 3 -2q0 -1 -2 -3q-36 -26 -124 -26q-78 0 -115 27
q-109 -179 -149 -179zM172 299q3 4 7.5 17t4.5 19q0 4 -2 4h-1q-12 -1 -12 -25q0 -9 3 -15z" />
    <glyph glyph-name="Wdieresis" unicode="&#x1e84;" horiz-adv-x="1355" 
d="M797 -188q-55 0 -55 144q0 124 42 282.5t97 253.5q-17 -10 -82.5 -73.5t-136.5 -133.5t-154.5 -138t-134.5 -89q-10 -5 -23 -5q-32 0 -32 46q0 86 99 246t269 303q-47 -15 -231.5 -56.5t-313 -81t-128.5 -71.5l1 -5q0 -5 -5 -5q-7 0 -9 12q0 43 148 87.5t338 87t242 67.5
l4 1q7 0 15.5 -5.5t8.5 -11.5q0 -5 -7 -9q-42 -27 -116.5 -105.5t-133.5 -162.5q-64 -91 -106 -172.5t-42 -116.5q0 -21 16 -21q13 0 37 15q67 42 182 148.5t208.5 195.5t117.5 98h3q8 0 19.5 -6.5t11.5 -12.5l-1 -2q-72 -100 -123 -280t-51 -301q0 -92 33 -92
q29 0 79.5 51.5t112.5 135.5t133.5 187t150.5 211.5t155.5 204t157 169t147.5 101.5q3 1 7 1q5 0 5 -3q0 -4 -6 -6q-81 -31 -194 -155t-221 -277t-211.5 -301.5t-190.5 -249t-132 -100.5zM1011 599q-7 0 -7 20q0 23 10 33t22 10q13 0 13 -15q0 -11 -14.5 -29.5t-23.5 -18.5z
M938 617q-8 0 -8 21q0 16 8 29t24 13q13 0 13 -15q0 -11 -14.5 -29.5t-22.5 -18.5z" />
    <glyph glyph-name="wdieresis" unicode="&#x1e85;" horiz-adv-x="440" 
d="M26 98q-5 0 -7 1q-13 6 -13 36q0 50 25 125q-4 -4 -23.5 -29t-38.5 -44.5t-30 -19.5q-3 0 -6 3t-3 11q0 30 47 128q6 13 19 13q9 0 9 -7l-1 -3q-63 -121 -63 -134q0 -2 2 -2q4 0 51 57.5t58 57.5q4 0 4 -8v-6q-2 -10 -18 -75.5t-16 -81.5l1 -6q1 -4 6 -4q18 0 68 70
t69 108q-7 13 -7 26q0 16 8.5 28t17.5 12h1q11 -2 11 -18q0 -19 -17 -49q32 -29 110 -29t122 23h1q3 0 3 -2l-2 -3q-36 -26 -124 -26q-77 0 -115 27q-109 -179 -149 -179zM172 299q11 22 11 36q0 4 -2 4h-1q-12 -1 -12 -24q0 -11 4 -16zM42 340q-2 0 -4 3q-3 4 -3 13
q0 17 10 25q5 8 16 8q8 0 9 -8l1 -4q0 -8 -11 -22.5t-18 -14.5zM104 326q-1 0 -3 2q-2 3 -2 12q0 19 9 28q7 7 16 7q8 0 9 -8l1 -3q0 -9 -11.5 -23.5t-18.5 -14.5z" />
    <glyph glyph-name="Germandbls" unicode="&#x1e9e;" horiz-adv-x="1416" 
d="M7 -271q-7 0 -7 4q0 5 8 5q48 0 102 21.5t110 64.5t108.5 90.5t111 116.5t103.5 124.5t99.5 132.5t86 122t76.5 112.5l57 85.5q16 22 52 74.5t65.5 94t52.5 69.5q65 78 164 78q79 0 138 -48.5t59 -124.5q0 -66 -49 -132q-47 -63 -119 -102.5t-234 -78.5q55 -32 111 -92.5
t80 -129.5q130 44 235 65h2q7 0 7 -6t-7 -7q-83 -17 -232 -68q9 -38 9 -72q0 -67 -31 -127t-78 -98t-99.5 -60.5t-98.5 -22.5q-42 0 -69.5 21.5t-27.5 65.5q0 116 199 225q77 42 157 71q-28 80 -102.5 152.5t-130.5 78.5q-8 2 -8 8q0 7 7 9q143 33 231.5 69.5t124.5 67.5
t64 76q33 55 33 104q0 64 -49 103t-116 39q-96 0 -148 -75l-204 -290q-23 -33 -72 -105t-86.5 -128t-95 -133.5t-107 -135.5t-112.5 -120t-120.5 -102t-123 -66t-126.5 -26zM884 -159q57 0 122 38t112 105.5t47 140.5q0 30 -9 63q-69 -26 -136 -61t-127.5 -86.5
t-72.5 -100.5q-5 -23 -5 -36q0 -63 69 -63z" />
    <glyph glyph-name="Ygrave" unicode="&#x1ef2;" horiz-adv-x="1390" 
d="M507 -402q-59 0 -91.5 31.5t-32.5 82.5q0 105 117 229q105 113 236.5 178.5t318.5 121.5q46 79 157 259q-234 -189 -376 -196q-46 0 -46 40q0 47 55 138.5t152 219t100 132.5q-44 -29 -113.5 -53.5t-144.5 -40.5t-162.5 -37t-169 -42t-162.5 -56.5t-145.5 -80.5
t-114.5 -114t-73 -155q-1 -8 -7 -8q-5 0 -5 6v4q26 98 83 174.5t130.5 124t163.5 84.5t180 58t181.5 42.5t167 39t137.5 47t93 68.5q4 4 15 4q19 0 19 -12l-3 -8q-20 -40 -109 -160.5t-163.5 -230t-74.5 -145.5q0 -19 19 -19q155 13 393 217q71 112 146.5 200t123.5 110
q17 7 29 7q16 0 16 -13q0 -27 -92 -124q-91 -96 -119.5 -127t-74.5 -89.5t-75.5 -105.5t-92.5 -152q144 34 302 34q6 0 6 -5q0 -6 -7 -6q-167 -6 -314 -45q-53 -87 -87.5 -142.5t-83 -128.5t-83.5 -119t-79.5 -95.5t-81.5 -77.5t-78 -46t-80 -18zM508 -383q36 0 75 18.5
t73 45t77 77t74.5 92.5t78.5 115t76 120.5t79 131.5q-363 -111 -533 -295q-108 -119 -108 -212q0 -42 27 -67t79 -26h2zM1322 618q27 23 115 114.5t88 105.5q-1 2 -3 3q-19 0 -94 -88.5t-106 -134.5zM1422 949l-6 1q-16 8 -52 30.5t-52 30.5q-2 2 -2 3q0 4 7 9t14 5
q4 0 5 -1q47 -28 91 -72l1 -2q0 -4 -6 -4z" />
    <glyph glyph-name="ygrave" unicode="&#x1ef3;" horiz-adv-x="381" 
d="M-827 -536q-14 0 -25 4q-52 18 -52 77q0 48 31.5 111t77.5 118q66 80 161.5 158.5t155 117t111.5 66.5q26 47 70 133q-125 -123 -176 -123q-16 0 -26 13q-7 10 -7 25q0 60 79 151q5 3 8 3q10 0 10 -7l-2 -4q-18 -20 -45.5 -72t-27.5 -77q0 -7 1 -9q5 -12 16 -12
q40 0 197 155q3 3 6 3q9 0 9 -9l-1 -4l-75 -147q43 27 80 47.5t89.5 48.5t90.5 49l6 2q4 0 4 -3q0 -4 -6 -7q-41 -24 -96 -54.5t-95.5 -53.5t-83.5 -51q-6 -12 -30.5 -59.5t-42.5 -81.5t-49 -90.5t-57.5 -99t-60 -94.5t-64 -88.5t-62 -69.5t-62 -49.5t-57.5 -16.5z
M-826 -519q27 0 59.5 22t63 54.5t67 84t64 95.5t62.5 106t54 98t46 88.5t32 61.5q-111 -64 -216.5 -149t-177.5 -170q-46 -54 -80.5 -118t-34.5 -109q0 -46 39 -60q14 -4 22 -4zM-274 343l-4 1q-15 8 -44 24t-44 23q-1 0 -1 2q0 3 7 8t13 5l4 -1q43 -24 76 -57l1 -1
q0 -4 -8 -4z" />
    <glyph glyph-name="quoteleft" unicode="&#x2018;" horiz-adv-x="96" 
 />
    <glyph glyph-name="quoteright" unicode="&#x2019;" horiz-adv-x="96" 
 />
    <glyph glyph-name="quotedblleft" unicode="&#x201c;" horiz-adv-x="151" 
 />
    <glyph glyph-name="quotedblright" unicode="&#x201d;" horiz-adv-x="151" 
 />
    <glyph glyph-name="Name_Preview" unicode="&#xe000;" horiz-adv-x="4599" 
d="M1676 -404q-6 0 -8 5q-17 48 -17 120q0 104 36.5 237t109.5 271q-100 14 -267 60q-394 -349 -662 -500q-2 -1 -5 -1q-4 0 -4 3q0 4 6 7q230 129 646 496q-36 10 -155.5 43.5t-178.5 48.5t-158 37.5t-180 32t-157 9.5q-212 0 -351 -87q-4 -2 -6 -2q-3 0 -3 3q0 4 5 7
q148 92 366 92q76 0 157.5 -9.5t181 -32t158.5 -37t180 -49t156 -43.5q40 35 150.5 132t194.5 169t186.5 156t182.5 137t128 68q5 2 12 2q5 0 5 -2q0 -5 -11 -8q-78 -27 -221 -139t-349 -294t-259 -226q168 -45 260 -58q75 139 211 327.5t269 317.5q9 9 17 9q7 0 7 -7
q0 -9 -10 -19q-111 -113 -245 -296.5t-214 -335.5q65 -7 106 -7q118 0 190 45q3 2 6 2q4 0 4 -3q0 -5 -5 -7q-83 -53 -210 -53q-39 0 -100 7q-77 -144 -119.5 -284.5t-42.5 -239.5q0 -58 15 -94l1 -3q0 -7 -9 -7zM2140 110q-16 0 -30 6q-29 12 -29 52q0 32 19 67
q27 49 59.5 71t59.5 22q30 0 30 -17q0 -21 -34 -46t-91 -36q-18 -36 -18 -61q0 -39 40 -41q101 0 305 152l5 2q4 0 4 -3t-4 -6q-86 -65 -174 -113.5t-142 -48.5zM2132 244q34 3 70 24t36 36q0 10 -14 10q-18 0 -43.5 -17.5t-48.5 -52.5zM2441 70l-12 2q-22 7 -22 32
q0 23 24 75.5t24 53.5q4 14 4 21q0 10 -6 15q-10 6 -10 17q0 18 20 39.5t38 21.5q11 -2 11 -8q0 -10 -16.5 -30t-29.5 -28q11 -10 11 -28q0 -25 -27.5 -79.5t-27.5 -68.5q0 -18 22 -18q12 0 32 7t41 17t49 26.5t50 30.5t51.5 33.5t45 30.5t39.5 27.5t27 18.5t7 2q3 0 3 -2
q0 -4 -5 -6q-6 -5 -49.5 -36t-77 -54t-78 -51.5t-80.5 -44.5t-58 -16zM2461 290q10 5 23 21t13 20q0 1 -1 1q-10 -5 -22.5 -20.5t-12.5 -21.5zM2734 107q-10 0 -17 7q-8 8 -8 25q0 30 22 72q22 46 52 75q-15 12 -15 23q0 13 18 13q17 0 27 -14q8 -11 10.5 -18.5t2.5 -10
t4 -6t17 -10.5q30 -15 78 -15q79 0 145 32l4 1q4 0 4 -3q0 -2 -5 -5q-76 -36 -153 -36q-51 0 -90 20q0 -48 -33 -99t-63 -51zM2740 122q21 0 47.5 47t26.5 83l-2 14l-8 5q-36 -36 -54.5 -76t-18.5 -62q0 -7 2 -9q4 -2 7 -2zM2802 294l-13 11q3 -5 13 -11zM2895 -214
q-3 0 -6 6q-7 18 -7 44q0 33 10.5 76.5t33.5 96t45.5 99.5t59.5 110t61 105t66 105.5t59 89.5t53.5 80t37.5 55q-231 45 -350 45q-154 0 -245 -57l-5 -2q-4 0 -4 4t5 7q101 63 267 63q115 0 344 -41q93 132 155 210q6 6 14 6q15 0 15 -11q0 -4 -3 -7q-101 -136 -146 -205
q9 -1 25 -4t24 -4q236 -38 383 -38q182 0 250 53q4 3 7 3q4 0 4 -4t-4 -7q-78 -61 -286 -61q-160 0 -359 34q-6 1 -26 4.5t-31 5.5q-55 -77 -114 -164.5t-143.5 -222t-138 -251t-53.5 -178.5q0 -10 7 -38q0 -7 -5 -7zM3292 104q-11 0 -18 4q-23 13 -23 44q0 41 33.5 100.5
t62.5 91.5q3 3 6 3q5 0 9.5 -4t4.5 -9l-2 -4q-34 -38 -65.5 -92t-31.5 -86t30 -32q29 0 86 35t115.5 76t82.5 49l5 1q5 0 5 -3q0 -5 -7 -6q-23 -9 -83 -52t-119 -79.5t-91 -36.5zM3400 368q-8 0 -13 3q-7 5 -7 13q0 17 15 17q9 0 14 -7q6 -6 6 -12q0 -14 -15 -14zM3452 -35
q-21 0 -34 12t-13 33q0 33 40 74.5t123 77.5q2 13 4 40t5 49t10 39q11 28 32.5 46.5t38.5 18.5q15 0 18 -16q0 -6 -3 -11.5t-9 -11t-12 -10.5t-13.5 -10t-12.5 -7.5t-12 -6.5l-6 -3q-4 -18 -7.5 -53.5t-6.5 -53.5q126 45 276 45q82 0 234 -17.5t224 -17.5q128 0 228 37l4 1
q5 0 5 -5t-6 -8q-107 -34 -237 -34q-76 0 -227 16t-227 16q-155 0 -276 -47q-16 -97 -57 -145t-83 -48zM3452 -24q35 0 71 52t44 118q-77 -33 -111 -68q-37 -40 -37 -68q0 -16 10 -25t23 -9zM3610 292q13 4 35.5 19t22.5 26v2q-1 7 -8 7q-11 0 -28 -18.5t-22 -35.5z" />
    <glyph glyph-name="a.ss01" unicode="&#xe105;" horiz-adv-x="1289" 
 />
    <glyph glyph-name="b.ss01" unicode="&#xe106;" horiz-adv-x="934" 
 />
    <glyph glyph-name="c.ss01" unicode="&#xe107;" horiz-adv-x="1154" 
 />
    <glyph glyph-name="d.ss01" unicode="&#xe108;" horiz-adv-x="1005" 
 />
    <glyph glyph-name="e.ss01" unicode="&#xe109;" horiz-adv-x="1166" 
 />
    <glyph glyph-name="f.ss01" unicode="&#xe110;" horiz-adv-x="1206" 
 />
    <glyph glyph-name="g.ss01" unicode="&#xe111;" horiz-adv-x="1077" 
 />
    <glyph glyph-name="h.ss01" unicode="&#xe112;" horiz-adv-x="986" 
 />
    <glyph glyph-name="i.ss01" unicode="&#xe113;" horiz-adv-x="987" 
 />
    <glyph glyph-name="j.ss01" unicode="&#xe114;" horiz-adv-x="1067" 
 />
    <glyph glyph-name="k.ss01" unicode="&#xe115;" horiz-adv-x="984" 
 />
    <glyph glyph-name="l.ss01" unicode="&#xe116;" horiz-adv-x="996" 
 />
    <glyph glyph-name="m.ss01" unicode="&#xe117;" horiz-adv-x="1406" 
 />
    <glyph glyph-name="n.ss01" unicode="&#xe118;" horiz-adv-x="1078" 
 />
    <glyph glyph-name="o.ss01" unicode="&#xe119;" horiz-adv-x="935" 
 />
    <glyph glyph-name="p.ss01" unicode="&#xe120;" horiz-adv-x="1091" 
 />
    <glyph glyph-name="q.ss01" unicode="&#xe121;" horiz-adv-x="1101" 
 />
    <glyph glyph-name="r.ss01" unicode="&#xe122;" horiz-adv-x="953" 
 />
    <glyph glyph-name="s.ss01" unicode="&#xe123;" horiz-adv-x="911" 
 />
    <glyph glyph-name="t.ss01" unicode="&#xe124;" horiz-adv-x="1186" 
 />
    <glyph glyph-name="u.ss01" unicode="&#xe125;" horiz-adv-x="1205" 
 />
    <glyph glyph-name="v.ss01" unicode="&#xe126;" horiz-adv-x="1043" 
 />
    <glyph glyph-name="w.ss01" unicode="&#xe127;" horiz-adv-x="1105" 
 />
    <glyph glyph-name="x.ss01" unicode="&#xe128;" horiz-adv-x="1005" 
 />
    <glyph glyph-name="y.ss01" unicode="&#xe129;" horiz-adv-x="1082" 
 />
    <glyph glyph-name="z.ss01" unicode="&#xe130;" horiz-adv-x="1054" 
 />
    <glyph glyph-name="a.ss02" unicode="&#xe131;" horiz-adv-x="707" 
 />
    <glyph glyph-name="b.ss02" unicode="&#xe132;" horiz-adv-x="1002" 
 />
    <glyph glyph-name="c.ss02" unicode="&#xe133;" horiz-adv-x="783" 
 />
    <glyph glyph-name="d.ss02" unicode="&#xe134;" horiz-adv-x="1050" 
 />
    <glyph glyph-name="e.ss02" unicode="&#xe135;" horiz-adv-x="770" 
 />
    <glyph glyph-name="f.ss02" unicode="&#xe136;" horiz-adv-x="781" 
 />
    <glyph glyph-name="g.ss02" unicode="&#xe137;" horiz-adv-x="1132" 
 />
    <glyph glyph-name="h.ss02" unicode="&#xe138;" horiz-adv-x="729" 
 />
    <glyph glyph-name="i.ss02" unicode="&#xe139;" horiz-adv-x="761" 
 />
    <glyph glyph-name="j.ss02" unicode="&#xe140;" horiz-adv-x="713" 
 />
    <glyph glyph-name="k.ss02" unicode="&#xe141;" horiz-adv-x="702" 
 />
    <glyph glyph-name="l.ss02" unicode="&#xe142;" horiz-adv-x="1122" 
 />
    <glyph glyph-name="m.ss02" unicode="&#xe143;" horiz-adv-x="684" 
 />
    <glyph glyph-name="n.ss02" unicode="&#xe144;" horiz-adv-x="494" 
 />
    <glyph glyph-name="o.ss02" unicode="&#xe145;" horiz-adv-x="724" 
 />
    <glyph glyph-name="p.ss02" unicode="&#xe146;" horiz-adv-x="597" 
 />
    <glyph glyph-name="q.ss02" unicode="&#xe147;" horiz-adv-x="979" 
 />
    <glyph glyph-name="r.ss02" unicode="&#xe148;" horiz-adv-x="384" 
 />
    <glyph glyph-name="s.ss02" unicode="&#xe149;" horiz-adv-x="985" 
d="M-306 -37q-21 0 -34.5 12t-13.5 33q0 38 45 80q44 41 119 73q2 13 4 40t5 49t10 39q11 28 32.5 46.5t38.5 18.5q13 0 17 -10l1 -6q0 -6 -3 -11.5t-9 -11t-12 -10.5t-13.5 -10t-12.5 -7.5t-12 -5.5l-6 -4q-4 -18 -7.5 -53.5t-6.5 -53.5q126 45 276 45q82 0 234 -17.5
t225 -17.5q128 0 228 37l4 1q5 0 5 -5t-6 -8q-107 -34 -237 -34q-76 0 -227.5 16t-227.5 16q-155 0 -276 -47q-16 -98 -57 -146t-83 -48zM-148 291q13 4 35.5 19t22.5 26v2q-1 7 -8 7q-11 0 -28 -18.5t-22 -35.5zM-306 -26q35 0 71 52.5t44 118.5q-77 -33 -111 -68
q-38 -39 -38 -69q0 -17 13 -27q8 -7 21 -7z" />
    <glyph glyph-name="t.ss02" unicode="&#xe150;" horiz-adv-x="1203" 
 />
    <glyph glyph-name="u.ss02" unicode="&#xe151;" horiz-adv-x="1032" 
 />
    <glyph glyph-name="v.ss02" unicode="&#xe152;" horiz-adv-x="818" 
 />
    <glyph glyph-name="w.ss02" unicode="&#xe153;" horiz-adv-x="818" 
 />
    <glyph glyph-name="x.ss02" unicode="&#xe154;" horiz-adv-x="628" 
 />
    <glyph glyph-name="y.ss02" unicode="&#xe155;" horiz-adv-x="514" 
 />
    <glyph glyph-name="z.ss02" unicode="&#xe156;" horiz-adv-x="553" 
 />
    <glyph glyph-name="r.init" unicode="&#xe393;" horiz-adv-x="638" 
 />
    <glyph glyph-name="ampersand.ss02" unicode="&#xe601;" horiz-adv-x="875" 
d="M242 -23q-50 0 -97 27q-71 41 -71 141q0 113 85 202q91 95 226 95q33 0 64 -6q-25 26 -25 60q0 51 51 94q-70 68 -152 68q-42 0 -83.5 -22.5t-41.5 -57.5q0 -4 5 -14t5 -13q0 -13 -12 -13q-14 0 -14 27l2 19q6 36 48 60.5t88 24.5q55 -1 91 -18.5t74 -51.5q45 32 90 32
q34 0 56.5 -16t22.5 -38q0 -19 -21 -34.5t-44 -15.5q-42 0 -100 51q-48 -40 -48 -84q0 -39 38 -64q2 -1 2 -4q0 -8 -7 -8q-61 7 -71 7q-55 0 -104 -18.5t-72 -35.5t-40 -36q-82 -83 -82 -187q0 -84 58 -124q40 -25 88 -25q53 0 106 29t91 78q53 71 55 140q-43 -11 -80 -11
q-47 0 -71 17.5t-24 42.5q0 26 24 46t56 20q39 0 71.5 -26.5t36.5 -72.5q48 12 82 27.5t68.5 35t62.5 31.5q46 21 81 21q27 0 41.5 -11t14.5 -28q0 -22 -23 -43l-5 -5q-6 -4 -11.5 -7.5t-9.5 -3.5q-9 0 -9 8q0 7 11 13q23 10 26 14q8 11 8 22q0 28 -44 28q-35 0 -77 -19
q-26 -12 -62 -32t-70.5 -35.5t-83.5 -28.5q0 -35 -17.5 -78.5t-43.5 -76.5q-41 -53 -98 -85t-115 -32zM429 247q34 0 74 11q-4 38 -30.5 62.5t-58.5 24.5q-22 0 -42 -15.5t-20 -37.5q0 -18 19.5 -31.5t57.5 -13.5zM593 537q19 0 34.5 11.5t15.5 25.5q0 16 -18 27.5t-45 11.5
q-41 0 -80 -27q57 -49 93 -49z" />
    <glyph glyph-name="ampersand.ss01" unicode="&#xe602;" horiz-adv-x="718" 
d="M579 -109q-60 0 -108.5 34t-71.5 94q-64 -38 -131 -38q-82 0 -138 54t-56 138q0 30 7 58q21 89 108 149.5t226 89.5q55 206 153 241q26 8 45 8q27 0 48 -12q8 -4 17 -12t19.5 -27t10.5 -41q0 -23 -11 -46q-10 -24 -29 -43t-37 -29.5t-49 -20t-48 -12.5t-53.5 -8.5
t-47.5 -7.5q-9 -31 -16 -82h5q60 0 92 -36t32 -92q0 -59 -34.5 -120t-96.5 -103q22 -57 65.5 -89.5t99.5 -32.5q22 0 46 6q8 2 23 11t22 9q9 0 9 -9q0 -11 -49 -24q-25 -7 -52 -7zM260 5q65 0 130 39q-15 54 -15 130q0 89 18 191q-38 -7 -64 -31t-26 -58q0 -7 1 -11.5
t2 -6.5t3.5 -6t4.5 -8v-2l1 -2q0 -10 -9 -10q-11 0 -14 30l-1 13q0 42 30 70t74 34q6 39 17 79q-163 -30 -243.5 -108t-80.5 -168q0 -72 48.5 -123.5t123.5 -51.5zM405 56q58 38 89.5 94t31.5 109q0 48 -26 78t-75 30h-10q-21 -137 -21 -203q0 -60 11 -108zM436 473
q109 14 165.5 35t83.5 71q12 23 12 46q0 47 -42 69q0 1 -5 3t-15 4t-21 2q-21 0 -42.5 -9t-46.5 -31.5t-48.5 -71t-40.5 -118.5z" />
    <glyph glyph-name="_249" horiz-adv-x="0" 
 />
    </font>
</defs>
</svg>
